<svg width="604" height="539" viewBox="0 0 604 539" fill="none" xmlns="http://www.w3.org/2000/svg">
<path d="M94.9086 142.802H522.08C525.191 142.802 528.174 143.886 530.374 145.815C532.574 147.745 533.809 150.362 533.809 153.09V413.663H83.1797V153.106C83.1773 151.754 83.4789 150.414 84.0673 149.164C84.6556 147.914 85.5192 146.778 86.6085 145.821C87.6979 144.864 88.9917 144.105 90.4159 143.587C91.8401 143.069 93.3668 142.802 94.9086 142.802Z" fill="#263238"/>
<path d="M534.741 414.464H82.2666V153.106C82.2666 150.164 83.598 147.341 85.9683 145.259C88.3387 143.177 91.5543 142.005 94.9089 142.001H522.081C525.437 142.005 528.655 143.176 531.028 145.258C533.401 147.34 534.737 150.162 534.741 153.106V414.464ZM84.0935 412.861H532.914V153.106C532.91 150.587 531.767 148.173 529.736 146.391C527.705 144.61 524.953 143.607 522.081 143.603H94.9089C92.0388 143.607 89.2879 144.611 87.2602 146.392C85.2324 148.174 84.0935 150.589 84.0935 153.106V412.861Z" fill="#263238"/>
<path d="M588.015 537.859H28.9756C22.8006 537.859 17.5939 530.087 20.3343 525.231L83.1805 418.134H533.828L597.003 524.863C599.762 529.702 594.281 537.859 588.015 537.859Z" fill="#263238"/>
<path d="M588.015 538.66H28.9753C27.2435 538.564 25.5682 538.083 24.1074 537.261C22.6466 536.44 21.4485 535.305 20.6263 533.965C19.5898 532.653 18.9418 531.136 18.7409 529.549C18.5399 527.963 18.7923 526.358 19.4753 524.879L82.5773 417.332H534.376L534.632 417.749L597.807 524.494C598.486 526.007 598.724 527.645 598.501 529.259C598.278 530.874 597.6 532.414 596.528 533.741C595.685 535.115 594.465 536.284 592.979 537.143C591.493 538.002 589.787 538.523 588.015 538.66ZM83.7831 418.935L21.1378 525.632C20.5969 526.865 20.4122 528.197 20.6003 529.508C20.7883 530.82 21.3433 532.07 22.2157 533.148C22.8805 534.246 23.8466 535.181 25.0268 535.869C26.2069 536.557 27.564 536.977 28.9753 537.09H588.015C589.477 536.953 590.877 536.5 592.092 535.773C593.306 535.047 594.297 534.067 594.975 532.923C595.876 531.827 596.456 530.555 596.667 529.217C596.877 527.879 596.71 526.516 596.181 525.247L533.262 418.935H83.7831Z" fill="#263238"/>
<path d="M588.015 533.388H28.9752C27.5604 533.389 26.1687 533.073 24.932 532.47C23.6953 531.867 22.6545 530.998 21.9081 529.943C21.1617 528.889 20.7344 527.685 20.6667 526.445C20.5991 525.206 20.8932 523.972 21.5213 522.859L83.1801 413.663H533.828L595.468 522.859C596.096 523.972 596.391 525.206 596.323 526.445C596.255 527.685 595.828 528.889 595.082 529.943C594.335 530.998 593.294 531.867 592.058 532.47C590.821 533.073 589.429 533.389 588.015 533.388Z" fill="white"/>
<path d="M588.015 534.189H28.9754C27.3992 534.201 25.8457 533.859 24.4632 533.195C23.0807 532.531 21.9152 531.567 21.0779 530.395C20.2407 529.224 19.7596 527.884 19.6806 526.503C19.6015 525.122 19.9271 523.746 20.6264 522.507L82.2851 413.31C82.3568 413.173 82.473 413.057 82.6192 412.977C82.7654 412.897 82.9351 412.857 83.1072 412.861H533.828C533.998 412.858 534.164 412.899 534.307 412.979C534.451 413.059 534.563 413.174 534.632 413.31L596.291 522.507C596.987 523.741 597.313 525.111 597.237 526.487C597.162 527.862 596.687 529.198 595.858 530.368C595.03 531.538 593.874 532.503 592.502 533.171C591.129 533.84 589.585 534.19 588.015 534.189ZM83.7832 414.464L22.3437 523.212C21.7839 524.202 21.5214 525.301 21.5811 526.404C21.6408 527.508 22.0207 528.58 22.6848 529.519C23.3489 530.457 24.2753 531.232 25.3761 531.769C26.477 532.306 27.7158 532.587 28.9754 532.587H588.015C589.274 532.587 590.513 532.306 591.614 531.769C592.715 531.232 593.641 530.457 594.305 529.519C594.97 528.58 595.349 527.508 595.409 526.404C595.469 525.301 595.206 524.202 594.647 523.212L533.262 414.464H83.7832Z" fill="#263238"/>
<path d="M506.534 164.244H110.475V392.205H506.534V164.244Z" fill="white"/>
<path d="M507.428 393.006H109.561V163.458H507.428V393.006ZM111.387 391.403H505.602V165.061H111.387V391.403Z" fill="#263238"/>
<path d="M497.691 268.136H120.76V384H497.691V268.136Z" fill="black"/>
<path opacity="0.46" d="M168.936 337.814V334.93C168.936 334.505 168.744 334.097 168.401 333.797C168.059 333.496 167.594 333.327 167.11 333.327H164.588C164.205 331.858 163.544 330.455 162.634 329.177L164.461 327.574C164.779 327.277 164.956 326.884 164.956 326.476C164.956 326.069 164.779 325.676 164.461 325.379L162.104 323.311C161.764 323.027 161.313 322.869 160.843 322.869C160.374 322.869 159.922 323.027 159.583 323.311L157.756 324.914C156.293 324.112 154.688 323.533 153.006 323.199V320.94C153.006 320.515 152.813 320.107 152.471 319.807C152.128 319.506 151.663 319.337 151.179 319.337H147.854C147.369 319.337 146.905 319.506 146.562 319.807C146.219 320.107 146.027 320.515 146.027 320.94V323.199C144.352 323.536 142.752 324.115 141.295 324.914L139.468 323.311C139.129 323.032 138.682 322.876 138.217 322.876C137.752 322.876 137.304 323.032 136.965 323.311L134.7 325.315C134.381 325.612 134.204 326.004 134.204 326.412C134.204 326.82 134.381 327.213 134.7 327.51L136.527 329.113C135.616 330.391 134.955 331.794 134.572 333.263H132.069C131.585 333.263 131.12 333.432 130.777 333.733C130.435 334.033 130.242 334.441 130.242 334.866V337.782C130.242 338.207 130.435 338.615 130.777 338.916C131.12 339.216 131.585 339.385 132.069 339.385H134.645C135.025 340.86 135.686 342.269 136.6 343.551L134.773 345.154C134.454 345.451 134.277 345.844 134.277 346.252C134.277 346.66 134.454 347.052 134.773 347.349L137.13 349.417C137.469 349.696 137.916 349.852 138.381 349.852C138.846 349.852 139.294 349.696 139.633 349.417L141.46 347.814C142.917 348.613 144.516 349.193 146.191 349.529V351.789C146.191 352.214 146.384 352.621 146.726 352.922C147.069 353.222 147.534 353.391 148.018 353.391H151.343C151.828 353.391 152.292 353.222 152.635 352.922C152.978 352.621 153.17 352.214 153.17 351.789V349.529C154.852 349.195 156.458 348.616 157.92 347.814L159.747 349.417C160.087 349.701 160.538 349.859 161.008 349.859C161.477 349.859 161.928 349.701 162.268 349.417L164.625 347.349C164.944 347.052 165.121 346.66 165.121 346.252C165.121 345.844 164.944 345.451 164.625 345.154L162.798 343.551C163.712 342.269 164.373 340.86 164.753 339.385H167.329C167.768 339.338 168.173 339.153 168.469 338.865C168.765 338.576 168.931 338.203 168.936 337.814ZM150.338 342.943C148.778 343.081 147.207 342.793 145.84 342.117C144.474 341.441 143.38 340.411 142.707 339.168C142.035 337.925 141.817 336.53 142.084 335.175C142.351 333.819 143.09 332.569 144.199 331.596C145.308 330.623 146.733 329.975 148.279 329.741C149.824 329.506 151.415 329.697 152.832 330.287C154.249 330.877 155.423 331.837 156.193 333.036C156.964 334.234 157.292 335.612 157.135 336.981C156.958 338.509 156.186 339.938 154.947 341.024C153.709 342.11 152.081 342.788 150.338 342.943Z" fill="white"/>
<path opacity="0.46" d="M200.305 358.247V355.33C200.305 354.905 200.112 354.498 199.77 354.197C199.427 353.896 198.962 353.728 198.478 353.728H196.011C195.625 352.251 194.958 350.843 194.038 349.561L195.865 347.959C196.189 347.66 196.37 347.265 196.37 346.853C196.37 346.441 196.189 346.045 195.865 345.747L193.509 343.68C193.169 343.396 192.717 343.237 192.248 343.237C191.779 343.237 191.327 343.396 190.987 343.68L189.16 345.282C187.697 344.483 186.091 343.904 184.41 343.568V341.34C184.41 340.915 184.218 340.507 183.875 340.207C183.533 339.906 183.068 339.737 182.584 339.737H179.24C178.756 339.737 178.291 339.906 177.948 340.207C177.606 340.507 177.413 340.915 177.413 341.34V343.6C175.732 343.936 174.127 344.515 172.663 345.314L170.836 343.712C170.497 343.428 170.045 343.269 169.576 343.269C169.106 343.269 168.655 343.428 168.315 343.712L165.959 345.779C165.635 346.077 165.454 346.473 165.454 346.885C165.454 347.297 165.635 347.693 165.959 347.991L167.785 349.593C166.858 350.871 166.191 352.281 165.812 353.76H163.255C162.77 353.76 162.305 353.929 161.963 354.229C161.62 354.53 161.428 354.937 161.428 355.362V358.279C161.428 358.704 161.62 359.111 161.963 359.412C162.305 359.713 162.77 359.881 163.255 359.881H165.812C166.191 361.355 166.858 362.759 167.785 364.032L165.959 365.634C165.635 365.933 165.454 366.328 165.454 366.74C165.454 367.152 165.635 367.548 165.959 367.846L168.315 369.897C168.655 370.181 169.106 370.34 169.576 370.34C170.045 370.34 170.497 370.181 170.836 369.897L172.663 368.295C174.127 369.094 175.732 369.673 177.413 370.009V372.269C177.413 372.694 177.606 373.102 177.948 373.402C178.291 373.703 178.756 373.871 179.24 373.871H182.584C183.068 373.871 183.533 373.703 183.875 373.402C184.218 373.102 184.41 372.694 184.41 372.269V370.009C186.091 369.673 187.697 369.094 189.16 368.295L190.987 369.897C191.327 370.181 191.779 370.34 192.248 370.34C192.717 370.34 193.169 370.181 193.509 369.897L195.865 367.846C196.189 367.548 196.37 367.152 196.37 366.74C196.37 366.328 196.189 365.933 195.865 365.634L194.038 364.032C194.958 362.756 195.625 361.353 196.011 359.881H198.569C199.044 359.861 199.491 359.678 199.815 359.373C200.139 359.068 200.315 358.664 200.305 358.247ZM181.707 363.439C180.141 363.581 178.565 363.294 177.193 362.618C175.821 361.941 174.722 360.909 174.045 359.663C173.369 358.416 173.15 357.017 173.417 355.657C173.684 354.297 174.425 353.042 175.538 352.066C176.65 351.09 178.08 350.441 179.631 350.206C181.182 349.972 182.777 350.164 184.198 350.757C185.619 351.35 186.795 352.315 187.566 353.518C188.337 354.721 188.664 356.105 188.503 357.478C188.323 359.005 187.549 360.431 186.312 361.517C185.074 362.603 183.448 363.281 181.707 363.439Z" fill="white"/>
<path d="M203.867 279.29H135.539C135.331 279.29 135.131 279.218 134.984 279.088C134.837 278.959 134.754 278.784 134.754 278.601C134.754 278.417 134.836 278.24 134.983 278.108C135.13 277.976 135.329 277.9 135.539 277.896H203.867C204.08 277.896 204.284 277.97 204.435 278.103C204.586 278.235 204.67 278.414 204.67 278.601C204.666 278.785 204.579 278.961 204.429 279.089C204.278 279.218 204.077 279.29 203.867 279.29Z" fill="#263238"/>
<path d="M203.867 287.943H135.539C135.329 287.939 135.13 287.863 134.983 287.731C134.836 287.6 134.754 287.423 134.754 287.238C134.754 287.056 134.837 286.88 134.984 286.751C135.131 286.622 135.331 286.549 135.539 286.549H203.867C204.077 286.549 204.278 286.621 204.429 286.75C204.579 286.879 204.666 287.054 204.67 287.238C204.67 287.425 204.586 287.605 204.435 287.737C204.284 287.869 204.08 287.943 203.867 287.943Z" fill="#263238"/>
<path d="M203.867 296.581H135.539C135.331 296.581 135.131 296.509 134.984 296.379C134.837 296.25 134.754 296.075 134.754 295.892C134.754 295.708 134.836 295.531 134.983 295.399C135.13 295.267 135.329 295.191 135.539 295.187H203.867C204.08 295.187 204.284 295.261 204.435 295.393C204.586 295.526 204.67 295.705 204.67 295.892C204.666 296.076 204.579 296.252 204.429 296.38C204.278 296.509 204.077 296.581 203.867 296.581Z" fill="#263238"/>
<path d="M203.867 305.235H135.539C135.329 305.231 135.13 305.155 134.983 305.023C134.836 304.891 134.754 304.714 134.754 304.53C134.754 304.347 134.837 304.172 134.984 304.043C135.131 303.914 135.331 303.841 135.539 303.841H203.867C204.077 303.841 204.278 303.913 204.429 304.042C204.579 304.171 204.666 304.346 204.67 304.53C204.67 304.717 204.586 304.896 204.435 305.029C204.284 305.161 204.08 305.235 203.867 305.235Z" fill="#263238"/>
<path d="M490.457 174.997H127.994C123.999 174.997 120.76 177.838 120.76 181.343V182.064C120.76 185.569 123.999 188.41 127.994 188.41H490.457C494.452 188.41 497.691 185.569 497.691 182.064V181.343C497.691 177.838 494.452 174.997 490.457 174.997Z" fill="black"/>
<path d="M490.457 219.227H127.994C123.999 219.227 120.76 222.068 120.76 225.573V226.294C120.76 229.799 123.999 232.64 127.994 232.64H490.457C494.452 232.64 497.691 229.799 497.691 226.294V225.573C497.691 222.068 494.452 219.227 490.457 219.227Z" fill="black"/>
<path d="M289.696 451.563L290.481 436.964H266.676L265.087 451.563H289.696Z" fill="#263238"/>
<path d="M290.572 452.364H264.082L265.909 436.162H291.486L290.572 452.364ZM266.092 450.761H288.819L289.531 437.765H267.498L266.092 450.761Z" fill="white"/>
<path d="M338.913 451.563L338.109 436.964H314.286L314.304 451.563H338.913Z" fill="#263238"/>
<path d="M339.881 452.364H313.391V436.162H338.968L339.881 452.364ZM315.218 450.761H337.945L337.232 437.765H315.199L315.218 450.761Z" fill="white"/>
<path d="M467.072 467.155H492.54L486.566 451.562H461.957L467.072 467.155Z" fill="#263238"/>
<path d="M493.8 467.94H466.396L460.732 450.745H487.223L493.8 467.94ZM467.766 466.338H491.26L485.907 452.348H463.162L467.766 466.338Z" fill="white"/>
<path d="M265.087 451.563L266.677 436.964H242.854L240.479 451.563H265.087Z" fill="#263238"/>
<path d="M265.928 452.364H239.438L242.068 436.162H267.645L265.928 452.364ZM241.538 450.761H264.265L265.672 437.765H243.749L241.538 450.761Z" fill="white"/>
<path d="M215.869 451.563L219.048 436.964H195.225L191.261 451.563H215.869Z" fill="#263238"/>
<path d="M216.637 452.364H190.11L194.513 436.162H220.09L216.637 452.364ZM192.431 450.761H215.121L217.934 437.765H196.011L192.431 450.761Z" fill="white"/>
<path d="M437.348 451.563L433.347 436.964H409.542L412.739 451.563H437.348Z" fill="#263238"/>
<path d="M438.499 452.364H411.972L408.428 436.162H434.005L438.499 452.364ZM413.488 450.761H436.179L432.635 437.765H410.711L413.488 450.761Z" fill="white"/>
<path d="M461.956 451.563L457.152 436.964H433.347L437.348 451.563H461.956Z" fill="#263238"/>
<path d="M463.163 452.364H436.617L432.196 436.162H457.773L463.163 452.364ZM438.061 450.761H460.733L456.476 437.765H434.553L438.061 450.761Z" fill="white"/>
<path d="M191.261 451.563L195.225 436.964H171.421L166.652 451.563H191.261Z" fill="#263238"/>
<path d="M191.992 452.364H165.446L170.726 436.162H196.394L191.992 452.364ZM167.876 450.761H190.53L194.056 437.765H172.133L167.876 450.761Z" fill="white"/>
<path d="M363.522 451.563L361.914 436.964H338.109L338.913 451.563H363.522Z" fill="#263238"/>
<path d="M364.527 452.364H338.037L337.142 436.162H362.719L364.527 452.364ZM339.791 450.761H362.518L361.093 437.765H339.06L339.791 450.761Z" fill="white"/>
<path d="M486.566 451.563L480.975 436.964H457.152L461.957 451.563H486.566Z" fill="#263238"/>
<path d="M487.826 452.364H461.263L455.946 436.162H481.633L487.826 452.364ZM462.633 450.761H485.287L480.317 437.765H458.394L462.633 450.761Z" fill="white"/>
<path d="M412.739 451.563L409.542 436.964H385.719L388.13 451.563H412.739Z" fill="#263238"/>
<path d="M413.836 452.364H387.345L384.678 436.162H410.255L413.836 452.364ZM388.916 450.761H411.588L408.738 437.765H386.815L388.916 450.761Z" fill="white"/>
<path d="M388.13 451.563L385.719 436.964H361.914L363.522 451.563H388.13Z" fill="#263238"/>
<path d="M389.19 452.364H362.7L360.873 436.162H386.45L389.19 452.364ZM364.344 450.761H387.071L384.934 437.765H362.919L364.344 450.761Z" fill="white"/>
<path d="M314.305 451.563L314.287 436.964H290.482L289.696 451.563H314.305Z" fill="#263238"/>
<path d="M315.218 452.364H288.746L289.605 436.162H315.182L315.218 452.364ZM290.664 450.761H313.391V437.765H291.359L290.664 450.761Z" fill="white"/>
<path d="M142.062 451.562H117.453L110.657 467.155H136.106L142.062 451.562Z" fill="#263238"/>
<path d="M136.764 467.94H109.36L116.851 450.745H143.359L136.764 467.94ZM111.973 466.338H135.449L140.783 452.348H118.075L111.973 466.338Z" fill="white"/>
<path d="M147.616 436.964H123.793L117.453 451.563H142.062L147.616 436.964Z" fill="#263238"/>
<path d="M142.702 452.364H116.12L123.172 436.162H148.877L142.702 452.364ZM118.769 450.761H141.387L146.337 437.765H124.414L118.769 450.761Z" fill="white"/>
<path d="M166.653 451.563L171.421 436.964H147.616L142.062 451.563H166.653Z" fill="#263238"/>
<path d="M167.347 452.364H140.783L146.958 436.162H172.535L167.347 452.364ZM143.323 450.761H165.976L170.215 437.765H148.292L143.323 450.761Z" fill="white"/>
<path d="M103.368 483.87L95.5488 501.834H122.898L129.749 483.87H103.368Z" fill="#263238"/>
<path d="M123.555 502.636H94.2148L102.838 483.069H131.1L123.555 502.636ZM96.8639 501.033H122.24L128.415 484.671H104.007L96.8639 501.033Z" fill="white"/>
<path d="M136.107 467.155H110.658L103.368 483.87H129.749L136.107 467.155Z" fill="#263238"/>
<path d="M130.406 484.671H102.034L110.018 466.338H137.422L130.406 484.671ZM104.702 483.068H129.091L134.846 467.956H111.278L104.702 483.068Z" fill="white"/>
<path d="M129.748 483.87L122.897 501.834H150.247L156.111 483.87H129.748Z" fill="#263238"/>
<path d="M150.941 502.636H121.71L129.164 483.069H157.39L150.941 502.636ZM124.158 501.033H149.552L154.905 484.671H130.406L124.158 501.033Z" fill="white"/>
<path d="M240.479 451.563L242.854 436.964H219.049L215.87 451.563H240.479Z" fill="#263238"/>
<path d="M241.282 452.364H214.773L218.281 436.162H243.858L241.282 452.364ZM216.984 450.761H239.693L241.794 437.765H219.761L216.984 450.761Z" fill="white"/>
<path d="M237.939 467.155L240.479 451.562H215.87L212.49 467.155H237.939Z" fill="#263238"/>
<path d="M238.743 467.94H211.339L215.084 450.745H241.501L238.743 467.94ZM213.586 466.338H237.153L239.437 452.348H216.637L213.586 466.338Z" fill="white"/>
<path d="M212.49 467.155L215.87 451.562H191.261L187.022 467.155H212.49Z" fill="#263238"/>
<path d="M213.239 467.94H185.835L190.53 450.761H216.966L213.239 467.94ZM188.192 466.338H211.723L214.773 452.348H191.992L188.192 466.338Z" fill="white"/>
<path d="M263.407 467.155L265.088 451.562H240.479L237.939 467.155H263.407Z" fill="#263238"/>
<path d="M264.228 467.94H236.824L239.619 450.745H266.019L264.228 467.94ZM238.998 466.338H262.566L264.082 452.348H241.282L238.998 466.338Z" fill="white"/>
<path d="M166.653 451.562H142.062L136.106 467.155H161.574L166.653 451.562Z" fill="#263238"/>
<path d="M162.25 467.94H134.846L141.386 450.745H167.877L162.25 467.94ZM137.385 466.338H160.879L165.447 452.348H142.701L137.385 466.338Z" fill="white"/>
<path d="M472.571 483.87H498.934L492.54 467.155H467.072L472.571 483.87Z" fill="#263238"/>
<path d="M500.212 484.671H471.877L465.866 466.338H493.27L500.212 484.671ZM473.247 483.068H497.673L491.973 467.94H468.223L473.247 483.068Z" fill="white"/>
<path d="M187.022 467.155L191.261 451.562H166.652L161.573 467.155H187.022Z" fill="#263238"/>
<path d="M187.753 467.94H160.35L165.977 450.745H192.357L187.753 467.94ZM162.779 466.338H186.31L190.11 452.348H167.347L162.779 466.338Z" fill="white"/>
<path d="M136.106 467.155L129.748 483.87H156.111L161.573 467.155H136.106Z" fill="#263238"/>
<path d="M156.805 484.671H128.415L135.449 466.338H162.853L156.805 484.671ZM131.009 483.068H155.417L160.35 467.956H136.764L131.009 483.068Z" fill="white"/>
<path d="M416.156 467.155L412.74 451.562H388.131L390.707 467.155H416.156Z" fill="#263238"/>
<path d="M417.27 467.94H389.866L387.034 450.745H413.415L417.27 467.94ZM391.492 466.338H415.059L411.972 452.348H389.19L391.492 466.338Z" fill="white"/>
<path d="M390.706 467.155L388.13 451.562H363.521L365.239 467.155H390.706Z" fill="#263238"/>
<path d="M391.748 467.94H364.345L362.518 450.745H388.917L391.748 467.94ZM366.062 466.338H389.666L387.364 452.348H364.527L366.062 466.338Z" fill="white"/>
<path d="M467.072 467.155L461.956 451.562H437.348L441.623 467.155H467.072Z" fill="#263238"/>
<path d="M468.223 467.94H440.819L436.105 450.745H462.559L468.223 467.94ZM442.262 466.338H465.793L461.189 452.348H438.499L442.262 466.338Z" fill="white"/>
<path d="M314.323 467.155L314.305 451.562H289.696L288.855 467.155H314.323Z" fill="#263238"/>
<path d="M315.236 467.94H287.832L288.745 450.745H315.145L315.236 467.94ZM289.823 466.338H313.409V452.348H290.572L289.823 466.338Z" fill="white"/>
<path d="M365.239 467.155L363.522 451.562H338.913L339.772 467.155H365.239Z" fill="#263238"/>
<path d="M366.244 467.94H338.84L337.872 450.745H364.271L366.244 467.94ZM340.667 466.338H364.253L362.718 452.348H339.882L340.667 466.338Z" fill="white"/>
<path d="M339.772 467.155L338.913 451.562H314.305L314.323 467.155H339.772Z" fill="#263238"/>
<path d="M340.74 467.94H313.336V450.761H339.79L340.74 467.94ZM315.163 466.338H338.748L337.963 452.348H315.218L315.163 466.338Z" fill="white"/>
<path d="M288.855 467.155L289.696 451.562H265.087L263.406 467.155H288.855Z" fill="#263238"/>
<path d="M289.732 467.94H262.328L264.155 450.745H290.554L289.732 467.94ZM264.411 466.338H287.996L288.745 452.348H265.927L264.411 466.338Z" fill="white"/>
<path d="M365.239 467.155L367.084 483.87H393.447L390.707 467.155H365.239Z" fill="#263238"/>
<path d="M394.507 484.671H366.244L364.234 466.338H391.492L394.507 484.671ZM367.907 483.068H392.406L389.903 467.94H366.244L367.907 483.068Z" fill="white"/>
<path d="M390.707 467.155L393.447 483.87H419.828L416.156 467.155H390.707Z" fill="#263238"/>
<path d="M420.924 484.671H392.661L389.665 466.338H416.923L420.924 484.671ZM394.251 483.068H418.713L415.406 467.94H391.748L394.251 483.068Z" fill="white"/>
<path d="M161.574 467.155L156.111 483.87H182.474L187.023 467.155H161.574Z" fill="#263238"/>
<path d="M183.223 484.671H154.905L160.879 466.338H188.192L183.223 484.671ZM157.335 483.068H181.761L185.872 467.956H162.25L157.335 483.068Z" fill="white"/>
<path d="M416.155 467.155L419.827 483.87H446.19L441.623 467.155H416.155Z" fill="#263238"/>
<path d="M447.36 484.671H419.079L415.06 466.338H442.336L447.36 484.671ZM420.577 483.068H445.039L440.819 467.94H417.27L420.577 483.068Z" fill="white"/>
<path d="M314.323 467.155L314.342 483.87H340.704L339.772 467.155H314.323Z" fill="#263238"/>
<path d="M341.672 484.671H313.428V466.338H340.667L341.672 484.671ZM315.255 483.068H339.754L338.913 467.956H315.163L315.255 483.068Z" fill="white"/>
<path d="M441.623 467.155L446.19 483.87H472.571L467.072 467.155H441.623Z" fill="#263238"/>
<path d="M473.704 484.671H445.478L440.454 466.338H467.767L473.704 484.671ZM446.848 483.068H471.274L466.396 467.94H442.774L446.848 483.068Z" fill="white"/>
<path d="M339.771 467.155L340.703 483.87H367.084L365.239 467.155H339.771Z" fill="#263238"/>
<path d="M368.09 484.671H339.845L338.822 466.338H366.062L368.09 484.671ZM341.581 483.068H366.08L364.417 467.956H340.667L341.581 483.068Z" fill="white"/>
<path d="M212.49 467.155L208.854 483.87H235.235L237.939 467.155H212.49Z" fill="#263238"/>
<path d="M236.02 484.671H207.758L211.722 466.338H238.998L236.02 484.671ZM209.95 483.068H234.376L236.842 467.956H213.239L209.95 483.068Z" fill="white"/>
<path d="M187.023 467.155L182.474 483.87H208.854L212.49 467.155H187.023Z" fill="#263238"/>
<path d="M209.603 484.671H181.396L186.31 466.338H213.586L209.603 484.671ZM183.643 483.068H208.105L211.375 467.956H187.753L183.643 483.068Z" fill="white"/>
<path d="M288.855 467.155L287.979 483.87H314.341L314.323 467.155H288.855Z" fill="#263238"/>
<path d="M315.255 484.671H287.011L287.997 466.354H315.237L315.255 484.671ZM288.929 483.069H313.428V467.941H289.678L288.929 483.069Z" fill="white"/>
<path d="M263.406 467.155L261.598 483.87H287.978L288.855 467.155H263.406Z" fill="#263238"/>
<path d="M288.837 484.671H260.593L262.566 466.338H289.824L288.837 484.671ZM262.602 483.068H287.101L287.905 467.956H264.155L262.602 483.068Z" fill="white"/>
<path d="M237.939 467.155L235.235 483.87H261.598L263.407 467.155H237.939Z" fill="#263238"/>
<path d="M262.42 484.671H234.176L237.154 466.338H264.411L262.42 484.671ZM236.277 483.068H260.758L262.402 467.956H238.652L236.277 483.068Z" fill="white"/>
<path d="M441.623 467.155L437.348 451.562H412.739L416.156 467.155H441.623Z" fill="#263238"/>
<path d="M442.774 467.94H415.37L411.588 450.761H438.024L442.774 467.94ZM416.904 466.338H440.453L436.617 452.348H413.835L416.904 466.338Z" fill="white"/>
<path d="M147.616 436.964L153.298 422.028H130.297L123.793 436.964H147.616Z" fill="#263238"/>
<path d="M148.274 437.765H122.478L129.676 421.227H154.577L148.274 437.765ZM125.127 436.162H147.05L152.129 422.829H130.936L125.127 436.162Z" fill="white"/>
<path d="M123.793 436.964H101.815L94.7266 451.563H117.454L123.793 436.964Z" fill="#263238"/>
<path d="M118.075 452.364H93.3564L101.212 436.162H125.127L118.075 452.364ZM96.1516 450.761H116.851L122.514 437.765H102.418L96.1516 450.761Z" fill="white"/>
<path d="M130.296 422.028H109.067L101.814 436.964H123.792L130.296 422.028Z" fill="#263238"/>
<path d="M124.432 437.765H100.444L108.465 421.227H131.63L124.432 437.765ZM103.203 436.162H123.171L128.981 422.829H109.689L103.203 436.162Z" fill="white"/>
<path d="M117.453 451.562H94.7263L87.1445 467.155H110.657L117.453 451.562Z" fill="#263238"/>
<path d="M111.278 467.94H85.7012L94.0502 450.745H118.695L111.278 467.94ZM88.5329 466.338H110.018L116.119 452.348H95.3291L88.5329 466.338Z" fill="white"/>
<path d="M110.657 467.155H87.1448L79.0332 483.87H103.368L110.657 467.155Z" fill="#263238"/>
<path d="M104.007 484.671H77.6445L86.5417 466.338H111.972L104.007 484.671ZM80.4032 483.068H102.838L109.415 467.956H87.7474L80.4032 483.068Z" fill="white"/>
<path d="M103.368 483.87H79.0335L70.3008 501.834H95.5489L103.368 483.87Z" fill="#263238"/>
<path d="M96.1699 502.636H68.9121L78.4304 483.069H104.665L96.1699 502.636ZM71.689 501.033H94.9093L102.034 484.671H79.6362L71.689 501.033Z" fill="white"/>
<path d="M511.174 451.562L517.988 467.155H540.514L532.933 451.562H511.174Z" fill="#263238"/>
<path d="M541.903 467.94H517.368L509.841 450.745H533.591L541.903 467.94ZM518.628 466.338H539.126L532.33 452.348H512.49L518.628 466.338Z" fill="white"/>
<path d="M525.314 483.87H548.644L540.514 467.155H517.988L525.314 483.87Z" fill="#263238"/>
<path d="M550.014 484.671H524.675L516.673 466.338H541.117L550.014 484.671ZM525.935 483.068H547.256L539.948 467.956H519.377L525.935 483.068Z" fill="white"/>
<path d="M533.17 501.834H557.359L548.644 483.87H525.314L533.17 501.834Z" fill="#263238"/>
<path d="M558.747 502.636H532.549L523.98 483.069H549.247L558.747 502.636ZM533.791 501.033H555.915L547.968 484.671H526.684L533.791 501.033Z" fill="white"/>
<path d="M338.109 436.964L337.269 422.028H314.268L314.286 436.964H338.109Z" fill="#263238"/>
<path d="M339.06 437.765H313.373V421.227H338.146L339.06 437.765ZM315.2 436.162H337.123L336.374 422.829H315.182L315.2 436.162Z" fill="white"/>
<path d="M511.175 451.563H532.933L525.845 436.964H504.78L511.175 451.563Z" fill="#263238"/>
<path d="M534.321 452.364H510.571L503.482 436.162H526.483L534.321 452.364ZM511.795 450.761H531.544L525.241 437.765H506.113L511.795 450.761Z" fill="white"/>
<path d="M498.933 483.87H525.314L517.988 467.155H492.539L498.933 483.87Z" fill="#263238"/>
<path d="M526.685 484.671H498.276L491.261 466.338H518.665L526.685 484.671ZM499.628 483.068H524.018L517.368 467.94H493.8L499.628 483.068Z" fill="white"/>
<path d="M171.421 436.964L176.299 422.028H153.298L147.616 436.964H171.421Z" fill="#263238"/>
<path d="M172.115 437.765H146.337L152.64 421.227H177.504L172.115 437.765ZM148.876 436.162H170.799L175.166 422.829H153.992L148.876 436.162Z" fill="white"/>
<path d="M480.975 436.964L486.565 451.563H511.174L504.779 436.964H480.975Z" fill="#263238"/>
<path d="M512.49 452.364H485.908L479.696 436.162H505.401L512.49 452.364ZM487.223 450.761H509.841L504.159 437.765H482.236L487.223 450.761Z" fill="white"/>
<path d="M525.844 436.964L518.591 422.028H498.239L504.78 436.964H525.844Z" fill="#263238"/>
<path d="M527.232 437.765H504.158L496.851 421.227H519.194L527.232 437.765ZM505.401 436.162H524.455L517.988 422.829H499.573L505.401 436.162Z" fill="white"/>
<path d="M504.78 436.964L498.24 422.028H475.257L480.975 436.964H504.78Z" fill="#263238"/>
<path d="M506.113 437.765H480.317L473.978 421.227H498.879L506.113 437.765ZM481.632 436.162H503.446L497.618 422.829H476.517L481.632 436.162Z" fill="white"/>
<path d="M419.828 483.87L423.774 501.834H451.123L446.191 483.87H419.828Z" fill="#263238"/>
<path d="M452.274 502.636H423.043L418.75 483.069H446.958L452.274 502.636ZM424.523 501.033H449.954L445.478 484.671H420.924L424.523 501.033Z" fill="white"/>
<path d="M505.821 501.834H533.17L525.314 483.87H498.934L505.821 501.834Z" fill="#263238"/>
<path d="M534.504 502.636H505.163L497.673 483.069H525.935L534.504 502.636ZM506.479 501.033H531.836L524.675 484.671H500.212L506.479 501.033Z" fill="white"/>
<path d="M480.975 436.964L475.257 422.028H452.256L457.152 436.964H480.975Z" fill="#263238"/>
<path d="M482.236 437.765H456.476L450.995 421.227H475.878L482.236 437.765ZM457.846 436.162H479.769L474.672 422.829H453.461L457.846 436.162Z" fill="white"/>
<path d="M472.571 483.87L478.472 501.834H505.821L498.934 483.87H472.571Z" fill="#263238"/>
<path d="M507.081 502.636H477.851L471.42 483.069H499.664L507.081 502.636ZM479.148 501.033H504.542L498.276 484.671H473.704L479.148 501.033Z" fill="white"/>
<path d="M446.19 483.87L451.123 501.834H478.472L472.571 483.87H446.19Z" fill="#263238"/>
<path d="M479.677 502.636H450.447L445.094 483.069H473.301L479.677 502.636ZM451.835 501.033H477.248L471.876 484.671H447.359L451.835 501.033Z" fill="white"/>
<path d="M492.539 467.155H517.989L511.174 451.562H486.565L492.539 467.155Z" fill="#263238"/>
<path d="M519.377 467.94H491.973L485.378 450.745H511.887L519.377 467.94ZM493.252 466.338H516.728L510.589 452.348H487.826L493.252 466.338Z" fill="white"/>
<path d="M266.677 436.964L268.284 422.028H245.283L242.854 436.964H266.677Z" fill="#263238"/>
<path d="M267.499 437.765H241.794L244.498 421.227H269.289L267.499 437.765ZM243.913 436.162H265.836L267.28 422.829H246.087L243.913 436.162Z" fill="white"/>
<path d="M457.152 436.964L452.256 422.028H429.255L433.347 436.964H457.152Z" fill="#263238"/>
<path d="M458.375 437.765H432.634L428.03 421.227H452.858L458.375 437.765ZM434.059 436.162H455.982L451.598 422.829H430.424L434.059 436.162Z" fill="white"/>
<path d="M242.854 436.964L245.283 422.028H222.282L219.049 436.964H242.854Z" fill="#263238"/>
<path d="M243.658 437.765H217.935L221.588 421.227H246.398L243.658 437.765ZM220.145 436.162H242.068L244.242 422.829H223.05L220.145 436.162Z" fill="white"/>
<path d="M314.286 436.964L314.268 422.028H291.285L290.481 436.964H314.286Z" fill="#263238"/>
<path d="M315.2 437.765H289.531L290.408 421.227H315.181L315.2 437.765ZM291.45 436.162H313.373V422.829H292.144L291.45 436.162Z" fill="white"/>
<path d="M219.049 436.964L222.282 422.028H199.3L195.226 436.964H219.049Z" fill="#263238"/>
<path d="M219.761 437.765H194.074L198.568 421.227H223.415L219.761 437.765ZM196.358 436.162H218.281L221.186 422.829H200.012L196.358 436.162Z" fill="white"/>
<path d="M195.226 436.964L199.3 422.028H176.299L171.421 436.964H195.226Z" fill="#263238"/>
<path d="M196.011 437.765H170.215L175.696 421.227H200.542L196.011 437.765ZM172.681 436.162H194.604L198.258 422.829H176.993L172.681 436.162Z" fill="white"/>
<path d="M290.482 436.964L291.285 422.028H268.284L266.677 436.964H290.482Z" fill="#263238"/>
<path d="M291.358 437.765H265.672L267.499 421.227H292.29L291.358 437.765ZM267.608 436.162H289.532L290.244 422.829H269.088L267.608 436.162Z" fill="white"/>
<path d="M433.347 436.964L429.255 422.028H406.254L409.542 436.964H433.347Z" fill="#263238"/>
<path d="M434.498 437.765H408.775L405.121 421.227H429.949L434.498 437.765ZM410.291 436.162H432.214L428.561 422.829H407.368L410.291 436.162Z" fill="white"/>
<path d="M409.543 436.964L406.254 422.028H383.271L385.72 436.964H409.543Z" fill="#263238"/>
<path d="M410.638 437.765H384.933L382.211 421.227H407.021L410.638 437.765ZM386.522 436.162H408.446L405.522 422.829H384.33L386.522 436.162Z" fill="white"/>
<path d="M361.915 436.964L360.271 422.028H337.27L338.11 436.964H361.915Z" fill="#263238"/>
<path d="M362.919 437.765H337.233L336.319 421.227H361.092L362.919 437.765ZM338.968 436.162H360.892L359.412 422.829H338.219L338.968 436.162Z" fill="white"/>
<path d="M419.828 483.87H393.447H367.085H340.704H314.342H287.979H261.598H235.236H208.855H182.474H156.112L150.247 501.834H177.596H204.945H232.313H259.662H287.011H314.36H341.709H369.058H396.407H423.774L419.828 483.87Z" fill="#263238"/>
<path d="M424.87 502.636H149.004L155.38 483.069H420.576L424.87 502.636ZM151.452 501.033H422.659L419.005 484.671H156.805L151.452 501.033Z" fill="white"/>
<path d="M385.719 436.964L383.271 422.028H360.27L361.914 436.964H385.719Z" fill="#263238"/>
<path d="M386.779 437.765H361.093L359.266 421.227H384.057L386.779 437.765ZM362.737 436.162H384.66L382.449 422.829H361.257L362.737 436.162Z" fill="white"/>
<mask id="mask0_105_2150" style="mask-type:luminance" maskUnits="userSpaceOnUse" x="151" y="99" width="323" height="293">
<path d="M473.575 99.5016H151.562V391.387H473.575V99.5016Z" fill="white"/>
</mask>
<g mask="url(#mask0_105_2150)">
<path d="M344.211 295.155C371.121 295.155 392.936 270.796 392.936 240.749C392.936 210.701 371.121 186.343 344.211 186.343C317.302 186.343 295.487 210.701 295.487 240.749C295.487 270.796 317.302 295.155 344.211 295.155Z" fill="#263238"/>
<path d="M344.211 295.94C316.807 295.94 294.555 271.181 294.555 240.749C294.555 210.317 316.825 185.541 344.211 185.541C371.596 185.541 393.848 210.3 393.848 240.749C393.848 271.197 371.578 295.94 344.211 295.94ZM344.211 187.144C317.83 187.144 296.382 211.182 296.382 240.749C296.382 270.315 317.83 294.337 344.211 294.337C370.591 294.337 392.021 270.299 392.021 240.749C392.021 211.198 370.573 187.144 344.211 187.144Z" fill="#263238"/>
<path d="M234.376 379.304C229.9 379.304 224.821 375.827 222.118 373.679C218.318 370.65 214.39 366.404 214.39 364.513C214.39 361.804 250.928 265.155 255.148 254.178C255.196 254.05 255.279 253.934 255.391 253.842C255.503 253.749 255.639 253.683 255.788 253.649C255.934 253.617 256.086 253.616 256.233 253.647C256.379 253.678 256.515 253.739 256.628 253.826L270.458 264.899C270.566 264.985 270.649 265.093 270.7 265.212C270.75 265.332 270.768 265.461 270.75 265.588L257.121 370.586C257.105 370.708 257.057 370.825 256.981 370.927C256.905 371.03 256.803 371.116 256.683 371.179C256.117 371.484 242.78 378.599 235.089 379.272L234.376 379.304ZM256.445 255.909C244.936 286.357 216.527 361.676 216.253 364.609C216.253 365.522 219.03 369.096 223.378 372.541C227.726 375.987 232.056 377.974 234.943 377.734C241.538 377.157 253.212 371.243 255.386 370.073L268.923 265.909L256.445 255.909Z" fill="#263238"/>
<path d="M336.775 240.236L255.952 254.418L268.887 394.095H426.514L447.524 248.745L351.318 239.53L336.775 240.236Z" fill="#D75757"/>
<path d="M426.514 394.896H268.887C268.659 394.897 268.439 394.82 268.273 394.683C268.106 394.546 268.006 394.359 267.992 394.159L255.039 254.482C255.021 254.287 255.086 254.092 255.22 253.936C255.355 253.779 255.551 253.671 255.77 253.633L336.684 239.45L351.3 238.729L447.634 247.96C447.875 247.983 448.097 248.086 448.255 248.248C448.33 248.334 448.384 248.432 448.416 248.537C448.447 248.641 448.454 248.75 448.437 248.857L427.428 394.223C427.393 394.413 427.281 394.585 427.114 394.709C426.946 394.832 426.733 394.899 426.514 394.896ZM269.746 393.294H425.71L446.501 249.466L351.3 240.38L336.958 241.085L256.994 255.123L269.746 393.294Z" fill="#263238"/>
<mask id="mask1_105_2150" style="mask-type:luminance" maskUnits="userSpaceOnUse" x="255" y="239" width="193" height="156">
<mask id="mask2_105_2150" style="mask-type:luminance" maskUnits="userSpaceOnUse" x="255" y="239" width="193" height="156">
<path d="M336.775 240.236L255.952 254.418L268.887 394.095H426.514L447.524 248.745L351.318 239.53L336.775 240.236Z" fill="white"/>
</mask>
<g mask="url(#mask2_105_2150)">
<path d="M426.514 394.896H268.887C268.659 394.896 268.439 394.82 268.273 394.683C268.106 394.546 268.006 394.359 267.992 394.159L255.039 254.482C255.021 254.286 255.086 254.092 255.22 253.935C255.355 253.779 255.551 253.671 255.77 253.632L336.684 239.45L351.3 238.729L447.634 247.959C447.875 247.982 448.097 248.086 448.255 248.248C448.33 248.334 448.384 248.432 448.416 248.536C448.447 248.641 448.454 248.75 448.437 248.857L427.428 394.223C427.393 394.413 427.281 394.585 427.114 394.708C426.946 394.832 426.733 394.898 426.514 394.896ZM269.746 393.293H425.71L446.501 249.466L351.3 240.379L336.958 241.085L256.994 255.123L269.746 393.293Z" fill="white"/>
</g>
</mask>
<g mask="url(#mask1_105_2150)">
<path opacity="0.3" d="M268.887 394.095H426.514L430.479 366.74L430.186 365.41L392.15 372.685L408.738 311.436L317.465 346.612L295.341 366.019H309.171L268.467 389.512L268.887 394.095Z" fill="#D75757"/>
</g>
<path d="M328.189 232.367C328.189 232.367 315.072 238.665 311.747 244.322C308.422 249.979 294.665 291.998 294.665 291.998L317.301 296.26L295.487 305.475L328.5 388.422L381.042 385.586L415.242 298.376L394.214 290.588L412.812 283.488C412.812 283.488 395.036 253.713 385.408 240.957C375.781 228.201 328.189 232.367 328.189 232.367Z" fill="#D75757"/>
<path d="M328.572 389.223C328.384 389.223 328.201 389.172 328.048 389.078C327.894 388.983 327.777 388.849 327.713 388.694L294.664 305.731C294.594 305.545 294.603 305.343 294.691 305.163C294.778 304.983 294.938 304.838 295.139 304.754L314.56 296.549L294.463 292.783C294.34 292.759 294.223 292.715 294.12 292.652C294.016 292.588 293.928 292.508 293.861 292.414C293.796 292.318 293.755 292.212 293.74 292.102C293.724 291.992 293.734 291.88 293.769 291.773C294.336 290.058 307.69 249.642 310.924 243.969C314.158 238.296 327.111 231.934 327.659 231.662C327.765 231.611 327.884 231.583 328.006 231.582C329.961 231.406 376.054 227.495 385.938 240.508C395.566 253.152 413.341 282.831 413.469 283.119C413.523 283.22 413.551 283.329 413.551 283.44C413.551 283.551 413.523 283.66 413.469 283.76C413.432 283.865 413.368 283.961 413.283 284.042C413.197 284.122 413.093 284.185 412.976 284.225L396.333 290.635L415.388 297.702C415.601 297.784 415.773 297.933 415.867 298.12C415.962 298.307 415.973 298.518 415.899 298.712L381.827 385.922C381.767 386.069 381.658 386.198 381.515 386.292C381.373 386.386 381.201 386.441 381.023 386.451L328.481 389.287L328.572 389.223ZM296.674 305.891L329.212 387.621L380.366 384.864L413.963 298.856L393.739 291.356C393.572 291.296 393.429 291.194 393.328 291.063C393.227 290.932 393.173 290.777 393.172 290.619C393.174 290.463 393.226 290.311 393.324 290.18C393.421 290.05 393.558 289.946 393.72 289.882L411.423 283.135C408.573 278.328 393.154 252.879 384.44 241.469C375.451 229.643 331.623 232.976 328.389 233.232C326.891 233.97 315.455 239.643 312.568 244.771C309.682 249.899 297.788 285.571 295.815 291.485L317.501 295.555C317.687 295.591 317.855 295.676 317.983 295.8C318.111 295.923 318.191 296.078 318.213 296.244C318.231 296.41 318.191 296.576 318.1 296.721C318.009 296.867 317.87 296.985 317.702 297.061L296.674 305.891Z" fill="#263238"/>
<path d="M326.143 395.522L325.467 249.466L369.112 245.909L381.919 394.095L326.143 395.522Z" fill="white"/>
<path d="M326.142 396.323C325.905 396.321 325.677 396.241 325.503 396.098C325.331 395.944 325.233 395.737 325.229 395.521L324.553 249.466C324.548 249.266 324.63 249.071 324.783 248.922C324.935 248.773 325.147 248.681 325.375 248.665L369.02 245.187C369.141 245.172 369.264 245.18 369.38 245.21C369.497 245.241 369.605 245.293 369.696 245.364C369.886 245.506 370.004 245.707 370.025 245.925L382.814 394.111C382.821 394.219 382.803 394.327 382.762 394.428C382.722 394.53 382.658 394.624 382.576 394.704C382.493 394.785 382.392 394.85 382.279 394.894C382.165 394.938 382.043 394.961 381.919 394.96L326.161 396.387L326.142 396.323ZM326.38 250.187L327.056 394.688L380.932 393.326L368.271 246.79L326.38 250.187Z" fill="#263238"/>
<path d="M318.999 211.166C318.999 211.166 324.644 238.825 325.466 245.909C326.288 252.992 347.152 303.36 353.4 295.139C360.214 286.18 368.308 257.976 369.842 251.582C371.377 245.188 371.468 217.56 371.468 217.56C371.468 217.56 350.513 230.316 318.999 211.166Z" fill="white"/>
<path d="M351.756 296.854C351.522 296.85 351.289 296.823 351.062 296.774C342.475 294.899 325.339 252.832 324.553 245.989C323.767 239.146 318.159 211.599 318.086 211.31C318.052 211.154 318.073 210.992 318.145 210.845C318.218 210.699 318.338 210.575 318.491 210.489C318.644 210.403 318.823 210.359 319.004 210.362C319.186 210.366 319.362 210.417 319.511 210.509C350.167 229.131 370.811 217.015 371.012 216.919C371.156 216.844 371.32 216.805 371.487 216.805C371.654 216.805 371.818 216.844 371.962 216.919C372.11 216.99 372.233 217.094 372.32 217.221C372.406 217.348 372.453 217.493 372.455 217.64C372.455 218.762 372.455 245.444 370.811 251.838C368.984 258.793 361.073 286.581 354.168 295.668C353.912 296.028 353.557 296.325 353.135 296.532C352.714 296.74 352.239 296.85 351.756 296.854ZM320.242 212.897C321.52 219.307 325.722 239.787 326.325 245.829C327.111 252.736 344.43 293.681 351.464 295.219C351.793 295.219 352.176 295.219 352.615 294.706C359.283 285.908 367.358 257.848 369.057 251.438C370.427 246.037 370.628 224.643 370.646 218.97C365.385 221.326 346.385 227.945 320.242 212.897Z" fill="#263238"/>
<mask id="mask3_105_2150" style="mask-type:luminance" maskUnits="userSpaceOnUse" x="318" y="211" width="54" height="86">
<mask id="mask4_105_2150" style="mask-type:luminance" maskUnits="userSpaceOnUse" x="318" y="211" width="54" height="86">
<path d="M318.999 211.166C318.999 211.166 324.644 238.825 325.466 245.909C326.288 252.992 347.152 303.36 353.4 295.139C360.214 286.18 368.308 257.976 369.842 251.582C371.377 245.188 371.468 217.56 371.468 217.56C371.468 217.56 350.513 230.316 318.999 211.166Z" fill="white"/>
</mask>
<g mask="url(#mask4_105_2150)">
<path d="M351.756 296.854C351.522 296.85 351.289 296.823 351.062 296.774C342.475 294.899 325.339 252.832 324.553 245.989C323.767 239.146 318.159 211.599 318.086 211.31C318.052 211.154 318.073 210.992 318.145 210.846C318.218 210.699 318.338 210.575 318.491 210.489C318.644 210.403 318.823 210.359 319.004 210.363C319.186 210.366 319.362 210.417 319.511 210.509C350.167 229.131 370.811 217.015 371.012 216.919C371.156 216.845 371.32 216.805 371.487 216.805C371.654 216.805 371.818 216.845 371.962 216.919C372.11 216.99 372.233 217.095 372.32 217.221C372.406 217.348 372.453 217.493 372.455 217.64C372.455 218.762 372.455 245.444 370.811 251.839C368.984 258.794 361.073 286.582 354.168 295.668C353.912 296.028 353.557 296.325 353.135 296.533C352.714 296.74 352.239 296.85 351.756 296.854ZM320.242 212.897C321.52 219.307 325.722 239.787 326.325 245.829C327.111 252.736 344.43 293.681 351.464 295.219C351.793 295.219 352.176 295.219 352.615 294.706C359.283 285.908 367.358 257.848 369.057 251.438C370.427 246.037 370.628 224.644 370.646 218.971C365.385 221.326 346.385 227.945 320.242 212.897Z" fill="white"/>
</g>
</mask>
<g mask="url(#mask3_105_2150)">
<path d="M371.213 235.941C371.541 226.871 371.541 217.56 371.541 217.56C371.541 217.56 350.513 230.381 318.999 211.15C318.999 211.15 321.319 222.544 323.201 232.576C327.512 237.384 335.715 245.028 345.837 246.454C356.232 247.928 364.636 243.089 371.213 235.941Z" fill="#D75757"/>
<path opacity="0.5" d="M371.213 235.941C371.541 226.871 371.541 217.56 371.541 217.56C371.541 217.56 350.513 230.381 318.999 211.15C318.999 211.15 321.319 222.544 323.201 232.576C327.512 237.384 335.715 245.028 345.837 246.454C356.232 247.928 364.636 243.089 371.213 235.941Z" fill="white"/>
</g>
<path d="M388.514 183.522C388.514 183.522 397.393 173.586 397.393 184.932C397.393 196.278 388.514 197.752 388.514 197.752V183.522Z" fill="white"/>
<path d="M388.514 198.506C388.298 198.508 388.089 198.44 387.929 198.313C387.823 198.242 387.738 198.15 387.68 198.044C387.623 197.938 387.596 197.822 387.6 197.704V183.522C387.596 183.343 387.66 183.168 387.783 183.025C388.568 182.16 392.588 177.897 395.657 178.827C397.484 179.371 398.306 181.375 398.306 184.932C398.306 196.807 388.769 198.474 388.678 198.49L388.514 198.506ZM389.427 183.794V196.615C391.638 195.846 396.479 193.201 396.479 184.932C396.479 181.182 395.492 180.477 395.072 180.349C393.72 179.948 390.998 182.112 389.427 183.794Z" fill="#263238"/>
<path d="M300.401 160.125C300.401 160.125 310.906 201.903 310.906 207.624C310.906 219.659 336.775 233.152 348.084 235.989C359.393 238.825 386.888 216.839 388.514 211.166C390.14 205.493 390.926 155.862 387.692 145.942C384.458 136.023 365.915 129.629 353.748 129.629C341.58 129.629 306.065 135.302 300.401 160.125Z" fill="white"/>
<path d="M350.313 237.047C349.479 237.054 348.649 236.957 347.846 236.758C336.885 234.002 309.992 220.38 309.992 207.624C309.992 202.063 299.615 160.718 299.506 160.301C299.488 160.189 299.488 160.076 299.506 159.965C305.297 134.548 341.525 128.827 353.747 128.827C365.969 128.827 385.17 135.237 388.569 145.718C391.967 156.199 390.98 205.797 389.391 211.422C388.203 215.605 374.885 227.159 362.9 233.232C357.821 235.748 353.601 237.047 350.313 237.047ZM301.333 160.125C302.155 163.41 311.819 202.031 311.819 207.64C311.819 219.114 337.195 232.431 348.358 235.236C351.372 235.989 356.086 234.803 362.005 231.806C373.88 225.797 386.65 214.435 387.582 210.973C389.098 205.637 390.012 156.07 386.778 146.167C383.654 136.552 365.111 130.43 353.711 130.43C341.927 130.43 307.015 135.894 301.333 160.109V160.125Z" fill="#263238"/>
<mask id="mask5_105_2150" style="mask-type:luminance" maskUnits="userSpaceOnUse" x="300" y="129" width="90" height="108">
<mask id="mask6_105_2150" style="mask-type:luminance" maskUnits="userSpaceOnUse" x="300" y="129" width="90" height="108">
<path d="M300.401 160.125C300.401 160.125 310.906 201.903 310.906 207.624C310.906 219.659 336.775 233.152 348.084 235.989C359.393 238.825 386.888 216.839 388.514 211.166C390.14 205.493 390.926 155.862 387.692 145.942C384.458 136.023 365.915 129.629 353.748 129.629C341.58 129.629 306.065 135.302 300.401 160.125Z" fill="white"/>
</mask>
<g mask="url(#mask6_105_2150)">
<path d="M350.313 237.047C349.479 237.054 348.649 236.957 347.846 236.758C336.885 234.002 309.992 220.38 309.992 207.624C309.992 202.063 299.615 160.718 299.506 160.301C299.488 160.189 299.488 160.076 299.506 159.965C305.297 134.548 341.525 128.827 353.747 128.827C365.969 128.827 385.17 135.237 388.569 145.718C391.967 156.199 390.98 205.797 389.391 211.422C388.203 215.605 374.885 227.159 362.9 233.232C357.821 235.748 353.601 237.047 350.313 237.047ZM301.333 160.125C302.155 163.41 311.819 202.031 311.819 207.64C311.819 219.114 337.195 232.431 348.358 235.236C351.372 235.989 356.086 234.803 362.005 231.806C373.88 225.797 386.65 214.435 387.582 210.973C389.098 205.637 390.012 156.07 386.778 146.167C383.654 136.552 365.111 130.43 353.711 130.43C341.927 130.43 307.015 135.894 301.333 160.109V160.125Z" fill="white"/>
</g>
</mask>
<g mask="url(#mask5_105_2150)">
<path d="M353.748 129.629C341.635 129.629 306.065 135.302 300.401 160.077C300.401 160.077 306.686 185.076 309.536 199.05C309.536 192.64 310.815 180.365 318.671 175.012C329.523 167.609 347.627 166.535 357.876 162.304C368.126 158.074 370.537 146.968 370.537 146.968C370.537 146.968 371.14 166.535 376.018 171.311C380.896 176.086 385.682 179.323 386.285 187.705C386.888 196.086 388.697 204.627 383.874 211.518C379.05 218.409 359.137 231.614 350.094 234.258C348.705 234.675 347.353 235.027 346.075 235.364C346.787 235.588 347.481 235.797 348.121 235.957C359.448 238.793 386.925 216.807 388.551 211.134C390.177 205.461 390.962 155.83 387.728 145.91C384.495 135.991 365.915 129.629 353.748 129.629Z" fill="#D75757"/>
<path d="M336.958 231.79C332.556 227.896 320.516 217.111 315.035 211.55C313.452 209.966 312.033 208.261 310.797 206.454C310.797 206.919 310.797 207.336 310.797 207.624C310.906 216.518 325.01 226.198 336.958 231.79Z" fill="#D75757"/>
<g opacity="0.5">
<path d="M353.748 129.629C341.635 129.629 306.065 135.302 300.401 160.077C300.401 160.077 306.686 185.076 309.536 199.05C309.536 192.64 310.815 180.365 318.671 175.012C329.523 167.609 347.627 166.535 357.876 162.304C368.126 158.074 370.537 146.968 370.537 146.968C370.537 146.968 371.14 166.535 376.018 171.311C380.896 176.086 385.682 179.323 386.285 187.705C386.888 196.086 388.697 204.627 383.874 211.518C379.05 218.409 359.137 231.614 350.094 234.258C348.705 234.675 347.353 235.027 346.075 235.364C346.787 235.588 347.481 235.797 348.121 235.957C359.448 238.793 386.925 216.807 388.551 211.134C390.177 205.461 390.962 155.83 387.728 145.91C384.495 135.991 365.915 129.629 353.748 129.629Z" fill="white"/>
<path d="M336.958 231.79C332.556 227.896 320.516 217.111 315.035 211.55C313.452 209.966 312.033 208.261 310.797 206.454C310.797 206.919 310.797 207.336 310.797 207.624C310.906 216.518 325.01 226.198 336.958 231.79Z" fill="white"/>
</g>
</g>
<path d="M342.256 185.782C342.256 187.769 341.251 189.371 339.991 189.371C338.73 189.371 337.707 187.769 337.707 185.782C337.707 183.794 338.73 182.192 339.991 182.192C341.251 182.192 342.256 183.794 342.256 185.782Z" fill="#263238"/>
<path d="M368.874 185.782C368.874 187.769 367.851 189.371 366.59 189.371C365.33 189.371 364.307 187.769 364.307 185.782C364.307 183.794 365.33 182.192 366.59 182.192C367.851 182.192 368.874 183.794 368.874 185.782Z" fill="#263238"/>
<path d="M356.507 200.957C356.323 200.96 356.143 200.912 355.992 200.82C355.841 200.728 355.727 200.597 355.666 200.445C355.575 200.249 355.576 200.03 355.669 199.835C355.761 199.64 355.937 199.485 356.159 199.403C359.813 198.153 364.965 195.685 365.294 194.147C365.44 193.554 365.166 193.345 362.846 192.897C361.16 192.695 359.572 192.085 358.26 191.134C355.538 188.746 357.767 182.048 358.041 181.294C358.111 181.082 358.275 180.903 358.496 180.796C358.605 180.743 358.726 180.71 358.85 180.698C358.974 180.685 359.1 180.695 359.22 180.725C359.34 180.756 359.451 180.807 359.549 180.875C359.646 180.944 359.728 181.028 359.788 181.124C359.848 181.22 359.886 181.326 359.9 181.435C359.914 181.544 359.903 181.654 359.868 181.759C358.991 184.259 358.151 188.714 359.631 190.012C360.7 190.718 361.958 191.171 363.284 191.326C365.111 191.695 367.651 192.192 367.121 194.531C366.463 197.48 358.461 200.413 356.872 200.941C356.753 200.97 356.628 200.976 356.507 200.957Z" fill="#263238"/>
<path d="M348.413 211.631C346.537 211.727 344.665 211.398 342.976 210.677C341.287 209.956 339.837 208.866 338.766 207.512C338.699 207.425 338.651 207.327 338.627 207.224C338.603 207.121 338.603 207.015 338.627 206.912C338.651 206.809 338.698 206.711 338.766 206.624C338.834 206.537 338.921 206.463 339.022 206.406C339.224 206.29 339.469 206.249 339.705 206.291C339.941 206.333 340.149 206.455 340.283 206.631C344.667 212.416 354.898 209.018 354.898 208.986C355.123 208.908 355.375 208.911 355.598 208.995C355.821 209.079 355.996 209.238 356.086 209.435C356.175 209.633 356.172 209.854 356.076 210.049C355.98 210.244 355.799 210.398 355.574 210.477C353.276 211.205 350.856 211.595 348.413 211.631Z" fill="#263238"/>
<path d="M331.642 180.205C331.533 180.22 331.422 180.22 331.313 180.205C331.2 180.167 331.096 180.111 331.008 180.038C330.92 179.965 330.849 179.878 330.8 179.781C330.751 179.684 330.724 179.58 330.721 179.474C330.718 179.367 330.739 179.262 330.783 179.163C331.73 177.201 333.475 175.619 335.679 174.724C337.03 174.265 338.473 174.051 339.92 174.095C341.368 174.139 342.791 174.44 344.102 174.981C344.327 175.059 344.507 175.213 344.603 175.408C344.699 175.604 344.703 175.825 344.613 176.022C344.523 176.22 344.348 176.378 344.125 176.462C343.903 176.546 343.651 176.549 343.426 176.471C342.339 176.01 341.157 175.748 339.952 175.698C338.746 175.648 337.541 175.813 336.41 176.182C334.658 176.917 333.264 178.18 332.482 179.74C332.412 179.883 332.294 180.004 332.144 180.087C331.994 180.17 331.819 180.211 331.642 180.205Z" fill="#263238"/>
<path d="M370.684 177.576C370.544 177.575 370.406 177.547 370.28 177.494C370.154 177.442 370.042 177.366 369.953 177.272C368.126 175.269 366.463 174.291 364.819 174.355C364.025 174.474 363.268 174.737 362.597 175.129C361.927 175.522 361.358 176.033 360.928 176.631C360.796 176.809 360.592 176.935 360.357 176.982C360.121 177.03 359.874 176.996 359.667 176.887C359.563 176.833 359.473 176.761 359.401 176.676C359.33 176.59 359.279 176.493 359.252 176.389C359.224 176.286 359.221 176.179 359.242 176.074C359.264 175.97 359.309 175.87 359.375 175.782C359.956 174.964 360.735 174.268 361.657 173.745C362.579 173.221 363.621 172.883 364.71 172.753C367.048 172.641 369.259 173.843 371.396 176.294C371.543 176.462 371.609 176.675 371.578 176.885C371.547 177.095 371.423 177.286 371.232 177.416C371.074 177.521 370.881 177.578 370.684 177.576Z" fill="#263238"/>
<path d="M391.747 135.302C383.745 127.289 375.305 127.77 370.263 129.501C363.43 119.405 340.849 111.392 311.801 121.119C277.857 132.465 281.894 162.962 283.52 168.635C285.146 174.307 296.455 189.195 303.726 189.9C303.726 189.9 310.193 184.932 310.193 179.98C310.193 175.029 325.558 165.093 340.904 160.83C350.568 158.154 361.183 153.234 367.321 146.952C367.208 151.077 368.417 155.147 370.811 158.699C375.67 165.109 382.941 168.635 382.941 170.766C382.941 172.897 386.979 180.686 390.249 180.686C393.519 180.686 393.483 169.34 394.287 164.372C395.09 159.404 403.056 146.648 391.747 135.302Z" fill="#263238"/>
<path d="M303.635 190.701H303.525C295.578 189.916 284.178 174.532 282.534 168.827C282.443 168.474 273.509 133.042 311.399 120.382C339.37 111.023 362.553 117.546 370.647 128.523C374.775 127.305 383.8 126.119 392.424 134.773C401.869 144.244 398.288 154.644 396.077 160.878C395.631 162.059 395.271 163.263 394.999 164.484C394.799 165.686 394.652 167.304 394.488 169.003C393.794 176.551 393.099 181.487 390.048 181.487C386.029 181.487 381.864 173.025 381.864 170.766C381.864 170.093 380.037 168.586 378.21 167.144C375.081 164.782 372.295 162.091 369.916 159.131C367.719 156.054 366.461 152.534 366.262 148.907C360.452 154.083 351.19 158.747 340.941 161.583C325.448 165.878 310.87 175.573 310.87 179.964C310.87 185.221 304.366 190.269 304.092 190.493C303.965 190.599 303.807 190.672 303.635 190.701ZM337.141 117.546C328.543 117.637 320.037 119.103 312.039 121.872C275.628 134.052 284.215 168.09 284.306 168.442C285.914 174.083 296.656 187.897 303.343 189.051C304.585 188.025 309.189 183.923 309.189 179.98C309.189 174.42 325.01 164.372 340.539 160.061C351.409 157.064 361.128 151.952 366.536 146.423C366.661 146.3 366.825 146.212 367.008 146.172C367.19 146.132 367.383 146.141 367.559 146.199C367.732 146.257 367.881 146.361 367.985 146.495C368.09 146.63 368.145 146.789 368.144 146.952C368.029 150.924 369.187 154.844 371.487 158.266C373.788 161.11 376.482 163.694 379.507 165.958C382.065 168.025 383.764 169.388 383.764 170.766C383.764 172.833 387.71 179.884 390.122 179.884C391.729 179.884 392.442 172.176 392.752 168.875C392.898 167.144 393.063 165.509 393.264 164.259C393.544 162.957 393.922 161.672 394.397 160.413C396.552 154.131 399.877 144.628 391.053 135.83C382.942 127.706 374.757 128.843 370.592 130.254C370.388 130.321 370.165 130.322 369.961 130.257C369.756 130.193 369.585 130.066 369.477 129.901C365.184 123.587 353.51 117.546 337.141 117.546Z" fill="#263238"/>
<path d="M296.838 172.192H296.674C296.437 172.153 296.227 172.033 296.09 171.859C295.953 171.685 295.9 171.471 295.943 171.262C296.473 168.778 298.464 166.663 302.045 164.756C302.253 164.652 302.5 164.624 302.731 164.678C302.963 164.731 303.161 164.863 303.283 165.044C303.405 165.224 303.442 165.44 303.384 165.644C303.327 165.848 303.181 166.024 302.977 166.134C299.889 167.737 298.172 169.548 297.734 171.567C297.691 171.746 297.578 171.907 297.415 172.021C297.251 172.135 297.047 172.196 296.838 172.192Z" fill="white"/>
<path d="M308.403 163.779C308.218 163.778 308.038 163.729 307.885 163.637C307.732 163.546 307.614 163.417 307.545 163.266C307.462 163.069 307.471 162.85 307.57 162.658C307.669 162.466 307.85 162.316 308.075 162.241C314.415 160.268 320.897 158.662 327.477 157.433C332.373 156.439 337.013 155.478 340.868 154.404C355.337 150.366 363.449 139.308 363.54 139.212C363.602 139.121 363.684 139.042 363.781 138.979C363.879 138.916 363.99 138.872 364.108 138.848C364.226 138.824 364.348 138.821 364.467 138.84C364.586 138.858 364.7 138.898 364.801 138.956C365.004 139.071 365.147 139.252 365.198 139.459C365.25 139.666 365.205 139.883 365.075 140.062C359.31 147.457 350.982 153.026 341.325 155.943C337.415 157.032 332.738 157.994 327.805 159.004C321.31 160.189 314.908 161.741 308.641 163.651C308.569 163.703 308.489 163.746 308.403 163.779Z" fill="white"/>
<path d="M294.116 149.484C293.933 149.485 293.753 149.435 293.605 149.34C293.405 149.222 293.265 149.04 293.217 148.833C293.17 148.626 293.217 148.411 293.349 148.234C295.176 145.75 300.109 145.927 307.471 146.183C313.442 146.476 319.427 146.444 325.393 146.087C342 144.917 356.835 136.151 356.981 136.055C357.182 135.939 357.428 135.897 357.664 135.939C357.9 135.981 358.108 136.104 358.241 136.279C358.31 136.365 358.359 136.462 358.384 136.565C358.409 136.667 358.411 136.773 358.389 136.876C358.367 136.979 358.321 137.077 358.255 137.165C358.189 137.252 358.104 137.327 358.004 137.385C357.383 137.754 342.621 146.487 325.539 147.689C319.501 148.055 313.442 148.087 307.398 147.785C300.894 147.561 296.199 147.385 294.865 149.132C294.784 149.24 294.672 149.329 294.542 149.391C294.411 149.452 294.265 149.484 294.116 149.484Z" fill="white"/>
<path d="M392.259 157.849C392.139 157.845 392.021 157.82 391.912 157.776C391.803 157.732 391.705 157.67 391.624 157.592C391.542 157.515 391.479 157.424 391.438 157.325C391.396 157.226 391.378 157.121 391.382 157.016C391.465 155.035 391.3 153.052 390.889 151.103C390.863 150.999 390.86 150.893 390.882 150.788C390.904 150.684 390.949 150.585 391.016 150.497C391.082 150.408 391.168 150.333 391.269 150.274C391.37 150.216 391.483 150.176 391.602 150.157C391.721 150.136 391.843 150.136 391.962 150.157C392.081 150.178 392.193 150.22 392.294 150.28C392.394 150.339 392.48 150.416 392.546 150.505C392.612 150.594 392.658 150.694 392.68 150.798C393.111 152.87 393.289 154.976 393.209 157.08C393.205 157.185 393.176 157.289 393.126 157.384C393.076 157.48 393.004 157.566 392.916 157.638C392.828 157.709 392.725 157.764 392.612 157.801C392.499 157.837 392.379 157.854 392.259 157.849Z" fill="white"/>
<path d="M390.762 148.539C390.571 148.54 390.385 148.488 390.23 148.39C390.076 148.292 389.961 148.153 389.903 147.994C388.723 145.142 386.831 142.559 384.365 140.432C381.9 138.305 378.923 136.689 375.653 135.702C375.42 135.643 375.222 135.505 375.103 135.32C374.983 135.134 374.951 134.915 375.013 134.709C375.047 134.608 375.103 134.514 375.178 134.431C375.253 134.349 375.346 134.281 375.451 134.231C375.556 134.18 375.672 134.148 375.791 134.137C375.91 134.125 376.031 134.134 376.146 134.164C379.711 135.198 382.959 136.935 385.642 139.24C388.324 141.546 390.369 144.359 391.62 147.465C391.66 147.565 391.678 147.671 391.671 147.777C391.664 147.882 391.634 147.986 391.581 148.081C391.528 148.177 391.455 148.262 391.364 148.332C391.274 148.403 391.168 148.456 391.054 148.491C390.961 148.522 390.861 148.538 390.762 148.539Z" fill="white"/>
<path d="M332.007 221.278C329.63 221.359 327.265 220.93 325.12 220.028C318.159 216.823 305.791 202.4 305.279 201.727C305.134 201.557 305.072 201.343 305.106 201.133C305.14 200.922 305.268 200.733 305.462 200.605C305.656 200.478 305.9 200.423 306.139 200.453C306.379 200.483 306.596 200.595 306.741 200.765C306.869 200.91 319.365 215.557 325.978 218.618C332.592 221.678 344.997 217.416 345.125 217.368C345.237 217.33 345.358 217.312 345.478 217.314C345.599 217.317 345.718 217.341 345.828 217.384C345.938 217.427 346.038 217.489 346.121 217.566C346.204 217.643 346.269 217.733 346.312 217.832C346.355 217.931 346.376 218.037 346.373 218.142C346.369 218.248 346.342 218.353 346.293 218.449C346.244 218.546 346.174 218.633 346.086 218.706C345.998 218.779 345.895 218.836 345.782 218.874C341.363 220.306 336.715 221.117 332.007 221.278Z" fill="#263238"/>
<path d="M349.984 218.249C349.984 219.707 347.938 220.909 345.435 220.909C342.932 220.909 340.886 219.707 340.886 218.249C340.886 216.791 342.914 215.589 345.435 215.589C347.956 215.589 349.984 216.775 349.984 218.249Z" fill="#263238"/>
<path d="M298.885 180.958C298.885 180.958 283.886 146.888 298.885 126.568C298.885 126.568 275.701 147.481 296.163 185.75L298.885 180.958Z" fill="white"/>
<path d="M309.28 192C310.65 200.012 308.165 206.935 303.708 207.528C299.25 208.121 294.573 202.112 293.185 194.115C291.796 186.118 294.317 179.18 298.757 178.587C303.196 177.994 307.983 184.003 309.28 192Z" fill="white"/>
<path d="M303.16 208.329C298.392 208.329 293.733 202.352 292.344 194.211C291.632 190.576 291.85 186.849 292.984 183.298C294.135 180.092 296.163 178.089 298.684 177.769C303.69 177.112 308.787 183.282 310.248 191.839C310.952 195.474 310.733 199.2 309.609 202.752C308.44 205.957 306.43 207.961 303.909 208.281C303.661 208.313 303.41 208.329 303.16 208.329ZM299.506 179.323C299.342 179.307 299.177 179.307 299.013 179.323C297.186 179.548 295.724 181.166 294.793 183.746C293.748 187.065 293.554 190.546 294.226 193.938C295.487 201.342 299.817 207.191 303.708 206.663C305.535 206.438 307.015 204.82 307.946 202.239C308.982 198.919 309.176 195.44 308.513 192.047C307.216 184.996 303.178 179.355 299.433 179.355L299.506 179.323Z" fill="#263238"/>
<path d="M301.221 207.289C305.172 206.768 307.265 199.868 305.896 191.877C304.526 183.886 300.213 177.831 296.262 178.352C292.31 178.873 290.218 185.773 291.587 193.764C292.957 201.755 297.27 207.81 301.221 207.289Z" fill="white"/>
<path d="M300.712 208.137C298.629 208.137 296.491 206.743 294.646 204.163C292.552 201.012 291.198 197.524 290.663 193.907C289.184 185.333 291.595 178.17 296.144 177.577C300.693 176.984 305.279 183.218 306.832 191.775C307.525 195.372 307.4 199.054 306.466 202.609C305.48 205.814 303.671 207.801 301.369 208.105L300.712 208.137ZM296.692 179.131H296.382C293.422 179.516 291.084 185.542 292.472 193.554C292.959 196.939 294.201 200.206 296.126 203.169C297.734 205.397 299.488 206.567 301.004 206.375C302.52 206.182 303.836 204.596 304.658 202.048C305.533 198.708 305.645 195.249 304.987 191.872C303.653 184.292 299.634 179.131 296.692 179.131Z" fill="#263238"/>
<path d="M447.523 248.745L468.588 394.816L426.514 394.095L447.523 248.745Z" fill="#D75757"/>
<path d="M468.588 395.617L426.569 394.896C426.441 394.895 426.314 394.87 426.198 394.823C426.081 394.776 425.977 394.708 425.893 394.624C425.811 394.538 425.752 394.438 425.717 394.33C425.682 394.222 425.674 394.11 425.692 393.999L446.683 248.649C446.71 248.453 446.818 248.274 446.987 248.143C447.155 248.013 447.372 247.942 447.597 247.944C447.818 247.946 448.031 248.019 448.195 248.149C448.36 248.278 448.465 248.456 448.492 248.649L469.556 394.704C469.577 394.818 469.568 394.935 469.53 395.046C469.492 395.157 469.426 395.26 469.337 395.345C469.245 395.438 469.129 395.511 468.999 395.558C468.869 395.605 468.728 395.626 468.588 395.617ZM427.555 393.31L467.547 393.999L447.451 255.123L427.555 393.31Z" fill="#263238"/>
<mask id="mask7_105_2150" style="mask-type:luminance" maskUnits="userSpaceOnUse" x="426" y="248" width="43" height="147">
<mask id="mask8_105_2150" style="mask-type:luminance" maskUnits="userSpaceOnUse" x="426" y="248" width="43" height="147">
<path d="M447.523 248.745L468.588 394.816L426.514 394.095L447.523 248.745Z" fill="white"/>
</mask>
<g mask="url(#mask8_105_2150)">
<path d="M468.588 395.617L426.569 394.896C426.441 394.895 426.314 394.87 426.198 394.823C426.081 394.776 425.977 394.708 425.893 394.624C425.811 394.538 425.752 394.438 425.717 394.33C425.682 394.222 425.674 394.11 425.692 393.999L446.683 248.649C446.71 248.453 446.818 248.274 446.987 248.143C447.155 248.013 447.372 247.942 447.597 247.944C447.818 247.946 448.031 248.019 448.195 248.149C448.36 248.278 448.465 248.456 448.492 248.649L469.556 394.704C469.577 394.818 469.568 394.935 469.53 395.046C469.492 395.157 469.426 395.26 469.337 395.345C469.245 395.438 469.129 395.511 468.999 395.558C468.869 395.605 468.728 395.626 468.588 395.617ZM427.555 393.31L467.547 393.999L447.451 255.123L427.555 393.31Z" fill="white"/>
</g>
</mask>
<g mask="url(#mask7_105_2150)">
<path opacity="0.3" d="M458.996 328.407L437.092 339.946L437.457 318.359L426.514 394.095L468.588 394.816L465.135 370.955L446.774 371.483L463.07 356.628L462.943 355.65L440.544 362.381L460.805 340.859L458.996 328.407Z" fill="#D75757"/>
</g>
<path d="M297.003 205.669C297.003 205.669 303.215 203.762 304.567 205.861C305.919 207.961 307.49 217.079 307.453 218.377C307.417 219.675 306.905 220.861 304.092 219.98C301.278 219.098 296.784 211.069 296.784 211.069L297.003 205.669Z" fill="white"/>
<path d="M305.754 221.149C305.078 221.133 304.41 221.014 303.781 220.797C300.785 219.819 296.766 212.88 295.998 211.486C295.971 211.364 295.971 211.239 295.998 211.117L296.181 205.733C296.185 205.571 296.244 205.414 296.352 205.282C296.46 205.151 296.61 205.051 296.784 204.996C297.953 204.643 303.799 202.993 305.443 205.557C306.887 207.784 308.513 217.143 308.458 218.489C308.484 218.922 308.395 219.354 308.198 219.752C308.002 220.149 307.703 220.501 307.325 220.781C306.858 221.045 306.309 221.174 305.754 221.149ZM297.734 210.957C299.433 213.954 302.648 218.713 304.402 219.29C305.663 219.691 306.101 219.515 306.229 219.451C306.357 219.387 306.558 218.986 306.576 218.441C306.576 217.335 305.06 208.313 303.799 206.342C303.196 205.38 300.145 205.749 297.935 206.342L297.734 210.957Z" fill="#263238"/>
<path d="M269.818 234.579C269.818 234.579 275.573 202.127 275.701 198.602C275.829 195.076 281.182 192.192 283.739 191.326C286.297 190.461 300.912 190.878 302.465 190.926C304.018 190.974 310.266 190.685 310.212 192.528C310.157 194.371 309.609 195.156 304.384 195.894C299.159 196.631 286.662 197.208 286.662 197.208L283.392 201.534L298.903 204.131C298.903 204.131 302.557 205.541 301.899 207.736C301.241 209.932 299.433 219.563 299.396 220.877C299.36 222.191 297.752 223.04 294.043 225.156C291.829 226.412 289.34 227.247 286.736 227.608C286.736 227.608 287.028 234.226 284.909 235.043L279.629 237.111L278.898 274.979L255.057 272.607L269.818 234.579Z" fill="white"/>
<path d="M278.88 275.636H278.771L255.021 273.264C254.884 273.25 254.752 273.21 254.635 273.146C254.519 273.083 254.419 272.997 254.345 272.896C254.286 272.788 254.256 272.67 254.256 272.551C254.256 272.432 254.286 272.314 254.345 272.207L269.106 234.323C269.398 232.72 274.843 201.871 274.952 198.522C275.08 194.484 280.945 191.327 283.594 190.509C286.243 189.692 297.771 189.932 302.649 190.061H303.471C306.503 190.061 309.554 190.141 310.778 191.23C310.952 191.384 311.089 191.567 311.18 191.768C311.271 191.969 311.314 192.184 311.308 192.4C311.308 194.932 309.81 195.814 304.713 196.551C300 197.224 289.696 197.737 287.357 197.849L285.11 200.83L299.269 203.201H299.47C299.634 203.201 303.745 204.916 302.977 207.721C302.338 210.076 300.529 219.547 300.493 220.717C300.493 222.32 298.794 223.329 295.213 225.364L294.738 225.637C292.622 226.822 290.275 227.653 287.814 228.089C287.814 230.268 287.631 234.723 285.439 235.589L280.707 237.448L279.976 274.803C279.973 274.915 279.943 275.025 279.89 275.127C279.837 275.229 279.76 275.32 279.666 275.396C279.566 275.487 279.443 275.557 279.306 275.599C279.169 275.641 279.024 275.653 278.88 275.636ZM256.299 271.854L277.985 274.033L278.698 237.047C278.704 236.896 278.759 236.75 278.856 236.625C278.953 236.5 279.088 236.402 279.246 236.342L284.507 234.275C285.421 233.906 285.914 230.461 285.786 227.592C285.775 227.39 285.852 227.191 286.001 227.037C286.15 226.882 286.361 226.783 286.59 226.759C289.071 226.422 291.442 225.63 293.55 224.435L294.044 224.163C297.168 222.368 298.447 221.615 298.483 220.813C298.483 219.339 300.475 209.596 301.023 207.496C301.388 206.15 299.196 205.06 298.629 204.852L283.228 202.272C283.08 202.246 282.94 202.189 282.822 202.105C282.705 202.021 282.612 201.914 282.552 201.791C282.485 201.674 282.45 201.545 282.45 201.415C282.45 201.284 282.485 201.155 282.552 201.038L285.804 196.711C285.888 196.608 285.998 196.523 286.124 196.462C286.251 196.401 286.391 196.366 286.535 196.359C286.645 196.359 299.031 195.798 304.147 195.061C309.262 194.323 309.171 193.634 309.207 192.448C309.043 192.208 308.056 191.759 303.325 191.759H302.338C295.03 191.567 285.768 191.551 283.959 192.112C281.493 192.881 276.651 195.669 276.524 198.666C276.396 202.192 270.878 233.409 270.641 234.739C270.641 234.739 270.641 234.835 270.641 234.868L256.299 271.854Z" fill="#263238"/>
<path d="M300.657 210.3H300.492L281.675 207.336C281.433 207.297 281.218 207.176 281.077 206.999C280.937 206.822 280.882 206.603 280.926 206.39C280.969 206.178 281.107 205.989 281.31 205.866C281.512 205.743 281.761 205.695 282.004 205.733L300.821 208.714C301.063 208.733 301.287 208.836 301.443 208.999C301.599 209.163 301.674 209.375 301.652 209.587C301.63 209.8 301.513 209.996 301.327 210.133C301.14 210.269 300.899 210.335 300.657 210.316V210.3Z" fill="#263238"/>
<path d="M298.519 217.704H298.318L282.826 214.403C282.584 214.354 282.373 214.223 282.241 214.038C282.11 213.853 282.067 213.63 282.122 213.418C282.178 213.205 282.328 213.021 282.539 212.905C282.749 212.789 283.004 212.752 283.246 212.801L298.757 216.102C298.874 216.124 298.984 216.167 299.082 216.228C299.179 216.29 299.261 216.368 299.323 216.458C299.384 216.548 299.424 216.648 299.44 216.752C299.456 216.856 299.447 216.962 299.414 217.063C299.376 217.246 299.264 217.41 299.1 217.527C298.937 217.645 298.731 217.707 298.519 217.704Z" fill="#263238"/>
<path d="M286.7 228.329C286.546 228.332 286.395 228.299 286.26 228.235C286.125 228.17 286.012 228.075 285.933 227.96C285.275 227.063 283.795 224.868 284.288 223.666C284.366 223.474 284.494 223.302 284.662 223.163C284.831 223.023 285.034 222.921 285.257 222.864C286.7 222.48 290.061 221.727 290.061 221.727L290.518 223.329C290.518 223.329 287.522 224.002 286.006 224.387C286.309 225.372 286.803 226.305 287.467 227.143C287.598 227.322 287.642 227.538 287.591 227.746C287.539 227.953 287.396 228.134 287.193 228.249C287.039 228.311 286.869 228.339 286.7 228.329Z" fill="#263238"/>
<path d="M257.195 252.992L282.954 261.517C282.954 261.517 265.014 360.298 260.702 368.054C256.391 375.81 246.306 384.816 233.298 385.906C220.291 386.996 210.882 374.688 210.498 361.756C210.115 348.823 257.195 252.992 257.195 252.992Z" fill="#D75757"/>
<path d="M231.636 386.771C227.142 386.732 222.825 385.23 219.523 382.557C213.604 377.941 209.768 369.993 209.53 361.724C209.128 348.823 254.436 256.533 256.354 252.607C256.45 252.419 256.626 252.271 256.844 252.193C257.061 252.116 257.305 252.115 257.523 252.19L283.283 260.7C283.481 260.761 283.647 260.882 283.754 261.04C283.861 261.198 283.901 261.384 283.868 261.565C283.137 265.604 265.854 360.57 261.506 368.326C256.866 376.659 246.343 385.553 233.317 386.643C232.769 386.755 232.202 386.771 231.636 386.771ZM257.688 254.017C253.413 262.767 210.992 349.769 211.357 361.74C211.576 369.512 215.175 377.028 220.747 381.355C222.396 382.712 224.354 383.748 226.492 384.395C228.63 385.041 230.9 385.283 233.152 385.105C245.466 384.079 255.441 375.618 259.88 367.701C263.918 360.474 280.378 270.588 281.949 262.03L257.688 254.017Z" fill="#263238"/>
<mask id="mask9_105_2150" style="mask-type:luminance" maskUnits="userSpaceOnUse" x="210" y="252" width="73" height="134">
<mask id="mask10_105_2150" style="mask-type:luminance" maskUnits="userSpaceOnUse" x="210" y="252" width="73" height="134">
<path d="M257.195 252.992L282.954 261.517C282.954 261.517 265.014 360.298 260.702 368.054C256.391 375.81 246.306 384.816 233.298 385.906C220.291 386.996 210.882 374.688 210.498 361.756C210.115 348.823 257.195 252.992 257.195 252.992Z" fill="white"/>
</mask>
<g mask="url(#mask10_105_2150)">
<path d="M231.636 386.771C227.142 386.732 222.825 385.23 219.523 382.557C213.604 377.942 209.768 369.993 209.53 361.724C209.128 348.823 254.436 256.533 256.354 252.607C256.45 252.419 256.626 252.271 256.844 252.193C257.061 252.116 257.305 252.115 257.523 252.191L283.283 260.7C283.481 260.761 283.647 260.882 283.754 261.04C283.861 261.198 283.901 261.384 283.868 261.565C283.137 265.604 265.854 360.57 261.506 368.326C256.866 376.659 246.343 385.554 233.317 386.643C232.769 386.755 232.202 386.771 231.636 386.771ZM257.688 254.017C253.413 262.767 210.992 349.769 211.357 361.74C211.576 369.512 215.175 377.028 220.747 381.355C222.396 382.712 224.354 383.748 226.492 384.395C228.63 385.041 230.9 385.283 233.152 385.105C245.466 384.079 255.441 375.618 259.88 367.701C263.918 360.474 280.378 270.588 281.949 262.03L257.688 254.017Z" fill="white"/>
</g>
</mask>
<g mask="url(#mask9_105_2150)">
<path opacity="0.3" d="M235.875 335.699C229.591 338.51 223.03 340.816 216.272 342.59C213.952 348.503 212.18 353.519 211.23 357.109L223.415 355.763C232.097 354.885 240.663 353.275 248.992 350.955C248.992 350.955 228.896 361.868 210.974 363.695H210.554C211.741 375.842 220.803 386.996 233.226 385.954C246.288 384.865 256.355 375.842 260.63 368.102C262.749 364.288 268.157 338.551 273.108 313.343C261.631 321.927 249.15 329.42 235.875 335.699Z" fill="#D75757"/>
</g>
</g>
<path d="M511.576 83.3314V78.9405C511.576 78.3199 511.295 77.7248 510.795 77.2861C510.295 76.8473 509.616 76.6008 508.909 76.6008H505.054C504.468 74.3883 503.468 72.2763 502.094 70.3509L504.816 67.9471C505.315 67.5059 505.595 66.9097 505.595 66.2884C505.595 65.6672 505.315 65.071 504.816 64.6298L501.29 61.5369C500.787 61.0995 500.108 60.8541 499.4 60.8541C498.691 60.8541 498.012 61.0995 497.509 61.5369L494.768 63.9247C492.573 62.7198 490.166 61.8425 487.643 61.3286V57.9473C487.643 57.3267 487.362 56.7316 486.862 56.2928C486.362 55.8541 485.683 55.6075 484.976 55.6075H479.97C479.263 55.6075 478.584 55.8541 478.084 56.2928C477.584 56.7316 477.303 57.3267 477.303 57.9473V61.3286C474.781 61.8425 472.373 62.7198 470.178 63.9247L467.437 61.5369C466.934 61.0995 466.255 60.8541 465.547 60.8541C464.838 60.8541 464.159 61.0995 463.656 61.5369L460.13 64.6298C459.631 65.071 459.351 65.6672 459.351 66.2884C459.351 66.9097 459.631 67.5059 460.13 67.9471L462.852 70.3509C461.477 72.2738 460.482 74.3869 459.911 76.6008H456.037C455.33 76.6008 454.652 76.8473 454.151 77.2861C453.651 77.7248 453.37 78.3199 453.37 78.9405V83.3314C453.37 83.9519 453.651 84.5471 454.151 84.9858C454.652 85.4246 455.33 85.6711 456.037 85.6711H459.911C460.482 87.885 461.477 89.9981 462.852 91.921L460.13 94.3248C459.631 94.766 459.351 95.3621 459.351 95.9834C459.351 96.6047 459.631 97.2009 460.13 97.642L463.656 100.735C464.159 101.172 464.838 101.418 465.547 101.418C466.255 101.418 466.934 101.172 467.437 100.735L470.178 98.3472C472.384 99.5697 474.812 100.453 477.358 100.959V104.357C477.358 104.977 477.639 105.572 478.139 106.011C478.639 106.45 479.318 106.696 480.025 106.696H485.031C485.738 106.696 486.417 106.45 486.917 106.011C487.417 105.572 487.698 104.977 487.698 104.357V100.959C490.222 100.458 492.631 99.5855 494.823 98.3792L497.563 100.767C498.066 101.204 498.746 101.45 499.454 101.45C500.163 101.45 500.842 101.204 501.345 100.767L504.762 97.7542C505.26 97.313 505.54 96.7169 505.54 96.0956C505.54 95.4743 505.26 94.8782 504.762 94.437L502.039 92.0332C503.413 90.1077 504.413 87.9958 504.999 85.7833H508.854C509.22 85.7903 509.583 85.7311 509.922 85.6095C510.261 85.4879 510.567 85.3065 510.823 85.0765C511.078 84.8465 511.277 84.5729 511.406 84.2727C511.536 83.9725 511.594 83.6521 511.576 83.3314ZM483.642 91.1197C481.29 91.34 478.918 90.9151 476.852 89.9034C474.787 88.8917 473.13 87.3431 472.11 85.4709C471.089 83.5987 470.756 81.495 471.156 79.4498C471.556 77.4045 472.668 75.5183 474.341 74.051C476.014 72.5837 478.164 71.6075 480.496 71.2569C482.828 70.9063 485.226 71.1986 487.36 72.0935C489.495 72.9884 491.26 74.4419 492.413 76.2536C493.567 78.0654 494.051 80.1463 493.8 82.2096C493.531 84.4969 492.376 86.6341 490.527 88.2644C488.679 89.8948 486.248 90.9196 483.642 91.1678V91.1197Z" fill="#263238"/>
<path d="M43.8828 274.77V271.469C43.8828 270.997 43.6691 270.545 43.2888 270.211C42.9085 269.878 42.3927 269.69 41.8549 269.69H38.8953C38.4554 268.022 37.7022 266.43 36.6664 264.979L38.7308 263.184C38.9186 263.02 39.0677 262.825 39.1694 262.611C39.2711 262.396 39.3234 262.166 39.3234 261.934C39.3234 261.702 39.2711 261.472 39.1694 261.257C39.0677 261.043 38.9186 260.848 38.7308 260.684L36.0635 258.344C35.8768 258.18 35.6547 258.049 35.4102 257.96C35.1656 257.87 34.9034 257.825 34.6385 257.825C34.3737 257.825 34.1114 257.87 33.8669 257.96C33.6223 258.049 33.4003 258.18 33.2135 258.344L31.1491 260.139C29.497 259.23 27.6807 258.575 25.7779 258.2V255.636C25.7779 255.169 25.5662 254.72 25.1893 254.39C24.8124 254.059 24.3013 253.873 23.7683 253.873H20.0597C19.525 253.873 19.0119 254.058 18.6321 254.389C18.2523 254.719 18.0366 255.167 18.0318 255.636V258.2C16.129 258.575 14.3126 259.23 12.6606 260.139L10.5962 258.344C10.4094 258.18 10.1874 258.049 9.94283 257.96C9.69828 257.87 9.43603 257.825 9.17118 257.825C8.90632 257.825 8.64406 257.87 8.39951 257.96C8.15495 258.049 7.93292 258.18 7.74616 258.344L5.09713 260.684C4.90709 260.847 4.75608 261.041 4.65298 261.256C4.54988 261.471 4.49676 261.701 4.49676 261.934C4.49676 262.167 4.54988 262.398 4.65298 262.612C4.75608 262.827 4.90709 263.021 5.09713 263.184L7.14329 264.979C6.10754 266.43 5.3543 268.022 4.91443 269.69H2.00962C1.47496 269.695 0.963847 269.884 0.587487 270.217C0.211127 270.55 -2.16966e-05 271 1.67217e-09 271.469V274.77C1.67217e-09 275.238 0.211726 275.686 0.588602 276.017C0.965479 276.347 1.47663 276.533 2.00962 276.533H4.91443C5.34766 278.203 6.10135 279.796 7.14329 281.245L5.09713 283.055C4.90709 283.218 4.75608 283.413 4.65298 283.627C4.54988 283.842 4.49676 284.073 4.49676 284.305C4.49676 284.538 4.54988 284.769 4.65298 284.984C4.75608 285.198 4.90709 285.393 5.09713 285.555L7.83751 287.895C8.02427 288.06 8.24631 288.191 8.49086 288.28C8.73541 288.369 8.99766 288.415 9.26251 288.415C9.52737 288.415 9.78961 288.369 10.0342 288.28C10.2787 288.191 10.5008 288.06 10.6875 287.895L12.7519 286.084C14.4031 286.998 16.2194 287.659 18.1231 288.039V290.587C18.1231 291.059 18.3368 291.512 18.7171 291.845C19.0974 292.179 19.6132 292.366 20.151 292.366H23.9145C24.4491 292.362 24.9602 292.173 25.3366 291.84C25.713 291.506 25.9241 291.056 25.9241 290.587V288.039C27.8278 287.659 29.6441 286.998 31.2952 286.084L33.3597 287.895C33.5464 288.06 33.7685 288.191 34.013 288.28C34.2576 288.369 34.5198 288.415 34.7847 288.415C35.0495 288.415 35.3118 288.369 35.5563 288.28C35.8009 288.191 36.0229 288.06 36.2097 287.895L38.877 285.555C39.0648 285.392 39.2138 285.197 39.3155 284.982C39.4172 284.768 39.4696 284.538 39.4696 284.305C39.4696 284.073 39.4172 283.843 39.3155 283.629C39.2138 283.414 39.0648 283.219 38.877 283.055L36.8126 281.245C37.8545 279.796 38.6082 278.203 39.0414 276.533H41.9462C42.4649 276.513 42.9549 276.318 43.3152 275.99C43.6755 275.662 43.8786 275.226 43.8828 274.77ZM22.8183 280.636C21.0466 280.796 19.2616 280.472 17.7088 279.706C16.1559 278.941 14.9112 277.773 14.1458 276.362C13.3805 274.951 13.1319 273.367 13.4343 271.827C13.7367 270.288 14.5753 268.868 15.8348 267.763C17.0942 266.658 18.7128 265.923 20.4681 265.658C22.2234 265.392 24.0293 265.61 25.6376 266.282C27.246 266.953 28.5778 268.045 29.4502 269.407C30.3226 270.769 30.6927 272.335 30.5097 273.889C30.3061 275.617 29.4304 277.232 28.0297 278.46C26.629 279.689 24.7887 280.457 22.8183 280.636Z" fill="#263238"/>
<path d="M604 230.765V227.464C604 226.992 603.786 226.54 603.406 226.206C603.026 225.873 602.51 225.685 601.972 225.685H599.067C598.634 224.015 597.88 222.422 596.838 220.974L598.903 219.179C599.091 219.015 599.24 218.82 599.341 218.606C599.443 218.391 599.495 218.161 599.495 217.929C599.495 217.697 599.443 217.467 599.341 217.252C599.24 217.038 599.091 216.843 598.903 216.679L596.236 214.339C596.049 214.175 595.827 214.044 595.582 213.955C595.338 213.865 595.075 213.82 594.811 213.82C594.546 213.82 594.283 213.865 594.039 213.955C593.794 214.044 593.572 214.175 593.386 214.339L591.321 216.134C589.666 215.227 587.851 214.566 585.95 214.179V211.535C585.95 211.303 585.898 211.074 585.797 210.86C585.696 210.646 585.548 210.452 585.361 210.288C585.175 210.125 584.953 209.995 584.709 209.906C584.466 209.818 584.204 209.772 583.94 209.772H580.159C579.626 209.772 579.114 209.958 578.738 210.288C578.361 210.619 578.149 211.067 578.149 211.535V214.083C576.248 214.47 574.433 215.131 572.778 216.038L570.713 214.243C570.527 214.078 570.305 213.948 570.06 213.858C569.815 213.769 569.553 213.723 569.288 213.723C569.024 213.723 568.761 213.769 568.517 213.858C568.272 213.948 568.05 214.078 567.863 214.243L565.214 216.583C565.024 216.746 564.873 216.94 564.77 217.155C564.667 217.369 564.614 217.6 564.614 217.833C564.614 218.066 564.667 218.296 564.77 218.511C564.873 218.726 565.024 218.92 565.214 219.083L567.26 220.878C566.219 222.326 565.465 223.919 565.032 225.589H562.127C561.592 225.593 561.081 225.783 560.705 226.116C560.328 226.449 560.117 226.899 560.117 227.368V230.765C560.117 231.233 560.329 231.681 560.706 232.012C561.083 232.342 561.594 232.528 562.127 232.528H565.05C565.483 234.198 566.237 235.791 567.279 237.24L565.233 239.05C565.043 239.213 564.892 239.408 564.788 239.622C564.685 239.837 564.632 240.067 564.632 240.3C564.632 240.533 564.685 240.764 564.788 240.979C564.892 241.193 565.043 241.388 565.233 241.55L567.882 243.89C568.068 244.055 568.29 244.186 568.535 244.275C568.78 244.364 569.042 244.41 569.307 244.41C569.571 244.41 569.834 244.364 570.078 244.275C570.323 244.186 570.545 244.055 570.732 243.89L572.796 242.079C574.447 242.993 576.263 243.654 578.167 244.034V246.582C578.167 247.051 578.378 247.501 578.755 247.835C579.131 248.168 579.642 248.357 580.177 248.361H583.959C584.493 248.357 585.004 248.168 585.381 247.835C585.757 247.501 585.968 247.051 585.968 246.582V244.034C587.872 243.654 589.688 242.993 591.339 242.079L593.404 243.89C593.591 244.055 593.813 244.186 594.057 244.275C594.302 244.364 594.564 244.41 594.829 244.41C595.094 244.41 595.356 244.364 595.6 244.275C595.845 244.186 596.067 244.055 596.254 243.89L598.921 241.55C599.109 241.387 599.258 241.192 599.36 240.977C599.461 240.763 599.514 240.533 599.514 240.3C599.514 240.068 599.461 239.838 599.36 239.624C599.258 239.409 599.109 239.214 598.921 239.05L596.838 237.175C597.88 235.727 598.634 234.134 599.067 232.464H601.972C602.494 232.464 602.997 232.288 603.375 231.972C603.752 231.655 603.976 231.223 604 230.765ZM582.936 236.631C581.164 236.791 579.379 236.466 577.826 235.701C576.273 234.936 575.028 233.768 574.263 232.357C573.498 230.946 573.249 229.362 573.552 227.822C573.854 226.283 574.693 224.863 575.952 223.758C577.211 222.653 578.83 221.918 580.585 221.653C582.341 221.387 584.146 221.605 585.755 222.277C587.363 222.948 588.695 224.04 589.567 225.402C590.44 226.764 590.81 228.33 590.627 229.884C590.415 231.607 589.536 233.213 588.136 234.436C586.736 235.658 584.9 236.421 582.936 236.599V236.631Z" fill="#263238"/>
<path d="M296.108 15.7049V14.0062C296.108 13.887 296.081 13.769 296.028 13.659C295.976 13.5491 295.899 13.4495 295.802 13.3659C295.705 13.2824 295.59 13.2166 295.464 13.1724C295.337 13.1283 295.202 13.1067 295.067 13.1088H293.587C293.357 12.2522 292.968 11.4347 292.436 10.689L293.495 9.77552C293.687 9.60463 293.795 9.37438 293.795 9.1345C293.795 8.89463 293.687 8.66439 293.495 8.4935L292.125 7.2916C291.933 7.12426 291.674 7.03031 291.404 7.03031C291.133 7.03031 290.874 7.12426 290.682 7.2916L289.622 8.22106C288.772 7.75394 287.84 7.41285 286.864 7.21146V5.91341C286.864 5.6739 286.756 5.44396 286.565 5.27311C286.374 5.10226 286.114 5.00417 285.841 4.99997H283.904C283.631 5.00417 283.371 5.10226 283.179 5.27311C282.988 5.44396 282.881 5.6739 282.881 5.91341V7.21146C281.904 7.41087 280.971 7.75209 280.122 8.22106L279.063 7.2916C278.868 7.12326 278.605 7.0289 278.332 7.0289C278.058 7.0289 277.796 7.12326 277.601 7.2916L276.249 8.4935C276.057 8.66439 275.95 8.89463 275.95 9.1345C275.95 9.37438 276.057 9.60463 276.249 9.77552L277.291 10.689C276.764 11.4357 276.382 12.2532 276.158 13.1088H274.66C274.388 13.1088 274.128 13.2033 273.936 13.3716C273.745 13.5399 273.637 13.7682 273.637 14.0062V15.7049C273.637 15.9444 273.744 16.1744 273.935 16.3452C274.127 16.5161 274.387 16.6142 274.66 16.6184H276.158C276.379 17.4697 276.762 18.2824 277.291 19.0222L276.249 19.9516C276.057 20.1225 275.95 20.3528 275.95 20.5926C275.95 20.8325 276.057 21.0628 276.249 21.2337L277.601 22.4356C277.796 22.6039 278.058 22.6982 278.332 22.6982C278.605 22.6982 278.868 22.6039 279.063 22.4356L280.122 21.5061C280.968 21.9768 281.902 22.3131 282.881 22.4997V23.8137C282.881 24.0517 282.989 24.28 283.181 24.4483C283.372 24.6166 283.633 24.7112 283.904 24.7112H285.841C286.112 24.7112 286.372 24.6166 286.564 24.4483C286.756 24.28 286.864 24.0517 286.864 23.8137V22.4356C287.841 22.2459 288.775 21.9097 289.622 21.442L290.682 22.3715C290.874 22.5388 291.133 22.6327 291.404 22.6327C291.674 22.6327 291.933 22.5388 292.125 22.3715L293.495 21.1695C293.687 20.9987 293.795 20.7684 293.795 20.5285C293.795 20.2887 293.687 20.0584 293.495 19.8875L292.436 18.9581C292.97 18.2191 293.359 17.4065 293.587 16.5543H295.067C295.331 16.5548 295.585 16.4674 295.778 16.3098C295.972 16.1521 296.089 15.9359 296.108 15.7049ZM285.329 18.7177C284.419 18.8166 283.497 18.6652 282.69 18.2843C281.883 17.9034 281.231 17.3119 280.824 16.5916C280.417 15.8713 280.275 15.0579 280.418 14.2638C280.561 13.4697 280.982 12.7342 281.622 12.1591C282.263 11.584 283.091 11.1977 283.993 11.0536C284.894 10.9096 285.825 11.0149 286.655 11.3551C287.486 11.6952 288.175 12.2534 288.628 12.9523C289.081 13.6511 289.275 14.4562 289.184 15.2562C289.081 16.13 288.644 16.9475 287.944 17.5759C287.244 18.2043 286.322 18.6067 285.329 18.7177Z" fill="#263238"/>
<path d="M61.092 127.915H48.6689V138.812H61.092V127.915ZM51.1901 130.126H58.4978V136.616H51.1901V130.126Z" fill="#263238"/>
<path d="M562.912 340.875H550.435V351.773H562.858L562.912 340.875ZM552.992 343.087H560.391V349.577H552.992V343.087Z" fill="#263238"/>
<path d="M376.529 28.717H364.088V39.6143H376.511L376.529 28.717ZM366.609 30.9125H374.008V37.3227H366.609V30.9125Z" fill="#263238"/>
<path d="M53.7844 301.933H41.3613V312.847H53.7844V301.933ZM43.8642 304.145H51.1719V310.555H43.8642V304.145Z" fill="#263238"/>
<path opacity="0.9" d="M416.521 104.165C415.042 104.161 413.596 104.543 412.364 105.261C411.133 105.98 410.173 107.002 409.604 108.2C409.036 109.397 408.885 110.715 409.172 111.988C409.458 113.26 410.168 114.43 411.212 115.348C412.257 116.266 413.588 116.892 415.038 117.146C416.488 117.4 417.991 117.271 419.358 116.776C420.724 116.28 421.892 115.44 422.714 114.362C423.536 113.284 423.975 112.016 423.975 110.719C423.975 108.983 423.19 107.319 421.792 106.09C420.395 104.861 418.499 104.169 416.521 104.165ZM416.521 114.645C415.635 114.645 414.77 114.415 414.034 113.983C413.298 113.552 412.724 112.939 412.385 112.221C412.047 111.504 411.958 110.715 412.131 109.953C412.303 109.191 412.73 108.492 413.356 107.943C413.982 107.394 414.779 107.02 415.647 106.868C416.516 106.717 417.416 106.794 418.234 107.092C419.051 107.389 419.75 107.892 420.242 108.538C420.734 109.183 420.997 109.942 420.997 110.719C420.977 111.749 420.497 112.731 419.66 113.454C418.823 114.176 417.695 114.581 416.521 114.581V114.645Z" fill="#263238"/>
<path d="M283.704 134.902L266.969 114.582C270.038 114.573 272.978 113.5 275.148 111.596C277.319 109.693 278.542 107.113 278.552 104.421V49.1019C278.537 46.4112 277.312 43.8343 275.143 41.9316C272.974 40.029 270.036 38.9545 266.969 38.9418H121.546C118.477 38.9503 115.536 40.0234 113.366 41.927C111.196 43.8305 109.973 46.4099 109.963 49.1019V104.421C109.968 107.115 111.19 109.697 113.361 111.601C115.532 113.505 118.475 114.577 121.546 114.582H247.293L283.704 134.902Z" fill="#263238"/>
<path d="M158.285 74.5022C158.285 73.2724 157.87 72.0703 157.091 71.0478C156.312 70.0252 155.205 69.2283 153.91 68.7577C152.614 68.2871 151.189 68.1639 149.814 68.4038C148.439 68.6438 147.176 69.236 146.185 70.1055C145.193 70.9751 144.518 72.083 144.245 73.2892C143.971 74.4953 144.111 75.7455 144.648 76.8817C145.184 78.0178 146.093 78.9889 147.259 79.6721C148.424 80.3554 149.795 80.72 151.197 80.72C152.128 80.72 153.05 80.5592 153.91 80.2467C154.77 79.9342 155.551 79.4763 156.209 78.8989C156.867 78.3215 157.39 77.6361 157.746 76.8817C158.102 76.1273 158.285 75.3187 158.285 74.5022Z" fill="black"/>
<path d="M200.104 74.5022C200.104 73.2717 199.687 72.0689 198.908 71.0461C198.128 70.0232 197.02 69.2263 195.724 68.7561C194.427 68.286 193.001 68.1638 191.626 68.405C190.25 68.6462 188.987 69.24 187.996 70.1112C187.006 70.9824 186.332 72.0918 186.061 73.299C185.789 74.5062 185.932 75.7569 186.472 76.8928C187.011 78.0286 187.922 78.9986 189.09 79.6799C190.258 80.3612 191.631 80.7232 193.033 80.72C193.963 80.72 194.884 80.5591 195.743 80.2464C196.602 79.9337 197.383 79.4755 198.039 78.8979C198.696 78.3203 199.217 77.6347 199.571 76.8804C199.925 76.1261 200.106 75.318 200.104 74.5022Z" fill="black"/>
<path d="M241.94 74.5022C241.94 73.2724 241.524 72.0703 240.745 71.0478C239.966 70.0252 238.859 69.2283 237.564 68.7577C236.269 68.2871 234.843 68.1639 233.468 68.4038C232.093 68.6438 230.83 69.236 229.839 70.1055C228.847 70.9751 228.172 72.083 227.899 73.2892C227.625 74.4953 227.766 75.7455 228.302 76.8817C228.839 78.0178 229.747 78.9889 230.913 79.6721C232.079 80.3554 233.449 80.72 234.851 80.72C235.782 80.72 236.704 80.5592 237.564 80.2467C238.424 79.9342 239.205 79.4763 239.863 78.8989C240.522 78.3215 241.044 77.6361 241.4 76.8817C241.756 76.1273 241.94 75.3187 241.94 74.5022Z" fill="black"/>
</svg>
