<svg width="531" height="348" viewBox="0 0 531 348" fill="none" xmlns="http://www.w3.org/2000/svg">
<path d="M252.587 312.346C306.792 312.346 350.734 307.515 350.734 301.556C350.734 295.596 306.792 290.765 252.587 290.765C198.383 290.765 154.441 295.596 154.441 301.556C154.441 307.515 198.383 312.346 252.587 312.346Z" fill="white"/>
<path opacity="0.5" d="M252.587 312.346C306.792 312.346 350.734 307.515 350.734 301.556C350.734 295.596 306.792 290.765 252.587 290.765C198.383 290.765 154.441 295.596 154.441 301.556C154.441 307.515 198.383 312.346 252.587 312.346Z" fill="white"/>
<path d="M468.257 337.703C498.706 337.703 523.389 332.872 523.389 326.913C523.389 320.954 498.706 316.123 468.257 316.123C437.809 316.123 413.125 320.954 413.125 326.913C413.125 332.872 437.809 337.703 468.257 337.703Z" fill="white"/>
<path opacity="0.5" d="M468.257 337.703C498.706 337.703 523.389 332.872 523.389 326.913C523.389 320.954 498.706 316.123 468.257 316.123C437.809 316.123 413.125 320.954 413.125 326.913C413.125 332.872 437.809 337.703 468.257 337.703Z" fill="white"/>
<path d="M0.266919 78.5025C-0.00921869 77.7344 -0.0719756 76.9302 0.0827273 76.1422C0.23743 75.3542 0.606125 74.6001 1.16481 73.9291C1.7235 73.258 2.45965 72.6849 3.32533 72.2473C4.19101 71.8096 5.16682 71.5171 6.18921 71.3888C12.3712 70.7393 19.9689 77.1237 22.3716 80.9903C22.5794 81.32 25.047 86.8351 24.9691 86.8351C24.8912 86.8351 14.0077 87.0249 9.53998 85.5263C5.6827 84.2374 1.34488 81.7896 0.266919 78.5025ZM159.065 63.8454C158.156 67.1625 153.87 69.7003 150.09 71.0591C146.311 72.4179 137.402 72.6576 135.207 72.6876C134.025 73.7766 132.765 74.9356 131.414 76.2545C129.051 78.5824 126.427 81.25 123.817 84.2474C123.115 85.0567 122.414 85.9359 121.7 86.7851C123.284 85.5462 125.479 83.8677 125.713 83.7179C130.064 81.0502 140.519 77.863 145.714 80.5107C146.562 80.969 147.275 81.5597 147.807 82.2443C148.338 82.9289 148.676 83.692 148.799 84.4839C148.922 85.2757 148.826 86.0786 148.518 86.8401C148.21 87.6015 147.697 88.3046 147.012 88.9033C144.22 91.521 138.869 92.2503 134.713 92.1204C130.557 91.9905 122.245 88.9532 120.427 88.2738C118.894 90.1721 117.388 92.1504 115.959 94.2685C113.337 98.1089 111.164 102.121 109.466 106.258L109.777 106.378C111.076 105.099 113.803 102.451 114.063 102.251C117.959 99.2541 127.947 95.1777 133.544 97.3758C134.452 97.7602 135.245 98.2876 135.87 98.9234C136.496 99.5593 136.94 100.289 137.174 101.066C137.408 101.843 137.427 102.649 137.229 103.431C137.031 104.214 136.621 104.956 136.025 105.609C133.622 108.446 128.414 109.605 124.336 109.845C119.557 110.105 109.66 107.227 109.297 107.117C107.739 111.279 106.538 115.514 105.699 119.796C105.05 122.953 104.569 126.18 104.128 129.427C104.985 128.508 108.595 125.031 108.894 124.802C112.79 121.804 122.778 117.728 128.375 119.926C129.283 120.31 130.076 120.838 130.701 121.473C131.327 122.109 131.771 122.839 132.005 123.616C132.239 124.393 132.258 125.199 132.06 125.982C131.862 126.764 131.452 127.506 130.856 128.159C128.453 130.996 123.245 132.155 119.167 132.395C114.492 132.645 104.998 129.927 104.206 129.697C104.011 131.166 103.79 132.635 103.608 134.113C102.998 138.929 102.413 143.765 101.647 148.521C101.387 150.169 101.037 151.788 100.712 153.406C102.011 152.057 104.608 149.65 104.816 149.46C108.712 146.462 118.7 142.386 124.297 144.584C125.205 144.968 125.998 145.496 126.623 146.132C127.249 146.768 127.693 147.498 127.927 148.274C128.161 149.051 128.18 149.857 127.982 150.64C127.784 151.422 127.373 152.164 126.778 152.817C124.375 155.654 119.167 156.813 115.024 157.043C110.881 157.273 102.803 155.115 100.556 154.485C99.9717 157.183 99.2574 159.841 98.5171 162.478C98.1405 163.597 97.8548 164.746 97.4132 165.805C96.9716 166.864 96.582 167.933 96.1145 168.982C95.1664 171.121 94.3092 173.119 93.3611 175.097C92.8936 176.096 92.426 177.035 91.9455 178.004C93.0494 176.486 94.8417 174.098 95.0495 173.898C98.3483 170.451 107.375 165.286 113.232 166.814C114.205 167.088 115.092 167.517 115.835 168.072C116.578 168.627 117.161 169.296 117.546 170.036C117.93 170.776 118.108 171.57 118.068 172.366C118.027 173.162 117.769 173.943 117.31 174.657C115.492 177.745 110.57 179.503 106.517 180.213C102.05 180.992 92.452 179.493 91.2701 179.303C90.1012 181.671 88.9454 183.969 87.8025 186.107C84.2049 192.861 80.8801 198.396 78.4775 202.233C78.3476 202.453 78.2177 202.643 78.0878 202.853H95.582L89.5428 293.442C89.3319 296.787 87.4498 299.94 84.2893 302.243C81.1288 304.546 76.9342 305.821 72.5812 305.801C68.2677 305.794 64.1218 304.516 60.9942 302.231C57.8666 299.945 55.9946 296.826 55.7624 293.512L49.7362 202.892H68.5031C68.4122 202.263 68.3213 201.604 68.2044 200.894C67.581 196.708 66.568 190.723 64.9315 183.6C64.477 181.541 63.9315 179.373 63.3601 177.145C62.1392 177.265 52.4506 178.204 48.0738 177.145C44.0867 176.206 39.3592 174.148 37.8527 170.991C37.4629 170.252 37.2798 169.459 37.3153 168.662C37.3508 167.865 37.6041 167.083 38.0587 166.367C38.5132 165.65 39.1589 165.016 39.9536 164.504C40.7483 163.992 41.6742 163.615 42.671 163.397C48.7102 162.208 57.217 167.873 60.1781 171.51C60.36 171.74 62.2042 174.677 63.1003 176.196C62.7496 174.847 62.399 173.508 61.9964 172.11C61.4379 170.111 60.6976 167.983 60.1262 165.935C59.7366 164.886 59.3599 163.817 58.9703 162.748C58.5807 161.679 58.0871 160.65 57.6715 159.581C56.9832 158.032 56.165 156.454 55.3598 154.885C52.7623 155.444 44.9698 156.983 40.9956 156.543C37.0215 156.104 31.8005 154.615 29.6835 151.648C29.1538 150.962 28.8175 150.199 28.6964 149.406C28.5754 148.614 28.6724 147.812 28.981 147.05C29.2897 146.289 29.8032 145.586 30.4881 144.987C31.173 144.388 32.0139 143.907 32.9564 143.575C38.6968 141.707 48.2037 146.313 51.8532 149.57C51.97 149.67 52.6454 150.419 53.4376 151.308C52.5934 149.789 51.7493 148.311 50.8401 146.762C48.2426 142.466 45.3724 138.15 42.5411 133.774C41.9567 132.874 41.3853 131.965 40.8008 131.056C38.58 131.536 30.203 133.264 26.0341 132.794C21.8651 132.325 16.8389 130.866 14.722 127.899C14.1903 127.214 13.8524 126.451 13.7304 125.66C13.6084 124.868 13.7051 124.065 14.014 123.304C14.3229 122.543 14.8372 121.841 15.5232 121.243C16.2091 120.646 17.0514 120.166 17.9948 119.836C23.7223 117.958 33.2421 122.573 36.8916 125.831C37.0215 125.951 37.8267 126.83 38.7228 127.829C37.2293 125.451 35.7747 123.073 34.424 120.685C32.0917 116.584 30.1133 112.368 28.5017 108.066C27.7224 108.246 17.9559 110.424 13.3193 109.905C9.2023 109.445 4.1242 107.976 2.00724 105.009C1.48327 104.328 1.15059 103.57 1.03064 102.784C0.910685 101.998 1.00612 101.202 1.3108 100.446C1.61547 99.6899 2.12262 98.9915 2.79957 98.3956C3.47651 97.7998 4.30823 97.3196 5.24112 96.9861C10.9816 95.1078 20.4884 99.7237 24.1379 102.981C24.3976 103.211 27.2809 106.458 28.2679 107.637C28.2624 107.587 28.2624 107.537 28.2679 107.487C26.821 103.231 25.8734 98.8843 25.4366 94.4983C25.0118 90.5842 24.8903 86.654 25.073 82.7287C25.1769 79.0919 25.5665 75.7349 25.9561 72.8275C26.1769 71.2289 26.4107 69.7802 26.6575 68.4314L26.5536 68.4813C26.4497 68.4813 24.3587 62.9362 24.2808 62.5666C23.3586 58.3403 24.8262 49.7579 30.3589 47.5798C31.2912 47.2319 32.3085 47.0392 33.3442 47.0145C34.3799 46.9897 35.4107 47.1334 36.3693 47.4361C37.3279 47.7388 38.1927 48.1937 38.9071 48.7711C39.6215 49.3486 40.1694 50.0355 40.5151 50.787C42.1385 53.9342 40.3722 57.8807 38.2033 60.6183C36.0344 63.3559 28.7744 67.3323 26.9692 68.2815C26.7484 69.6903 26.5406 71.1989 26.3588 72.8774C26.06 75.8148 25.7613 79.1319 25.7483 82.7587C25.7483 83.7578 25.7483 84.7569 25.8133 85.7561C26.2419 84.0576 26.8653 81.7596 26.9562 81.4998C28.6705 77.4234 35.0993 70.3297 41.3463 70.3297C42.3816 70.3545 43.3986 70.5465 44.3312 70.8932C45.2639 71.2399 46.0914 71.7336 46.76 72.3422C47.4287 72.9508 47.9235 73.6607 48.2125 74.4259C48.5015 75.1911 48.5781 75.9945 48.4375 76.784C47.9829 80.151 44.0477 83.0285 40.4891 84.687C36.9305 86.3455 27.8134 87.3347 25.8522 87.5145C25.9302 89.7525 26.099 92.0405 26.4367 94.4284C27.0026 98.762 28.0674 103.048 29.6186 107.237H29.9693C30.1121 105.628 30.5147 102.241 30.5797 101.972C31.7096 97.7754 37.0734 90.1821 43.2944 89.6626C44.3272 89.5993 45.3658 89.7038 46.3428 89.9693C47.3197 90.2347 48.2132 90.6553 48.9651 91.2037C49.7171 91.752 50.3108 92.4158 50.7077 93.1521C51.1045 93.8884 51.2957 94.6807 51.2687 95.4775C51.2687 98.8645 47.7881 102.052 44.4893 104C40.632 106.168 30.3199 107.976 29.9173 108.036C31.6023 112.167 33.637 116.209 36.0084 120.136C37.7098 123.043 39.6579 125.961 41.606 128.838C41.606 127.699 42.1775 123.273 42.2684 122.953C43.3983 118.757 48.7621 111.164 54.9701 110.644C56.0023 110.579 57.0406 110.682 58.0176 110.947C58.9945 111.211 59.8882 111.631 60.6404 112.178C61.3926 112.726 61.9865 113.389 62.3835 114.125C62.7804 114.861 62.9716 115.653 62.9445 116.449C62.9445 119.836 59.4768 123.023 56.178 124.971C52.4636 127.169 42.5931 128.968 41.7619 129.078C42.658 130.387 43.5282 131.705 44.4373 133.014C47.3855 137.29 50.3596 141.567 53.1259 145.863C54.087 147.352 54.9701 148.86 55.8533 150.339C56.0091 148.64 56.3858 145.563 56.4507 145.293C57.5806 141.107 62.9445 133.504 69.1525 132.984C70.1853 132.921 71.2239 133.025 72.2008 133.291C73.1778 133.556 74.0712 133.977 74.8232 134.525C75.5752 135.074 76.1688 135.738 76.5657 136.474C76.9626 137.21 77.1537 138.002 77.1268 138.799C77.1268 142.186 73.6591 145.373 70.3603 147.322C67.0615 149.27 58.7885 150.898 56.4507 151.318C57.9053 153.806 59.269 156.314 60.4638 158.811C60.9444 159.901 61.5288 160.99 61.9184 162.059L63.2172 165.226C63.9705 167.414 64.6848 169.442 65.3082 171.5C65.6459 172.499 65.9186 173.498 66.2173 174.498C66.0485 172.769 65.8407 170.012 65.8536 169.762C66.1394 165.486 69.9577 157.343 75.9839 156.114C76.9967 155.92 78.0515 155.893 79.0785 156.037C80.1055 156.18 81.0812 156.489 81.9409 156.945C82.8006 157.4 83.5246 157.991 84.0649 158.678C84.6053 159.365 84.9496 160.132 85.0751 160.93C85.1618 161.342 85.1966 161.761 85.179 162.178C87.6434 165.442 88.9844 169.135 89.0752 172.909C89.0752 173.179 88.4908 176.416 88.1531 178.054C88.8285 176.786 89.4519 175.517 90.1532 174.188C91.1273 172.27 92.0883 170.191 93.0234 168.193C93.452 167.194 93.8936 166.095 94.3222 165.036C94.7508 163.977 95.0884 162.908 95.4781 161.839C96.0235 160.25 96.4781 158.592 96.9327 156.933C94.3352 156.294 86.7635 154.285 83.7634 152.227C80.7633 150.169 77.4774 146.712 77.8281 143.335C77.8794 142.539 78.1477 141.76 78.6155 141.049C79.0834 140.338 79.7403 139.711 80.5436 139.208C81.347 138.705 82.2789 138.337 83.2788 138.129C84.2787 137.921 85.3244 137.877 86.3479 138C92.478 138.869 97.1015 146.752 97.8288 150.988C97.8288 151.118 97.8288 151.987 97.8288 153.116C98.2184 151.488 98.608 149.869 98.9197 148.211C99.8159 143.515 100.53 138.699 101.283 133.893C101.426 132.894 101.608 131.895 101.764 130.896C99.5821 130.357 91.374 128.238 88.2051 126.08C85.0361 123.922 81.9192 120.565 82.2828 117.198C82.3306 116.402 82.596 115.622 83.0616 114.91C83.5272 114.198 84.1827 113.569 84.9853 113.065C85.7878 112.561 86.7195 112.192 87.7196 111.983C88.7197 111.774 89.7657 111.73 90.7896 111.853C96.9327 112.722 101.556 120.615 102.271 124.841C102.271 124.991 102.271 126.08 102.348 127.299C102.803 124.682 103.31 122.084 103.894 119.516C104.889 115.122 106.26 110.783 107.998 106.528C107.232 106.338 97.5171 104.01 94.0235 101.612C90.9195 99.4739 87.7375 96.0969 88.0882 92.7199C88.1395 91.924 88.4078 91.1453 88.8756 90.4343C89.3435 89.7233 90.0004 89.0958 90.8037 88.5928C91.6071 88.0897 92.539 87.7221 93.5389 87.514C94.5388 87.3059 95.5845 87.2618 96.608 87.3846C102.738 88.2538 107.362 96.1369 108.089 100.373C108.089 100.673 108.219 104.599 108.18 106.008V105.858C110.03 101.713 112.351 97.7011 115.115 93.8689C117.575 90.4195 120.294 87.0835 123.258 83.8777C125.96 80.8804 128.674 78.2827 131.051 75.9947C132.349 74.7558 133.648 73.6468 134.791 72.6177H134.648C134.544 72.6177 136.817 67.0526 137.012 66.7129C139.272 62.8063 146.636 56.2621 152.844 56.7817C153.886 56.8805 154.889 57.1498 155.786 57.5715C156.682 57.9932 157.45 58.5576 158.04 59.2266C158.629 59.8957 159.025 60.654 159.202 61.4507C159.379 62.2473 159.332 63.0639 159.065 63.8454ZM87.5427 178.964C86.4907 178.564 78.3086 175.447 75.1137 172.789C72.3574 173.961 69.5124 175.006 66.5939 175.916C67.3212 178.384 67.9966 180.802 68.568 183.07C70.4252 190.234 71.6071 196.248 72.3604 200.475C72.5292 201.374 72.6591 202.183 72.789 202.912H73.2046L74.5033 200.864C76.9839 197.108 80.4256 191.692 84.179 185.058C85.3219 183.11 86.4388 181.062 87.5427 178.964ZM120.219 87.3746C120.323 87.4246 122.206 81.7796 122.284 81.3799C123.05 77.1337 121.284 68.5912 115.674 66.5031C114.722 66.178 113.691 66.0116 112.649 66.015C111.608 66.0184 110.579 66.1914 109.631 66.5227C108.682 66.854 107.836 67.336 107.147 67.9371C106.458 68.5382 105.943 69.2446 105.634 70.01C104.128 73.1872 106.037 77.0937 108.232 79.7813C110.946 82.8886 120.219 87.3746 120.219 87.3746Z" fill="white"/>
<path opacity="0.3" d="M0.266919 78.5025C-0.00921869 77.7344 -0.0719756 76.9302 0.0827273 76.1422C0.23743 75.3542 0.606125 74.6001 1.16481 73.9291C1.7235 73.258 2.45965 72.6849 3.32533 72.2473C4.19101 71.8096 5.16682 71.5171 6.18921 71.3888C12.3712 70.7393 19.9689 77.1237 22.3716 80.9903C22.5794 81.32 25.047 86.8351 24.9691 86.8351C24.8912 86.8351 14.0077 87.0249 9.53998 85.5263C5.6827 84.2374 1.34488 81.7896 0.266919 78.5025ZM159.065 63.8454C158.156 67.1625 153.87 69.7003 150.09 71.0591C146.311 72.4179 137.402 72.6576 135.207 72.6876C134.025 73.7766 132.765 74.9356 131.414 76.2545C129.051 78.5824 126.427 81.25 123.817 84.2474C123.115 85.0567 122.414 85.9359 121.7 86.7851C123.284 85.5462 125.479 83.8677 125.713 83.7179C130.064 81.0502 140.519 77.863 145.714 80.5107C146.562 80.969 147.275 81.5597 147.807 82.2443C148.338 82.9289 148.676 83.692 148.799 84.4839C148.922 85.2757 148.826 86.0786 148.518 86.8401C148.21 87.6015 147.697 88.3046 147.012 88.9033C144.22 91.521 138.869 92.2503 134.713 92.1204C130.557 91.9905 122.245 88.9532 120.427 88.2738C118.894 90.1721 117.388 92.1504 115.959 94.2685C113.337 98.1089 111.164 102.121 109.466 106.258L109.777 106.378C111.076 105.099 113.803 102.451 114.063 102.251C117.959 99.2541 127.947 95.1777 133.544 97.3758C134.452 97.7602 135.245 98.2876 135.87 98.9234C136.496 99.5593 136.94 100.289 137.174 101.066C137.408 101.843 137.427 102.649 137.229 103.431C137.031 104.214 136.621 104.956 136.025 105.609C133.622 108.446 128.414 109.605 124.336 109.845C119.557 110.105 109.66 107.227 109.297 107.117C107.739 111.279 106.538 115.514 105.699 119.796C105.05 122.953 104.569 126.18 104.128 129.427C104.985 128.508 108.595 125.031 108.894 124.802C112.79 121.804 122.778 117.728 128.375 119.926C129.283 120.31 130.076 120.838 130.701 121.473C131.327 122.109 131.771 122.839 132.005 123.616C132.239 124.393 132.258 125.199 132.06 125.982C131.862 126.764 131.452 127.506 130.856 128.159C128.453 130.996 123.245 132.155 119.167 132.395C114.492 132.645 104.998 129.927 104.206 129.697C104.011 131.166 103.79 132.635 103.608 134.113C102.998 138.929 102.413 143.765 101.647 148.521C101.387 150.169 101.037 151.788 100.712 153.406C102.011 152.057 104.608 149.65 104.816 149.46C108.712 146.462 118.7 142.386 124.297 144.584C125.205 144.968 125.998 145.496 126.623 146.132C127.249 146.768 127.693 147.498 127.927 148.274C128.161 149.051 128.18 149.857 127.982 150.64C127.784 151.422 127.373 152.164 126.778 152.817C124.375 155.654 119.167 156.813 115.024 157.043C110.881 157.273 102.803 155.115 100.556 154.485C99.9717 157.183 99.2574 159.841 98.5171 162.478C98.1405 163.597 97.8548 164.746 97.4132 165.805C96.9716 166.864 96.582 167.933 96.1145 168.982C95.1664 171.121 94.3092 173.119 93.3611 175.097C92.8936 176.096 92.426 177.035 91.9455 178.004C93.0494 176.486 94.8417 174.098 95.0495 173.898C98.3483 170.451 107.375 165.286 113.232 166.814C114.205 167.088 115.092 167.517 115.835 168.072C116.578 168.627 117.161 169.296 117.546 170.036C117.93 170.776 118.108 171.57 118.068 172.366C118.027 173.162 117.769 173.943 117.31 174.657C115.492 177.745 110.57 179.503 106.517 180.213C102.05 180.992 92.452 179.493 91.2701 179.303C90.1012 181.671 88.9454 183.969 87.8025 186.107C84.2049 192.861 80.8801 198.396 78.4775 202.233C78.3476 202.453 78.2177 202.643 78.0878 202.853H95.582L89.5428 293.442C89.3319 296.787 87.4498 299.94 84.2893 302.243C81.1288 304.546 76.9342 305.821 72.5812 305.801C68.2677 305.794 64.1218 304.516 60.9942 302.231C57.8666 299.945 55.9946 296.826 55.7624 293.512L49.7362 202.892H68.5031C68.4122 202.263 68.3213 201.604 68.2044 200.894C67.581 196.708 66.568 190.723 64.9315 183.6C64.477 181.541 63.9315 179.373 63.3601 177.145C62.1392 177.265 52.4506 178.204 48.0738 177.145C44.0867 176.206 39.3592 174.148 37.8527 170.991C37.4629 170.252 37.2798 169.459 37.3153 168.662C37.3508 167.865 37.6041 167.083 38.0587 166.367C38.5132 165.65 39.1589 165.016 39.9536 164.504C40.7483 163.992 41.6742 163.615 42.671 163.397C48.7102 162.208 57.217 167.873 60.1781 171.51C60.36 171.74 62.2042 174.677 63.1003 176.196C62.7496 174.847 62.399 173.508 61.9964 172.11C61.4379 170.111 60.6976 167.983 60.1262 165.935C59.7366 164.886 59.3599 163.817 58.9703 162.748C58.5807 161.679 58.0871 160.65 57.6715 159.581C56.9832 158.032 56.165 156.454 55.3598 154.885C52.7623 155.444 44.9698 156.983 40.9956 156.543C37.0215 156.104 31.8005 154.615 29.6835 151.648C29.1538 150.962 28.8175 150.199 28.6964 149.406C28.5754 148.614 28.6724 147.812 28.981 147.05C29.2897 146.289 29.8032 145.586 30.4881 144.987C31.173 144.388 32.0139 143.907 32.9564 143.575C38.6968 141.707 48.2037 146.313 51.8532 149.57C51.97 149.67 52.6454 150.419 53.4376 151.308C52.5934 149.789 51.7493 148.311 50.8401 146.762C48.2426 142.466 45.3724 138.15 42.5411 133.774C41.9567 132.874 41.3853 131.965 40.8008 131.056C38.58 131.536 30.203 133.264 26.0341 132.794C21.8651 132.325 16.8389 130.866 14.722 127.899C14.1903 127.214 13.8524 126.451 13.7304 125.66C13.6084 124.868 13.7051 124.065 14.014 123.304C14.3229 122.543 14.8372 121.841 15.5232 121.243C16.2091 120.646 17.0514 120.166 17.9948 119.836C23.7223 117.958 33.2421 122.573 36.8916 125.831C37.0215 125.951 37.8267 126.83 38.7228 127.829C37.2293 125.451 35.7747 123.073 34.424 120.685C32.0917 116.584 30.1133 112.368 28.5017 108.066C27.7224 108.246 17.9559 110.424 13.3193 109.905C9.2023 109.445 4.1242 107.976 2.00724 105.009C1.48327 104.328 1.15059 103.57 1.03064 102.784C0.910685 101.998 1.00612 101.202 1.3108 100.446C1.61547 99.6899 2.12262 98.9915 2.79957 98.3956C3.47651 97.7998 4.30823 97.3196 5.24112 96.9861C10.9816 95.1078 20.4884 99.7237 24.1379 102.981C24.3976 103.211 27.2809 106.458 28.2679 107.637C28.2624 107.587 28.2624 107.537 28.2679 107.487C26.821 103.231 25.8734 98.8843 25.4366 94.4983C25.0118 90.5842 24.8903 86.654 25.073 82.7287C25.1769 79.0919 25.5665 75.7349 25.9561 72.8275C26.1769 71.2289 26.4107 69.7802 26.6575 68.4314L26.5536 68.4813C26.4497 68.4813 24.3587 62.9362 24.2808 62.5666C23.3586 58.3403 24.8262 49.7579 30.3589 47.5798C31.2912 47.2319 32.3085 47.0392 33.3442 47.0145C34.3799 46.9897 35.4107 47.1334 36.3693 47.4361C37.3279 47.7388 38.1927 48.1937 38.9071 48.7711C39.6215 49.3486 40.1694 50.0355 40.5151 50.787C42.1385 53.9342 40.3722 57.8807 38.2033 60.6183C36.0344 63.3559 28.7744 67.3323 26.9692 68.2815C26.7484 69.6903 26.5406 71.1989 26.3588 72.8774C26.06 75.8148 25.7613 79.1319 25.7483 82.7587C25.7483 83.7578 25.7483 84.7569 25.8133 85.7561C26.2419 84.0576 26.8653 81.7596 26.9562 81.4998C28.6705 77.4234 35.0993 70.3297 41.3463 70.3297C42.3816 70.3545 43.3986 70.5465 44.3312 70.8932C45.2639 71.2399 46.0914 71.7336 46.76 72.3422C47.4287 72.9508 47.9235 73.6607 48.2125 74.4259C48.5015 75.1911 48.5781 75.9945 48.4375 76.784C47.9829 80.151 44.0477 83.0285 40.4891 84.687C36.9305 86.3455 27.8134 87.3347 25.8522 87.5145C25.9302 89.7525 26.099 92.0405 26.4367 94.4284C27.0026 98.762 28.0674 103.048 29.6186 107.237H29.9693C30.1121 105.628 30.5147 102.241 30.5797 101.972C31.7096 97.7754 37.0734 90.1821 43.2944 89.6626C44.3272 89.5993 45.3658 89.7038 46.3428 89.9693C47.3197 90.2347 48.2132 90.6553 48.9651 91.2037C49.7171 91.752 50.3108 92.4158 50.7077 93.1521C51.1045 93.8884 51.2957 94.6807 51.2687 95.4775C51.2687 98.8645 47.7881 102.052 44.4893 104C40.632 106.168 30.3199 107.976 29.9173 108.036C31.6023 112.167 33.637 116.209 36.0084 120.136C37.7098 123.043 39.6579 125.961 41.606 128.838C41.606 127.699 42.1775 123.273 42.2684 122.953C43.3983 118.757 48.7621 111.164 54.9701 110.644C56.0023 110.579 57.0406 110.682 58.0176 110.947C58.9945 111.211 59.8882 111.631 60.6404 112.178C61.3926 112.726 61.9865 113.389 62.3835 114.125C62.7804 114.861 62.9716 115.653 62.9445 116.449C62.9445 119.836 59.4768 123.023 56.178 124.971C52.4636 127.169 42.5931 128.968 41.7619 129.078C42.658 130.387 43.5282 131.705 44.4373 133.014C47.3855 137.29 50.3596 141.567 53.1259 145.863C54.087 147.352 54.9701 148.86 55.8533 150.339C56.0091 148.64 56.3858 145.563 56.4507 145.293C57.5806 141.107 62.9445 133.504 69.1525 132.984C70.1853 132.921 71.2239 133.025 72.2008 133.291C73.1778 133.556 74.0712 133.977 74.8232 134.525C75.5752 135.074 76.1688 135.738 76.5657 136.474C76.9626 137.21 77.1537 138.002 77.1268 138.799C77.1268 142.186 73.6591 145.373 70.3603 147.322C67.0615 149.27 58.7885 150.898 56.4507 151.318C57.9053 153.806 59.269 156.314 60.4638 158.811C60.9444 159.901 61.5288 160.99 61.9184 162.059L63.2172 165.226C63.9705 167.414 64.6848 169.442 65.3082 171.5C65.6459 172.499 65.9186 173.498 66.2173 174.498C66.0485 172.769 65.8407 170.012 65.8536 169.762C66.1394 165.486 69.9577 157.343 75.9839 156.114C76.9967 155.92 78.0515 155.893 79.0785 156.037C80.1055 156.18 81.0812 156.489 81.9409 156.945C82.8006 157.4 83.5246 157.991 84.0649 158.678C84.6053 159.365 84.9496 160.132 85.0751 160.93C85.1618 161.342 85.1966 161.761 85.179 162.178C87.6434 165.442 88.9844 169.135 89.0752 172.909C89.0752 173.179 88.4908 176.416 88.1531 178.054C88.8285 176.786 89.4519 175.517 90.1532 174.188C91.1273 172.27 92.0883 170.191 93.0234 168.193C93.452 167.194 93.8936 166.095 94.3222 165.036C94.7508 163.977 95.0884 162.908 95.4781 161.839C96.0235 160.25 96.4781 158.592 96.9327 156.933C94.3352 156.294 86.7635 154.285 83.7634 152.227C80.7633 150.169 77.4774 146.712 77.8281 143.335C77.8794 142.539 78.1477 141.76 78.6155 141.049C79.0834 140.338 79.7403 139.711 80.5436 139.208C81.347 138.705 82.2789 138.337 83.2788 138.129C84.2787 137.921 85.3244 137.877 86.3479 138C92.478 138.869 97.1015 146.752 97.8288 150.988C97.8288 151.118 97.8288 151.987 97.8288 153.116C98.2184 151.488 98.608 149.869 98.9197 148.211C99.8159 143.515 100.53 138.699 101.283 133.893C101.426 132.894 101.608 131.895 101.764 130.896C99.5821 130.357 91.374 128.238 88.2051 126.08C85.0361 123.922 81.9192 120.565 82.2828 117.198C82.3306 116.402 82.596 115.622 83.0616 114.91C83.5272 114.198 84.1827 113.569 84.9853 113.065C85.7878 112.561 86.7195 112.192 87.7196 111.983C88.7197 111.774 89.7657 111.73 90.7896 111.853C96.9327 112.722 101.556 120.615 102.271 124.841C102.271 124.991 102.271 126.08 102.348 127.299C102.803 124.682 103.31 122.084 103.894 119.516C104.889 115.122 106.26 110.783 107.998 106.528C107.232 106.338 97.5171 104.01 94.0235 101.612C90.9195 99.4739 87.7375 96.0969 88.0882 92.7199C88.1395 91.924 88.4078 91.1453 88.8756 90.4343C89.3435 89.7233 90.0004 89.0958 90.8037 88.5928C91.6071 88.0897 92.539 87.7221 93.5389 87.514C94.5388 87.3059 95.5845 87.2618 96.608 87.3846C102.738 88.2538 107.362 96.1369 108.089 100.373C108.089 100.673 108.219 104.599 108.18 106.008V105.858C110.03 101.713 112.351 97.7011 115.115 93.8689C117.575 90.4195 120.294 87.0835 123.258 83.8777C125.96 80.8804 128.674 78.2827 131.051 75.9947C132.349 74.7558 133.648 73.6468 134.791 72.6177H134.648C134.544 72.6177 136.817 67.0526 137.012 66.7129C139.272 62.8063 146.636 56.2621 152.844 56.7817C153.886 56.8805 154.889 57.1498 155.786 57.5715C156.682 57.9932 157.45 58.5576 158.04 59.2266C158.629 59.8957 159.025 60.654 159.202 61.4507C159.379 62.2473 159.332 63.0639 159.065 63.8454ZM87.5427 178.964C86.4907 178.564 78.3086 175.447 75.1137 172.789C72.3574 173.961 69.5124 175.006 66.5939 175.916C67.3212 178.384 67.9966 180.802 68.568 183.07C70.4252 190.234 71.6071 196.248 72.3604 200.475C72.5292 201.374 72.6591 202.183 72.789 202.912H73.2046L74.5033 200.864C76.9839 197.108 80.4256 191.692 84.179 185.058C85.3219 183.11 86.4388 181.062 87.5427 178.964ZM120.219 87.3746C120.323 87.4246 122.206 81.7796 122.284 81.3799C123.05 77.1337 121.284 68.5912 115.674 66.5031C114.722 66.178 113.691 66.0116 112.649 66.015C111.608 66.0184 110.579 66.1914 109.631 66.5227C108.682 66.854 107.836 67.336 107.147 67.9371C106.458 68.5382 105.943 69.2446 105.634 70.01C104.128 73.1872 106.037 77.0937 108.232 79.7813C110.946 82.8886 120.219 87.3746 120.219 87.3746Z" fill="white"/>
<path d="M452.114 310.058C447.41 312.699 442.452 315.06 437.282 317.122C431.165 319.29 429.983 319.29 430.217 320.559C430.451 321.828 437.516 323.816 450.464 321.468C463.413 319.12 469.53 319.65 471.413 314.944C473.296 310.238 470.244 311.507 466.478 311.507C461.66 311.218 456.865 310.735 452.114 310.058Z" fill="black" stroke="black" stroke-linecap="round" stroke-linejoin="round"/>
<path d="M470.712 316.193C465.192 317.312 455.244 319.19 446.932 320.189C441.474 320.95 435.865 320.759 430.516 319.63C430.371 319.752 430.268 319.9 430.216 320.06C430.164 320.221 430.164 320.389 430.217 320.549C430.451 321.818 437.516 323.806 450.465 321.458C462.127 319.35 468.231 319.56 470.712 316.193Z" fill="white" stroke="black" stroke-linecap="round" stroke-linejoin="round"/>
<path d="M515.649 223.584C515.649 223.584 516.129 229.929 510.454 238.621C504.778 247.313 488.128 248.033 483.661 248.033C479.193 248.033 480.596 244.416 480.596 244.416L481.297 241.149L473.764 239.7C473.764 239.7 453.763 260.172 453.763 261.8C453.763 263.429 474.44 300.816 475.621 305.162C476.803 309.508 477.505 310.597 474.907 312.226C472.983 313.27 470.772 313.96 468.446 314.243C466.119 314.525 463.74 314.392 461.491 313.854C457.994 313.013 454.607 311.923 451.374 310.597C451.242 308.97 451.242 307.339 451.374 305.712C451.608 304.083 455.14 305.352 453.491 302.634C451.841 299.917 450.893 299.187 449.958 297.379C449.023 295.571 426.75 267.016 427.698 260.312C428.646 253.608 449.53 230.338 449.53 229.799C450.409 228.102 451.429 226.45 452.582 224.853C452.582 224.853 453.517 222.495 455.88 222.136C458.244 221.776 494.245 222.136 503.428 221.236C512.61 220.337 517.077 220.687 515.649 223.584Z" fill="white" stroke="black" stroke-linecap="round" stroke-linejoin="round"/>
<path d="M456.958 274.999L458.296 277.187" stroke="black" stroke-width="0.75" stroke-linecap="round" stroke-linejoin="round"/>
<path d="M461.167 250.151L451.01 260.362C451.01 260.362 438.023 261.571 441.919 261.771C445.815 261.97 449.712 261.97 449.712 261.97C449.712 261.97 446.322 262.77 447.114 263.169C448.026 263.449 449.002 263.585 449.984 263.569L455.53 272.641" stroke="black" stroke-width="0.75" stroke-linecap="round" stroke-linejoin="round"/>
<path d="M441.322 147.342C441.322 147.342 438.036 148.741 433.088 150.909C428.139 153.077 425.295 154.166 424.62 155.984C423.944 157.803 409.541 180.483 409.541 180.483C409.541 180.483 415.191 183.021 420.373 184.829C424.31 186.074 428.413 186.985 432.607 187.547L437.321 179.943C437.321 179.943 446.413 193.152 450.309 197.867C457.244 206.29 455.01 211.455 454.075 214.353C453.14 217.25 450.543 222.685 451.244 223.405C451.945 224.124 470.31 230.469 482.089 229.929C493.869 229.39 514.051 228.55 515.467 227.281C516.883 226.013 517.117 218.699 517.117 218.149C517.117 217.6 515.038 203.482 512.922 194.97C510.805 186.458 499.272 163.638 495.505 157.483C491.739 151.329 488.206 149.33 478.622 146.803C469.037 144.275 454.842 143.725 448.958 144.265C443.075 144.804 441.322 147.342 441.322 147.342Z" fill="black" stroke="black" stroke-linecap="round" stroke-linejoin="round"/>
<path d="M480.946 171.63L495.531 175.237L483.297 176.236" stroke="white" stroke-width="0.75" stroke-linecap="round" stroke-linejoin="round"/>
<path d="M456.997 200.275C456.997 200.275 471.05 209.088 488.245 209.088" stroke="white" stroke-width="0.75" stroke-linecap="round" stroke-linejoin="round"/>
<path d="M461.686 208.288C461.686 208.288 473.374 212.494 485.375 211.096" stroke="white" stroke-width="0.75" stroke-linecap="round" stroke-linejoin="round"/>
<path d="M431.477 168.833L437.321 179.943L424.97 166.225" stroke="white" stroke-width="0.75" stroke-linecap="round" stroke-linejoin="round"/>
<path d="M440.321 148.611C440.004 150.653 439.926 152.713 440.088 154.765C440.321 158.572 441.971 161.29 440.555 164.007C439.14 166.725 440.802 168.004 442.205 166.725C443.607 165.446 445.971 160.56 446.451 159.661C446.932 158.762 456.841 157.123 458.218 157.123C459.595 157.123 464.101 162.558 466.218 163.278C468.335 163.997 467.868 162.558 466.452 159.661C465.037 156.764 463.4 146.673 460.101 143.535C456.803 140.398 443.672 141.187 440.321 148.611Z" fill="white" stroke="black" stroke-linecap="round" stroke-linejoin="round"/>
<path d="M442.737 151.868C441.438 151.518 449.555 161.11 452.854 165.995C456.153 170.881 459.205 169.622 459.685 165.816C460.166 162.009 458.036 149.33 458.036 149.33C458.036 149.33 449.555 153.686 442.737 151.868Z" fill="white" stroke="black" stroke-linecap="round" stroke-linejoin="round"/>
<path d="M459.595 161.26C456.558 162.262 453.196 162.527 449.958 162.019C451.062 163.478 452.088 164.867 452.854 166.016C456.153 170.901 459.205 169.642 459.686 165.836C459.787 164.311 459.757 162.782 459.595 161.26Z" fill="white" stroke="black" stroke-linecap="round" stroke-linejoin="round"/>
<path d="M466.504 228.72V251.11" stroke="black" stroke-width="4" stroke-linecap="round" stroke-linejoin="round"/>
<path d="M491.466 233.765C491.332 233.775 491.197 233.775 491.063 233.765L447.283 229.769C446.415 229.663 445.634 229.303 445.104 228.764C444.573 228.225 444.334 227.55 444.437 226.879C444.539 226.207 444.975 225.593 445.653 225.163C446.331 224.733 447.199 224.522 448.075 224.573L491.856 228.57C492.738 228.625 493.558 228.943 494.14 229.457C494.721 229.971 495.018 230.639 494.967 231.319C494.916 231.999 494.522 232.637 493.867 233.096C493.213 233.555 492.351 233.799 491.466 233.775V233.765Z" fill="white" stroke="black" stroke-linecap="round" stroke-linejoin="round"/>
<path d="M491.661 232.937C492.83 232.937 493.778 232.078 493.778 231.018C493.778 229.959 492.83 229.1 491.661 229.1C490.492 229.1 489.544 229.959 489.544 231.018C489.544 232.078 490.492 232.937 491.661 232.937Z" fill="white" stroke="black" stroke-width="0.75" stroke-linecap="round" stroke-linejoin="round"/>
<path d="M451.906 327.392L478.154 337.334C478.305 337.385 478.469 337.412 478.634 337.412C478.8 337.412 478.964 337.385 479.115 337.334L494.869 332.848C495.094 332.784 495.289 332.67 495.429 332.52C495.569 332.371 495.649 332.193 495.657 332.009C495.665 331.824 495.602 331.642 495.476 331.486C495.349 331.329 495.165 331.205 494.947 331.129L470.348 322.367C470.097 322.277 469.813 322.256 469.543 322.307L452.166 325.654C451.923 325.697 451.704 325.798 451.539 325.941C451.373 326.084 451.269 326.263 451.24 326.453C451.212 326.643 451.26 326.836 451.38 327.004C451.499 327.172 451.683 327.308 451.906 327.392Z" fill="white" stroke="black" stroke-linecap="round" stroke-linejoin="round"/>
<path d="M472.79 330.7H467.595C466.415 330.697 465.283 330.335 464.449 329.693C463.614 329.051 463.144 328.181 463.14 327.273L459.88 254.037C459.88 253.213 460.306 252.423 461.063 251.84C461.821 251.258 462.848 250.93 463.919 250.93H469.959C471.03 250.93 472.057 251.258 472.815 251.84C473.572 252.423 473.998 253.213 473.998 254.037L477.258 327.273C477.258 327.724 477.142 328.17 476.917 328.586C476.693 329.003 476.363 329.381 475.948 329.699C475.533 330.018 475.041 330.27 474.499 330.442C473.957 330.613 473.376 330.701 472.79 330.7Z" fill="white" stroke="black" stroke-linecap="round" stroke-linejoin="round"/>
<path d="M485.544 328.162C481.594 331.016 477.427 333.685 473.063 336.155C467.868 338.873 467.413 338.513 468.595 340.321C469.777 342.13 473.297 343.219 483.193 341.59C493.089 339.962 496.375 338.693 501.791 336.335C507.207 333.977 508.843 333.977 507.441 332.528C506.038 331.08 485.544 328.162 485.544 328.162Z" fill="black" stroke="black" stroke-linecap="round" stroke-linejoin="round"/>
<path d="M501.791 336.315C507.194 333.957 508.843 333.957 507.441 332.508C507.069 332.242 506.625 332.04 506.142 331.919C498.965 335.182 491.365 337.861 483.466 339.912C473.336 342.26 468.4 339.542 468.4 339.542L468.283 339.692C468.386 339.89 468.503 340.084 468.634 340.272C469.803 342.08 473.336 343.169 483.232 341.54C493.128 339.912 496.375 338.673 501.791 336.315Z" fill="white" stroke="black" stroke-linecap="round" stroke-linejoin="round"/>
<path d="M522.766 183.38C521.082 180.544 519.591 177.642 518.298 174.688C514.35 176.136 502.285 183.909 502.285 183.909L512.882 194.95C512.882 194.95 502.765 206.18 498.051 212.524C494.586 216.853 490.301 220.759 485.336 224.114L473.764 224.004C473.253 224.253 472.823 224.589 472.506 224.985C472.188 225.382 471.992 225.829 471.933 226.292C471.933 227.691 469.881 232.616 470.79 233.495C471.699 234.375 477.193 234.545 477.193 234.545C477.193 234.545 486.102 235.254 487.7 233.495C487.7 233.495 484.959 231.208 485.18 230.158C485.401 229.109 488.154 228.4 488.154 228.4L491.141 228.23C491.141 228.23 492.167 228.78 493.025 225.233C495.336 224.054 503.739 219.718 508.181 216.301C513.376 212.304 528.662 199.096 529.831 196.558C531 194.02 525.831 188.635 522.766 183.38Z" fill="white" stroke="black" stroke-linecap="round" stroke-linejoin="round"/>
<path d="M521.675 181.452C519.376 177.305 518.298 174.688 518.298 174.688C514.35 176.136 502.284 183.909 502.284 183.909L507.323 189.155C512.965 187.694 517.945 185.021 521.675 181.452Z" fill="white" stroke="black" stroke-linecap="round" stroke-linejoin="round"/>
<path d="M489.102 170.341L501.583 187.326L508.882 183.52C513.004 181.17 516.654 178.365 519.714 175.197C514.645 169.02 508.98 163.145 502.765 157.623C492.868 148.93 488.167 148.391 483.933 148.571" fill="black"/>
<path d="M489.102 170.341L501.583 187.326L508.882 183.52C513.004 181.17 516.654 178.365 519.714 175.197C514.645 169.02 508.98 163.145 502.765 157.623C492.868 148.93 488.167 148.391 483.933 148.571" stroke="black" stroke-linecap="round" stroke-linejoin="round"/>
<path d="M458.685 229.299C458.685 228.59 454.789 221.217 454.789 221.217L443.1 216.271C438.282 208.818 430.879 196.888 429.606 194.79C428.657 193.334 427.866 191.82 427.243 190.264L429.23 187.007C426.213 186.492 423.265 185.763 420.424 184.829C418.229 184.069 415.97 183.18 414.086 182.401C413.047 185.458 411.268 190.724 411.943 193.341C412.619 195.959 427.983 210.926 435.659 218.489C435.659 218.489 438.867 228.95 440.243 230.528L441.62 232.107C441.62 232.107 443.893 234.045 445.036 233.865C446.017 233.628 446.942 233.27 447.776 232.806C448.588 233.011 449.449 233.072 450.295 232.986C451.41 232.617 452.416 232.08 453.257 231.408C453.257 231.408 454.4 232.407 457.153 231.937C459.906 231.468 458.685 229.999 458.685 229.299Z" fill="white" stroke="black" stroke-linecap="round" stroke-linejoin="round"/>
<path d="M412.658 186.747C417.063 189.042 422.134 190.469 427.425 190.903C427.256 190.514 427.191 190.314 427.191 190.314L429.178 187.057C426.162 186.542 423.214 185.813 420.373 184.879C418.178 184.119 415.918 183.23 414.035 182.451C413.619 183.61 413.048 185.148 412.658 186.747Z" fill="white" stroke="black" stroke-linecap="round" stroke-linejoin="round"/>
<path d="M244.21 234.705V228.59" stroke="black" stroke-width="6" stroke-linecap="round" stroke-linejoin="round"/>
<path d="M466.855 316.163L457.023 317.421C457.023 317.421 451.023 318.68 449.932 322.877C447.308 332.978 433.724 336.774 422.139 338.773C405.746 341.688 389.114 343.741 372.358 344.917C346.798 346.666 320.837 346.336 295.524 342.919C280.991 340.921 258.834 338.763 248.003 330.25C247.089 329.606 246.401 328.795 246.003 327.892C245.133 325.434 248.094 323.196 250.951 321.897C256.199 319.736 261.792 318.114 267.588 317.072C282.459 313.935 301.031 313.335 314.888 308.359C318.94 306.911 321.382 304.593 317.252 301.795C304.394 293.033 244.21 291.484 244.21 275.009V234.705" stroke="black" stroke-width="3" stroke-linecap="round" stroke-linejoin="round"/>
<path d="M430.814 139.479C430.35 137.585 429.537 135.751 428.399 134.034C426.788 131.926 422.359 128.529 421.554 125.312C420.749 122.095 426.957 118.318 426.957 118.318C426.957 118.318 423.567 118.318 424.36 117.199C425.152 116.08 429.035 116.579 429.035 116.579C428.772 115.997 428.707 115.372 428.848 114.765C428.989 114.158 429.331 113.589 429.84 113.112C431.607 111.504 432.256 114.601 432.256 114.601C434.159 111.602 437.115 109.072 440.789 107.298C446.581 104.69 456.893 108.297 458.023 110.515C459.153 112.733 456.426 111.973 456.426 111.973C456.426 111.973 470.27 116.799 471.231 123.963C472.192 131.127 464.153 129.908 464.153 129.908C464.153 129.908 464.634 134.124 463.504 135.613C462.374 137.101 461.893 137.611 456.257 134.124C450.62 130.637 439.035 131.896 438.386 134.623C437.737 137.351 435.789 141.427 432.918 140.938C430.048 140.448 430.814 139.479 430.814 139.479Z" fill="black" stroke="black" stroke-linecap="round" stroke-linejoin="round"/>
<path d="M438.776 123.163C438.776 123.163 433.204 119.467 439.282 118.697C445.361 117.928 447.62 126.281 453.945 128.029C457.852 129.043 462.12 128.835 465.829 127.45" stroke="white" stroke-width="0.5" stroke-linecap="round" stroke-linejoin="round"/>
<path d="M437.828 122.514C437.828 122.514 431.451 119.317 431.996 117.179C432.542 115.041 442.828 112.263 448.373 114.831C453.919 117.398 454.205 122.734 461.14 124.013C468.075 125.292 466.972 122.304 466.14 121.445" stroke="white" stroke-width="0.5" stroke-linecap="round" stroke-linejoin="round"/>
<path d="M425.619 126.151C424.502 125.082 424.23 121.025 428.671 120.386C433.113 119.747 436.724 123.383 436.724 123.383C435.88 123.803 430.892 124.872 430.061 128.079C429.23 131.286 433.386 131.276 431.451 134.074" stroke="white" stroke-width="0.5" stroke-linecap="round" stroke-linejoin="round"/>
<path d="M431.62 139.559C431.62 139.559 431.386 139.329 431.035 139.049C430.178 138.37 427.762 137.88 427.022 139.239C425.983 141.168 428.814 144.824 430.918 145.304C431.494 145.452 432.108 145.488 432.706 145.41C433.304 145.331 433.868 145.14 434.347 144.854C434.347 144.854 440.14 153.846 447.426 155.955C454.711 158.063 458.309 151.429 460.608 146.962C462.907 142.496 462.062 140.878 462.062 140.878C462.062 140.878 465.959 141.587 467.166 138.06C468.374 134.533 466.439 133.185 465.192 133.344C464.018 133.598 462.895 133.974 461.855 134.463L459.984 130.617C459.984 130.617 456.439 132.225 450.4 130.457C444.36 128.689 441.438 124.372 440.01 124.692C438.581 125.012 438.711 127.889 438.711 127.889C438.711 127.889 436.01 126.77 434.971 127.729C433.932 128.689 436.633 129.818 435.386 133.344C434.139 136.871 432.659 137.95 432.659 137.95C432.659 137.95 433.698 139.549 432.867 139.549L431.62 139.559Z" fill="white" stroke="black" stroke-linecap="round" stroke-linejoin="round"/>
<path d="M443.672 137.211C443.867 137.89 443.607 138.5 443.114 138.58C442.62 138.66 442.049 138.19 441.815 137.511C441.581 136.831 441.88 136.222 442.386 136.142C442.893 136.062 443.49 136.542 443.672 137.211Z" fill="black"/>
<path d="M453.659 136.332C453.659 137.021 453.296 137.601 452.776 137.611C452.257 137.621 451.828 137.071 451.802 136.382C451.776 135.692 452.153 135.123 452.672 135.113C453.192 135.103 453.62 135.642 453.659 136.332Z" fill="black"/>
<path d="M438.412 135.043C438.774 134.375 439.356 133.791 440.101 133.35C440.846 132.908 441.728 132.624 442.659 132.525" stroke="black" stroke-linecap="round" stroke-linejoin="round"/>
<path d="M450.906 132.066C451.84 131.893 452.819 131.933 453.723 132.181C454.627 132.43 455.418 132.876 455.997 133.464" stroke="black" stroke-linecap="round" stroke-linejoin="round"/>
<path d="M452.595 146.333C452.595 146.333 445.451 148.381 441.932 144.554" stroke="black" stroke-linecap="round" stroke-linejoin="round"/>
<path d="M444.218 146.243C444.218 146.243 444.465 149.97 447.01 150.719C449.556 151.469 450.763 146.723 450.763 146.723C448.563 146.973 446.317 146.808 444.218 146.243Z" fill="black" stroke="black" stroke-linecap="round" stroke-linejoin="round"/>
<path d="M444.802 148.511C444.945 148.98 445.217 149.42 445.6 149.801C445.983 150.182 446.468 150.495 447.023 150.719C448.322 151.109 449.322 149.98 449.945 148.821C448.306 148.338 446.519 148.23 444.802 148.511Z" fill="white" stroke="black" stroke-linecap="round" stroke-linejoin="round"/>
<path d="M450.542 133.364C449.779 135.369 449.734 137.496 450.413 139.519C451.633 142.416 453.452 142.516 452.724 142.876C451.997 143.236 448.828 143.715 448.114 143.256" fill="white"/>
<path d="M450.542 133.364C449.779 135.369 449.734 137.496 450.413 139.519C451.633 142.416 453.452 142.516 452.724 142.876C451.997 143.236 448.828 143.715 448.114 143.256" stroke="black" stroke-linecap="round" stroke-linejoin="round"/>
<path d="M480.128 237.362C480.128 237.362 466.738 261.981 466.296 267.416C465.855 272.851 486.037 319.29 486.505 321.288C486.972 323.286 483.219 322.917 483.219 324.905C483.267 326.283 483.664 327.64 484.388 328.901C484.622 329.441 503.22 333.787 506.285 333.967C509.35 334.147 510.753 333.607 510.753 331.969C510.753 330.33 509.35 325.265 509.35 324.725C509.35 324.186 513.116 320.729 511.701 315.853C510.285 310.977 497.116 280.095 495.466 276.827C493.817 273.56 491.934 270.133 491.934 270.133C492.658 269.318 493.141 268.39 493.349 267.416C493.492 266.573 493.492 265.72 493.349 264.878C493.349 264.878 513.753 239.73 513.779 231.907" fill="white"/>
<path d="M480.128 237.362C480.128 237.362 466.738 261.981 466.296 267.416C465.855 272.851 486.037 319.29 486.505 321.288C486.972 323.286 483.219 322.917 483.219 324.905C483.267 326.283 483.664 327.64 484.388 328.901C484.622 329.441 503.22 333.787 506.285 333.967C509.35 334.147 510.753 333.607 510.753 331.969C510.753 330.33 509.35 325.265 509.35 324.725C509.35 324.186 513.116 320.729 511.701 315.853C510.285 310.977 497.116 280.095 495.466 276.828C493.817 273.56 491.934 270.133 491.934 270.133C492.658 269.318 493.141 268.39 493.349 267.416C493.492 266.573 493.492 265.72 493.349 264.878C493.349 264.878 513.753 239.73 513.779 231.907" stroke="black" stroke-linecap="round" stroke-linejoin="round"/>
<path d="M494.414 289.426C499.739 302.275 506.025 317.571 506.466 319.849C507.246 323.846 505.687 324.665 506.207 326.663C506.726 328.662 507.765 331.469 507.765 331.469" stroke="black" stroke-width="0.75" stroke-linecap="round" stroke-linejoin="round"/>
<path d="M506.194 234.864C502.142 242.468 494.687 256.495 493.206 259.383C491.115 263.379 487.466 266.596 488.258 266.996C489.05 267.396 491.115 267.395 489.557 268.794C487.998 270.193 486.959 270.603 486.959 271.202C486.959 271.412 489.349 277.147 492.44 284.61" stroke="black" stroke-width="0.75" stroke-linecap="round" stroke-linejoin="round"/>
<path d="M508.804 229.919L507.505 232.427" stroke="black" stroke-width="0.75" stroke-linecap="round" stroke-linejoin="round"/>
<path d="M473.803 234.036C473.803 234.036 474.556 227.611 475.322 226.832" stroke="black" stroke-width="0.75" stroke-linecap="round" stroke-linejoin="round"/>
<path d="M479.881 226.872C479.881 226.872 476.53 235.134 477.193 234.605" stroke="black" stroke-width="0.75" stroke-linecap="round" stroke-linejoin="round"/>
<path d="M482.414 227.411L480.894 233.646C480.894 233.646 480.634 234.235 482.92 234.425" stroke="black" stroke-width="0.75" stroke-linecap="round" stroke-linejoin="round"/>
<path d="M453.205 231.408L451.776 230.139" stroke="black" stroke-width="0.75" stroke-linecap="round" stroke-linejoin="round"/>
<path d="M447.724 232.807L446.451 232.087" stroke="black" stroke-width="0.75" stroke-linecap="round" stroke-linejoin="round"/>
<path d="M444.984 233.865L443.165 231.697" stroke="black" stroke-width="0.75" stroke-linecap="round" stroke-linejoin="round"/>
<path d="M366.293 208.557C374.438 201.766 381.577 194.3 387.579 186.297" stroke="black" stroke-linecap="round" stroke-linejoin="round"/>
<path d="M261.094 248.053C298.528 245.72 333.713 233.363 360.526 213.134" stroke="black" stroke-linecap="round" stroke-linejoin="round"/>
<path d="M224.002 247.124C229.211 247.726 234.456 248.126 239.717 248.322" stroke="black" stroke-linecap="round" stroke-linejoin="round"/>
<path d="M174.87 232.866C178.204 234.198 181.585 235.441 185.014 236.593" stroke="black" stroke-linecap="round" stroke-linejoin="round"/>
<path d="M89.0364 134.073C91.327 153.501 99.5316 172.24 112.986 188.775C126.44 205.31 144.766 219.175 166.481 229.249" stroke="black" stroke-linecap="round" stroke-linejoin="round"/>
<path d="M338.604 23.0516C315.674 10.852 289.028 3.42784 261.262 1.50187C233.495 -0.424101 205.553 3.21379 180.156 12.0613" stroke="black" stroke-linecap="round" stroke-linejoin="round"/>
<path d="M395.436 74.556C393.835 71.7585 392.103 69.0209 390.241 66.3433" stroke="black" stroke-linecap="round" stroke-linejoin="round"/>
<path d="M333.279 210.686C341.969 205.72 349.91 200.023 356.955 193.701" stroke="black" stroke-linecap="round" stroke-linejoin="round"/>
<path d="M231.457 232.257C265.156 234.974 299.027 228.514 327.175 214.003" stroke="black" stroke-linecap="round" stroke-linejoin="round"/>
<path d="M198.754 226.692C203.205 227.871 207.763 228.893 212.43 229.759" stroke="black" stroke-linecap="round" stroke-linejoin="round"/>
<path d="M107.115 153.126C108.093 155.624 109.18 158.089 110.375 160.52" stroke="black" stroke-linecap="round" stroke-linejoin="round"/>
<path d="M135.96 48.249C121.097 61.6268 110.537 77.5088 105.136 94.6095C99.7341 111.71 99.6424 129.549 104.868 146.682" stroke="black" stroke-linecap="round" stroke-linejoin="round"/>
<path d="M307.706 19.555C284.883 11.4187 259.708 7.97046 234.637 9.54635C209.566 11.1222 185.453 17.6685 164.649 28.547" stroke="black" stroke-linecap="round" stroke-linejoin="round"/>
<path d="M381.761 80.1209C369.839 56.8333 348.144 37.2777 320.123 24.5601" stroke="black" stroke-linecap="round" stroke-linejoin="round"/>
<path d="M388.034 95.587C387.228 92.8994 386.28 90.2517 385.215 87.644" stroke="black" stroke-linecap="round" stroke-linejoin="round"/>
<path d="M382.06 122.174C382.06 120.855 383.592 119.516 383.527 118.177C383.462 116.838 381.8 115.609 381.683 114.311C381.566 113.012 382.982 111.573 382.774 110.314C382.566 109.055 380.8 107.856 380.553 106.557C380.307 105.259 381.566 103.76 381.242 102.471C380.917 101.182 379.047 100.133 378.644 98.8543C378.242 97.5754 379.371 96.0068 378.943 94.7379C378.514 93.469 376.514 92.5399 376.008 91.281C375.501 90.0221 376.462 88.3935 375.904 87.1646C375.345 85.9357 373.306 85.1064 372.644 83.8875C371.982 82.6686 372.813 80.9801 372.137 79.7811C371.462 78.5822 369.306 77.8828 368.566 76.7039C367.826 75.5249 368.449 73.7964 367.657 72.6375C366.864 71.4785 364.657 70.919 363.76 69.78C362.864 68.641 363.371 66.8925 362.462 65.7835C361.553 64.6745 359.293 64.2349 358.332 63.1558C357.371 62.0768 357.656 60.2984 356.643 59.2393C355.63 58.1802 353.344 57.8805 352.28 56.8514C351.215 55.8223 351.331 54.0439 350.215 53.0448C349.098 52.0457 346.786 51.8758 345.63 50.9167C344.474 49.9575 344.409 48.1691 343.201 47.2399C341.993 46.3107 339.669 46.2408 338.422 45.3716C337.175 44.5023 336.941 42.7039 335.656 41.8447C334.37 40.9854 332.032 41.0754 330.707 40.2561C329.383 39.4368 328.967 37.6784 327.603 36.8991C326.24 36.1198 323.928 36.3396 322.512 35.6002C321.097 34.8609 320.538 33.1224 319.084 32.423C317.629 31.7236 315.369 32.0833 313.889 31.4239C312.408 30.7645 311.681 29.076 310.174 28.4265C308.668 27.7771 306.421 28.2967 304.888 27.7272C303.356 27.1577 302.46 25.5091 300.888 24.9796C299.317 24.4501 297.148 25.0695 295.55 24.5899C293.953 24.1104 292.953 22.5218 291.29 22.0822C289.628 21.6425 287.576 22.3919 285.94 22.0022C284.303 21.6126 283.095 20.0939 281.446 19.7542C279.796 19.4145 277.77 20.2738 276.095 19.974C274.42 19.6743 273.082 18.2356 271.394 17.9758C269.705 17.716 267.783 18.7051 266.082 18.5053C264.38 18.3055 262.913 16.9467 261.211 16.7968C259.51 16.647 257.666 17.736 256.016 17.6361C254.367 17.5362 252.692 16.2673 250.977 16.2174C249.263 16.1674 247.549 17.3563 245.782 17.3563C244.016 17.3563 242.341 16.1674 240.587 16.2174C238.834 16.2673 237.25 17.5462 235.548 17.6361C233.847 17.726 232.003 16.637 230.353 16.7968C228.704 16.9567 227.158 18.3155 225.483 18.5053C223.807 18.6952 221.846 17.726 220.171 17.9758C218.496 18.2256 217.132 19.6643 215.47 19.974C213.807 20.2838 211.768 19.4145 210.119 19.7542C208.469 20.0939 207.248 21.6126 205.625 22.0022C204.002 22.3919 201.872 21.6525 200.261 22.0822C198.651 22.5118 197.664 24.0804 196.014 24.5899C194.365 25.0995 192.235 24.4601 190.676 24.9796C189.118 25.4991 188.209 27.1577 186.676 27.7272C185.144 28.2967 182.897 27.8171 181.39 28.4265C179.884 29.036 179.144 30.7345 177.676 31.4239C176.208 32.1133 173.91 31.7336 172.481 32.423C171.052 33.1124 170.468 34.8509 169.065 35.5902C167.663 36.3296 165.351 36.1098 163.974 36.8891C162.598 37.6684 162.208 39.4268 160.87 40.2561C159.532 41.0854 157.221 40.9755 155.922 41.8347C154.623 42.6939 154.402 44.4724 153.156 45.3616C151.909 46.2508 149.584 46.3007 148.376 47.2299C147.168 48.1591 147.078 49.9475 145.948 50.9067C144.818 51.8658 142.519 52.0257 141.402 53.0248C140.285 54.0239 140.402 55.8023 139.337 56.8314C138.272 57.8605 135.986 58.1603 134.973 59.2193C133.96 60.2784 134.246 62.0468 133.285 63.1259C132.324 64.2049 130.064 64.6445 129.155 65.7635C128.246 66.8826 128.713 68.621 127.856 69.76C126.999 70.899 124.791 71.4585 123.96 72.6275C123.129 73.7964 123.791 75.5049 123.051 76.6839C122.31 77.8628 120.167 78.5622 119.479 79.7612C118.791 80.9601 119.596 82.6386 118.973 83.8675C118.349 85.0964 116.271 85.8658 115.713 87.1446C115.154 88.4235 116.102 90.0021 115.609 91.261C115.115 92.5199 113.115 93.4491 112.674 94.7179C112.232 95.9868 113.349 97.5554 112.972 98.8343C112.596 100.113 110.713 101.152 110.375 102.451C110.037 103.75 111.336 105.239 111.076 106.537C110.816 107.836 109.05 108.975 108.855 110.294C108.661 111.613 110.076 113.012 109.946 114.291C109.816 115.57 108.154 116.838 108.102 118.157C108.05 119.476 109.57 120.805 109.57 122.154C109.57 123.502 108.037 124.801 108.102 126.15C108.167 127.499 109.829 128.718 109.946 130.027C110.063 131.336 108.648 132.754 108.855 134.023C109.063 135.292 110.829 136.481 111.076 137.77C111.323 139.059 110.063 140.577 110.375 141.866C110.687 143.155 112.583 144.194 112.972 145.473C113.362 146.752 112.232 148.331 112.674 149.589C113.115 150.848 115.102 151.797 115.609 153.046C116.115 154.295 115.154 155.934 115.713 157.173C116.271 158.412 118.31 159.221 118.973 160.45C119.635 161.679 118.804 163.347 119.479 164.546C120.154 165.745 122.31 166.445 123.051 167.623C123.791 168.802 123.155 170.531 123.96 171.69C124.765 172.849 126.96 173.418 127.856 174.557C128.752 175.696 128.246 177.445 129.155 178.554C130.064 179.663 132.324 180.102 133.285 181.181C134.246 182.261 133.96 184.039 134.973 185.098C135.986 186.157 138.272 186.457 139.337 187.486C140.402 188.515 140.285 190.303 141.402 191.293C142.519 192.282 144.831 192.462 145.987 193.431C147.142 194.4 147.207 196.178 148.415 197.107C149.623 198.037 151.948 198.107 153.195 198.966C154.441 199.825 154.675 201.643 155.961 202.493C157.247 203.342 159.571 203.262 160.909 204.081C162.247 204.901 162.649 206.659 164.013 207.438C165.377 208.218 167.689 207.998 169.104 208.737C170.52 209.476 171.078 211.215 172.533 211.914C173.988 212.614 176.247 212.254 177.728 212.913C179.209 213.573 179.936 215.271 181.442 215.911C182.949 216.55 185.183 216.041 186.728 216.61C188.274 217.18 189.157 218.828 190.728 219.358C192.3 219.887 194.469 219.268 196.066 219.747C197.664 220.227 198.664 221.826 200.326 222.255C201.989 222.685 204.041 221.955 205.677 222.335C207.313 222.715 208.521 224.253 210.171 224.593C211.82 224.933 213.846 224.074 215.521 224.363C217.197 224.653 218.535 226.102 220.223 226.362C221.911 226.621 223.833 225.622 225.535 225.822C227.236 226.022 228.704 227.381 230.405 227.531C232.106 227.68 233.951 226.591 235.6 226.691C237.25 226.791 238.925 228.07 240.639 228.12C242.354 228.17 244.068 226.981 245.834 226.981C247.601 226.981 249.289 228.16 251.029 228.12C252.77 228.08 254.367 226.791 256.055 226.691C257.744 226.591 259.614 227.69 261.25 227.531C262.887 227.371 264.445 226.012 266.134 225.822C267.822 225.632 269.77 226.601 271.446 226.362C273.121 226.122 274.485 224.663 276.147 224.363C277.809 224.064 279.848 224.933 281.498 224.593C283.147 224.253 284.368 222.725 285.992 222.335C287.615 221.945 289.745 222.685 291.355 222.255C292.966 221.826 294.018 220.257 295.602 219.747C297.187 219.238 299.382 219.887 300.94 219.358C302.499 218.828 303.408 217.18 304.94 216.61C306.473 216.041 308.72 216.53 310.226 215.911C311.733 215.291 312.473 213.603 313.941 212.913C315.408 212.224 317.694 212.614 319.136 211.914C320.577 211.215 321.149 209.476 322.551 208.737C323.954 207.998 326.266 208.218 327.642 207.438C329.019 206.659 329.409 204.901 330.746 204.081C332.084 203.262 334.396 203.352 335.695 202.493C336.993 201.633 337.214 199.855 338.461 198.966C339.708 198.077 342.032 198.027 343.24 197.097C344.448 196.168 344.539 194.39 345.669 193.421C346.799 192.452 349.137 192.282 350.253 191.293C351.37 190.303 351.254 188.515 352.318 187.486C353.383 186.457 355.669 186.157 356.682 185.098C357.695 184.039 357.41 182.271 358.371 181.181C359.332 180.092 361.592 179.663 362.501 178.554C363.41 177.445 362.942 175.686 363.799 174.557C364.657 173.428 366.851 172.859 367.696 171.7C368.54 170.541 367.865 168.822 368.605 167.633C369.345 166.445 371.488 165.765 372.176 164.556C372.865 163.347 372.059 161.679 372.683 160.45C373.306 159.221 375.371 158.452 375.943 157.183C376.514 155.914 375.54 154.315 376.047 153.056C376.553 151.797 378.54 150.878 378.982 149.599C379.423 148.321 378.306 146.772 378.683 145.483C379.06 144.194 380.943 143.165 381.281 141.876C381.618 140.587 380.332 139.089 380.592 137.78C380.852 136.471 382.618 135.342 382.813 134.033C383.008 132.724 381.592 131.306 381.722 130.037C381.852 128.768 383.501 127.479 383.566 126.16C383.631 124.841 382.06 123.493 382.06 122.174Z" fill="white" stroke="black" stroke-width="2" stroke-linecap="round" stroke-linejoin="round"/>
<path d="M205.041 22.4121L207.443 27.5875" stroke="black" stroke-width="2" stroke-linecap="round" stroke-linejoin="round"/>
<path d="M195.897 25.1899L198.066 29.2563" stroke="black" stroke-width="2" stroke-linecap="round" stroke-linejoin="round"/>
<path d="M363.241 69.9502C359.311 72.5424 354.841 74.6062 350.02 76.0548" stroke="black" stroke-width="2" stroke-linecap="round" stroke-linejoin="round"/>
<path d="M368.046 76.7939C366.256 77.6652 364.41 78.4656 362.513 79.1918" stroke="black" stroke-width="2" stroke-linecap="round" stroke-linejoin="round"/>
<path d="M168.494 208.887C168.494 208.887 174.26 203.892 175.221 200.195" stroke="black" stroke-width="2" stroke-linecap="round" stroke-linejoin="round"/>
<path d="M152.376 198.677C152.376 198.677 157.195 194.061 158.156 193.321" stroke="black" stroke-width="2" stroke-linecap="round" stroke-linejoin="round"/>
<path d="M275.965 223.834L274.043 215.702" stroke="black" stroke-width="2" stroke-linecap="round" stroke-linejoin="round"/>
<path d="M286.537 222.176L285.095 217.55" stroke="black" stroke-width="2" stroke-linecap="round" stroke-linejoin="round"/>
<path d="M330.539 203.862L322.369 196.828" stroke="black" stroke-width="2" stroke-linecap="round" stroke-linejoin="round"/>
<path d="M369.007 167.604L356.747 162.618" stroke="black" stroke-width="2" stroke-linecap="round" stroke-linejoin="round"/>
<path d="M110.544 122.294L120.882 122.474" stroke="black" stroke-width="2" stroke-linecap="round" stroke-linejoin="round"/>
<path d="M125.207 122.664L130.259 122.843" stroke="black" stroke-width="2" stroke-linecap="round" stroke-linejoin="round"/>
<path d="M123.765 168.163C124.972 167.794 132.856 166.165 132.856 166.165" stroke="black" stroke-width="2" stroke-linecap="round" stroke-linejoin="round"/>
<path d="M276.043 20.1343C275.316 21.2533 273.861 27.6976 273.861 27.6976" stroke="black" stroke-width="2" stroke-linecap="round" stroke-linejoin="round"/>
<path d="M285.498 22.6519L284.407 26.8581" stroke="black" stroke-width="2" stroke-linecap="round" stroke-linejoin="round"/>
<path d="M322.979 36.3696L320.07 39.1672" stroke="black" stroke-width="2" stroke-linecap="round" stroke-linejoin="round"/>
<path d="M133.038 63.2461L140.311 66.3234" stroke="black" stroke-width="2" stroke-linecap="round" stroke-linejoin="round"/>
<path d="M144.688 68.002L150.506 70.5197" stroke="black" stroke-width="2" stroke-linecap="round" stroke-linejoin="round"/>
<path d="M284.329 91.631C284.329 91.631 282.108 88.9834 270.887 83.5382C259.666 78.093 230.626 72.9176 219.184 68.1618C207.742 63.2561 194.988 54.0043 190.533 49.5582C186.079 45.1121 186.767 41.7551 183.182 41.4854C179.598 41.2156 176.013 42.4845 173.52 48.2594C171.026 54.0343 174.078 68.5015 176.117 72.9475C178.156 77.3936 184.144 80.2111 187.949 81.3901C191.754 82.569 200.261 85.6763 200.248 88.4638C200.235 91.2514 199.78 91.8009 198.209 92.0107C196.638 92.2205 162.091 96.157 156.766 97.346C151.441 98.5349 149.142 105.998 150.662 111.883C152.181 117.768 158.208 119.616 156.389 123.793C154.571 127.969 151.441 132.865 154.532 138.41C157.623 143.955 163.429 143.096 161.169 147.402C158.909 151.708 158.883 156.743 161.766 159.981C164.649 163.218 168.455 165.316 168.429 169.242C168.403 173.169 177.312 181.811 182.91 183.04C185.676 183.68 210.794 185.798 235.249 185.988C259.692 186.467 283.472 184.988 283.433 184.988C283.727 153.849 284.026 122.73 284.329 91.631Z" fill="white" stroke="black" stroke-width="3" stroke-linecap="round" stroke-linejoin="round"/>
<path d="M333.136 182.071C318.59 183.763 303.992 185.008 289.342 185.808C288.395 185.84 287.449 185.718 286.567 185.451C285.685 185.184 284.885 184.778 284.22 184.258C283.555 183.738 283.04 183.116 282.707 182.433C282.375 181.75 282.233 181.021 282.29 180.293C282.437 152.177 282.584 124.076 282.732 95.9871C282.695 95.2488 282.852 94.5123 283.192 93.8214C283.533 93.1305 284.05 92.4994 284.714 91.9654C285.378 91.4314 286.175 91.0054 287.057 90.7128C287.939 90.4203 288.888 90.267 289.849 90.2622C304.499 90.5819 319.096 91.0382 333.642 91.631C335.538 91.7343 337.312 92.3847 338.61 93.4519C339.908 94.5192 340.634 95.9243 340.643 97.3859C340.487 123.489 340.335 149.613 340.188 175.757C340.131 177.271 339.399 178.725 338.115 179.874C336.832 181.024 335.074 181.799 333.136 182.071Z" fill="black" stroke="black" stroke-width="3" stroke-linecap="round" stroke-linejoin="round"/>
<path d="M300.615 175.747C300.651 175.198 300.536 174.65 300.279 174.137C300.022 173.625 299.628 173.16 299.122 172.772C298.617 172.384 298.011 172.082 297.344 171.885C296.677 171.688 295.964 171.602 295.251 171.63C293.749 171.755 292.361 172.306 291.359 173.177C290.357 174.047 289.814 175.174 289.836 176.336C289.792 176.888 289.901 177.44 290.155 177.957C290.409 178.473 290.802 178.943 291.309 179.335C291.815 179.726 292.424 180.031 293.095 180.229C293.765 180.427 294.482 180.513 295.199 180.483C296.7 180.341 298.08 179.78 299.078 178.907C300.076 178.034 300.623 176.909 300.615 175.747Z" fill="white" stroke="black" stroke-width="3" stroke-linecap="round" stroke-linejoin="round"/>
<path d="M283.875 41.7153C298.131 41.7154 309.453 50.5879 309.453 61.2778C309.452 71.9676 298.131 80.8402 283.875 80.8403C269.618 80.8403 258.296 71.9677 258.295 61.2778C258.295 50.5879 269.618 41.7153 283.875 41.7153Z" fill="white" stroke="black"/>
<path d="M314.525 80.7425C318.09 78.0002 323.87 78.0002 327.434 80.7425C330.999 83.4849 330.999 87.9311 327.434 90.6735C323.87 93.4158 318.09 93.4158 314.525 90.6735C310.961 87.9311 310.961 83.4849 314.525 80.7425Z" fill="white" stroke="black"/>
<path opacity="0.2" d="M373.993 99.9443L373.996 99.9551C374.113 100.351 374.34 100.702 374.586 101.009C374.832 101.315 375.123 101.611 375.387 101.883C375.66 102.164 375.907 102.423 376.105 102.686C376.302 102.947 376.429 103.185 376.482 103.413C376.593 103.893 376.429 104.439 376.183 105.15C376.068 105.483 375.938 105.851 375.855 106.216C375.771 106.584 375.727 106.984 375.802 107.389C375.878 107.793 376.069 108.162 376.284 108.488C376.498 108.814 376.759 109.132 376.997 109.423C377.241 109.723 377.463 109.997 377.635 110.27C377.808 110.541 377.911 110.778 377.942 110.995C378.008 111.452 377.796 111.971 377.48 112.665C377.333 112.987 377.168 113.344 377.05 113.701C376.932 114.061 376.848 114.457 376.886 114.866C376.924 115.275 377.079 115.655 377.262 115.994C377.444 116.332 377.674 116.664 377.88 116.967C378.094 117.279 378.286 117.564 378.43 117.844C378.574 118.122 378.653 118.364 378.665 118.583C378.676 118.799 378.621 119.041 378.505 119.324C378.389 119.61 378.224 119.904 378.04 120.229C377.861 120.542 377.661 120.888 377.509 121.238C377.357 121.59 377.235 121.98 377.235 122.394C377.235 122.806 377.355 123.195 377.507 123.546C377.658 123.894 377.857 124.239 378.035 124.551C378.418 125.223 378.684 125.731 378.665 126.2C378.656 126.42 378.578 126.66 378.437 126.936C378.295 127.213 378.105 127.495 377.891 127.806C377.685 128.106 377.455 128.437 377.271 128.774C377.086 129.114 376.929 129.494 376.887 129.906C376.845 130.321 376.926 130.722 377.044 131.085C377.162 131.445 377.327 131.803 377.475 132.126C377.794 132.822 378.008 133.336 377.942 133.792C377.911 134.008 377.809 134.242 377.638 134.508C377.467 134.775 377.248 135.044 377.003 135.341C376.547 135.896 375.954 136.591 375.802 137.397C375.649 138.21 375.958 139.034 376.184 139.677C376.435 140.392 376.596 140.913 376.484 141.365C376.429 141.585 376.301 141.818 376.103 142.078C375.904 142.339 375.658 142.597 375.386 142.88C375.122 143.154 374.833 143.452 374.587 143.764C374.341 144.076 374.116 144.431 373.997 144.83C373.761 145.617 373.99 146.455 374.153 147.104C374.334 147.827 374.445 148.358 374.289 148.806C374.212 149.025 374.061 149.253 373.835 149.503C373.61 149.753 373.337 149.998 373.038 150.265C372.746 150.524 372.428 150.804 372.154 151.1C371.879 151.395 371.621 151.733 371.465 152.121C371.158 152.886 371.305 153.74 371.403 154.401C371.512 155.137 371.57 155.668 371.373 156.092C371.275 156.302 371.099 156.519 370.848 156.756C370.597 156.992 370.299 157.223 369.974 157.473C369.362 157.943 368.603 158.514 368.236 159.247C367.861 159.996 367.923 160.841 367.957 161.506C367.994 162.231 368.002 162.775 367.752 163.224C367.629 163.444 367.428 163.663 367.152 163.892C366.876 164.12 366.554 164.338 366.206 164.568C365.866 164.794 365.498 165.034 365.172 165.291C364.847 165.548 364.533 165.845 364.311 166.199C363.872 166.9 363.847 167.746 363.813 168.41C363.776 169.136 363.729 169.684 363.439 170.108C363.135 170.553 362.534 170.913 361.776 171.342C361.08 171.735 360.234 172.195 359.73 172.841C359.208 173.51 359.09 174.345 358.986 175.012C358.873 175.732 358.773 176.283 358.436 176.701C358.086 177.136 357.443 177.465 356.645 177.851C355.911 178.205 355.027 178.615 354.478 179.23C353.913 179.865 353.729 180.686 353.567 181.343C353.393 182.049 353.241 182.595 352.856 182.992C352.451 183.41 351.765 183.701 350.931 184.038C350.16 184.35 349.244 184.706 348.645 185.289C348.032 185.886 347.772 186.686 347.547 187.333C347.308 188.023 347.101 188.568 346.672 188.953C346.226 189.354 345.506 189.61 344.642 189.899C343.839 190.168 342.892 190.47 342.246 191.008C341.583 191.559 341.248 192.337 340.96 192.971C340.655 193.644 340.393 194.181 339.922 194.543C339.432 194.92 338.685 195.136 337.799 195.376C336.972 195.6 336.007 195.848 335.314 196.341C334.603 196.847 334.195 197.598 333.845 198.217C333.475 198.872 333.16 199.4 332.652 199.738C332.126 200.088 331.357 200.259 330.453 200.444C329.605 200.618 328.621 200.807 327.887 201.258C327.138 201.718 326.662 202.438 326.251 203.036C325.819 203.667 325.448 204.183 324.9 204.497C324.336 204.82 323.551 204.949 322.636 205.084C321.774 205.211 320.782 205.344 320.009 205.746C319.221 206.156 318.677 206.835 318.207 207.41C317.712 208.013 317.288 208.516 316.703 208.811C316.108 209.11 315.31 209.199 314.383 209.285C313.508 209.366 312.505 209.444 311.7 209.799C310.878 210.161 310.274 210.811 309.75 211.359C309.201 211.935 308.729 212.412 308.117 212.66C307.49 212.914 306.691 212.945 305.763 212.97C304.883 212.993 303.88 213.009 303.027 213.323C302.161 213.642 301.503 214.252 300.927 214.769C300.327 215.308 299.805 215.758 299.147 215.976C298.47 216.199 297.641 216.195 296.708 216.174C295.821 216.153 294.823 216.115 293.976 216.349C293.103 216.59 292.388 217.159 291.763 217.645C291.107 218.154 290.535 218.585 289.863 218.765C289.178 218.948 288.364 218.886 287.438 218.805C286.557 218.727 285.561 218.629 284.679 218.842C283.792 219.056 283.034 219.576 282.366 220.02C281.668 220.483 281.054 220.874 280.359 221.017C279.655 221.161 278.845 221.054 277.929 220.92C277.056 220.792 276.071 220.637 275.177 220.794C274.275 220.952 273.481 221.426 272.778 221.83C272.044 222.251 271.391 222.609 270.664 222.709C269.925 222.81 269.118 222.655 268.215 222.47C267.352 222.292 266.386 222.082 265.478 222.188C264.57 222.295 263.725 222.701 262.97 223.058C262.184 223.429 261.486 223.753 260.764 223.837C260.059 223.919 259.295 223.726 258.422 223.484C257.591 223.254 256.646 222.975 255.729 223.025C254.811 223.076 253.927 223.45 253.144 223.77C252.325 224.104 251.605 224.386 250.887 224.403C250.166 224.421 249.416 224.18 248.565 223.895C247.751 223.622 246.835 223.304 245.913 223.304C244.989 223.304 244.078 223.625 243.27 223.898C242.425 224.185 241.679 224.425 240.953 224.403C240.227 224.381 239.505 224.099 238.689 223.766C238.005 223.487 237.245 223.168 236.451 223.059L236.108 223.025L235.765 223.019C234.974 223.033 234.244 223.234 233.585 223.409C232.81 223.615 232.128 223.787 231.409 223.726C230.697 223.665 230.01 223.346 229.226 222.968C228.475 222.606 227.627 222.185 226.709 222.078C225.794 221.972 224.831 222.185 223.979 222.364C223.086 222.552 222.303 222.704 221.595 222.6C220.892 222.496 220.244 222.138 219.501 221.716C218.789 221.311 217.98 220.841 217.06 220.684C216.148 220.528 215.163 220.683 214.292 220.811C213.378 220.944 212.579 221.05 211.882 220.906C211.194 220.764 210.588 220.372 209.89 219.906C209.221 219.46 208.46 218.94 207.556 218.73C206.665 218.524 205.659 218.622 204.774 218.698C203.843 218.779 203.038 218.838 202.381 218.656C201.732 218.477 201.176 218.057 200.519 217.552C199.891 217.068 199.17 216.507 198.274 216.241H198.273C197.388 215.979 196.389 216.019 195.504 216.046C194.577 216.074 193.767 216.088 193.093 215.866C192.432 215.648 191.9 215.197 191.295 214.661C190.717 214.149 190.06 213.544 189.217 213.226C188.382 212.91 187.374 212.892 186.492 212.868C185.559 212.843 184.753 212.809 184.126 212.551C183.511 212.297 183.039 211.827 182.495 211.26C181.974 210.717 181.378 210.075 180.564 209.693C179.754 209.314 178.75 209.231 177.874 209.152C176.945 209.069 176.146 208.989 175.543 208.697C174.957 208.413 174.534 207.916 174.042 207.312C173.575 206.738 173.035 206.053 172.247 205.638C171.473 205.23 170.48 205.094 169.617 204.967C168.7 204.832 167.915 204.705 167.35 204.386C166.805 204.077 166.439 203.564 166.007 202.931C165.598 202.33 165.122 201.607 164.364 201.146C163.624 200.697 162.646 200.509 161.8 200.335C160.9 200.15 160.134 199.978 159.6 199.627C159.085 199.288 158.767 198.762 158.396 198.109C158.045 197.492 157.637 196.742 156.928 196.232C156.234 195.733 155.271 195.487 154.446 195.267C153.563 195.031 152.82 194.82 152.331 194.443C151.859 194.081 151.595 193.541 151.286 192.864C150.995 192.228 150.657 191.449 149.995 190.898C149.348 190.36 148.404 190.06 147.604 189.794C146.743 189.507 146.027 189.254 145.581 188.853C145.152 188.467 144.945 187.924 144.706 187.233C144.481 186.587 144.221 185.787 143.608 185.189C143.009 184.606 142.091 184.252 141.321 183.941C140.488 183.606 139.803 183.315 139.399 182.894C139.012 182.49 138.856 181.939 138.681 181.233C138.518 180.577 138.334 179.756 137.778 179.123C137.236 178.506 136.358 178.094 135.622 177.737C134.824 177.351 134.168 177.02 133.795 176.582C133.446 176.171 133.337 175.624 133.225 174.911C133.122 174.253 133.014 173.418 132.517 172.75C132.265 172.412 131.926 172.135 131.578 171.897C131.229 171.66 130.841 171.442 130.479 171.237C130.109 171.028 129.765 170.832 129.467 170.622C129.169 170.412 128.945 170.209 128.801 169.999C128.512 169.577 128.47 169.035 128.438 168.311C128.409 167.646 128.389 166.801 127.942 166.089C127.717 165.731 127.402 165.432 127.076 165.173C126.749 164.914 126.382 164.674 126.042 164.45C125.695 164.22 125.373 164.006 125.099 163.779C124.825 163.553 124.624 163.335 124.5 163.114C124.248 162.661 124.245 162.094 124.273 161.367C124.299 160.705 124.359 159.862 124.023 159.148C123.847 158.774 123.563 158.455 123.265 158.181C122.967 157.905 122.62 157.646 122.301 157.403C121.973 157.154 121.67 156.921 121.416 156.681C121.16 156.439 120.982 156.216 120.883 155.998C120.681 155.551 120.742 155.008 120.85 154.279C120.948 153.622 121.095 152.775 120.787 152.019C120.631 151.636 120.373 151.302 120.099 151.008C119.825 150.714 119.507 150.434 119.216 150.174C118.917 149.907 118.644 149.658 118.418 149.406C118.195 149.156 118.043 148.929 117.966 148.711C117.962 148.697 117.959 148.683 117.955 148.669C169.934 154.823 282.869 159.19 373.974 99.8623L373.993 99.9443Z" fill="black" stroke="black"/>
</svg>
