<svg width="20" height="20" viewBox="0 0 20 20" fill="none" xmlns="http://www.w3.org/2000/svg">
<path d="M15.8333 0H4.16667C1.86667 0 0 2.03544 0 4.54339V13.6302C0 16.1381 1.86667 18.1736 4.16667 18.1736H10C10.4583 18.1736 10.8333 17.7647 10.8333 17.2649C10.8333 16.7651 10.4583 16.3562 10 16.3562H4.16667C2.79167 16.3562 1.66667 15.1295 1.66667 13.6302V6.36074H18.3333V10.9041C18.3333 11.4039 18.7083 11.8128 19.1667 11.8128C19.625 11.8128 20 11.4039 20 10.9041V4.54339C20 2.03544 18.1333 0 15.8333 0ZM1.66667 4.54339C1.66667 3.04407 2.79167 1.81736 4.16667 1.81736H15.8333C17.2083 1.81736 18.3333 3.04407 18.3333 4.54339H1.66667ZM13.675 9.24125C13.0417 8.55066 12.2083 8.1781 11.3167 8.1781H9.99167C9.53333 8.1781 9.15833 8.58701 9.15833 9.08678V10.5316C9.15833 11.5039 9.50833 12.4125 10.1333 13.1031L15.725 19.2004C16.2 19.7183 16.825 20 17.4917 20C18.1583 20 18.7833 19.7183 19.2583 19.2004C19.7333 18.6824 19.9917 18.0009 19.9917 17.274C19.9917 16.547 19.7333 15.8655 19.2583 15.3476L13.6667 9.25034L13.675 9.24125ZM18.0833 17.91C17.7667 18.2553 17.2167 18.2553 16.9083 17.91L11.3167 11.8128C11 11.4675 10.825 11.0132 10.825 10.5316V9.99546H11.3167C11.7583 9.99546 12.1833 10.1863 12.4917 10.5316L18.0833 16.6288C18.2417 16.8015 18.325 17.0286 18.325 17.274C18.325 17.5193 18.2417 17.7465 18.0833 17.9191V17.91Z" fill="black"/>
</svg>
