<svg width="20" height="19" viewBox="0 0 20 19" fill="none" xmlns="http://www.w3.org/2000/svg">
<path d="M16 18.75H4C3.40326 18.75 2.83097 18.5129 2.40901 18.091C1.98705 17.669 1.75 17.0967 1.75 16.5V9C1.75 8.80109 1.82902 8.61032 1.96967 8.46967C2.11032 8.32902 2.30109 8.25 2.5 8.25C2.69891 8.25 2.88968 8.32902 3.03033 8.46967C3.17098 8.61032 3.25 8.80109 3.25 9V16.5C3.25 16.6989 3.32902 16.8897 3.46967 17.0303C3.61032 17.171 3.80109 17.25 4 17.25H16C16.1989 17.25 16.3897 17.171 16.5303 17.0303C16.671 16.8897 16.75 16.6989 16.75 16.5V9C16.75 8.80109 16.829 8.61032 16.9697 8.46967C17.1103 8.32902 17.3011 8.25 17.5 8.25C17.6989 8.25 17.8897 8.32902 18.0303 8.46967C18.171 8.61032 18.25 8.80109 18.25 9V16.5C18.25 17.0967 18.0129 17.669 17.591 18.091C17.169 18.5129 16.5967 18.75 16 18.75Z" fill="#FF0000"/>
<path d="M9.25 18.75H5.5C5.30109 18.75 5.11032 18.671 4.96967 18.5303C4.82902 18.3897 4.75 18.1989 4.75 18V13.5C4.75 12.9033 4.98705 12.331 5.40901 11.909C5.83097 11.4871 6.40326 11.25 7 11.25H7.75C8.34674 11.25 8.91903 11.4871 9.34099 11.909C9.76295 12.331 10 12.9033 10 13.5V18C10 18.1989 9.92098 18.3897 9.78033 18.5303C9.63968 18.671 9.44891 18.75 9.25 18.75ZM6.25 17.25H8.5V13.5C8.5 13.3011 8.42098 13.1103 8.28033 12.9697C8.13968 12.829 7.94891 12.75 7.75 12.75H7C6.80109 12.75 6.61032 12.829 6.46967 12.9697C6.32902 13.1103 6.25 13.3011 6.25 13.5V17.25Z" fill="#FF0000"/>
<path d="M16.75 9.75C15.9544 9.75 15.1913 9.43393 14.6287 8.87132C14.0661 8.30871 13.75 7.54565 13.75 6.75C13.75 6.55109 13.829 6.36032 13.9697 6.21967C14.1103 6.07902 14.3011 6 14.5 6C14.6989 6 14.8897 6.07902 15.0303 6.21967C15.171 6.36032 15.25 6.55109 15.25 6.75C15.25 7.14782 15.408 7.52936 15.6893 7.81066C15.9706 8.09196 16.3522 8.25 16.75 8.25C17.1478 8.25 17.5294 8.09196 17.8107 7.81066C18.092 7.52936 18.25 7.14782 18.25 6.75V6.18L16.285 2.25H3.715L1.75 6.18V6.75C1.75 7.14782 1.90804 7.52936 2.18934 7.81066C2.47064 8.09196 2.85218 8.25 3.25 8.25C3.64782 8.25 4.02936 8.09196 4.31066 7.81066C4.59196 7.52936 4.75 7.14782 4.75 6.75C4.75 6.55109 4.82902 6.36032 4.96967 6.21967C5.11032 6.07902 5.30109 6 5.5 6C5.69891 6 5.88968 6.07902 6.03033 6.21967C6.17098 6.36032 6.25 6.55109 6.25 6.75C6.25 7.54565 5.93393 8.30871 5.37132 8.87132C4.80871 9.43393 4.04565 9.75 3.25 9.75C2.45435 9.75 1.69129 9.43393 1.12868 8.87132C0.56607 8.30871 0.25 7.54565 0.25 6.75V6C0.250704 5.88259 0.278962 5.76699 0.3325 5.6625L2.5825 1.1625C2.64482 1.03881 2.74018 0.934802 2.858 0.861992C2.97582 0.789183 3.1115 0.75042 3.25 0.75H16.75C16.8885 0.75042 17.0242 0.789183 17.142 0.861992C17.2598 0.934802 17.3552 1.03881 17.4175 1.1625L19.6675 5.6625C19.721 5.76699 19.7493 5.88259 19.75 6V6.75C19.75 7.54565 19.4339 8.30871 18.8713 8.87132C18.3087 9.43393 17.5456 9.75 16.75 9.75Z" fill="#FF0000"/>
<path d="M7.75 9.75C6.95435 9.75 6.19129 9.43393 5.62868 8.87132C5.06607 8.30871 4.75 7.54565 4.75 6.75C4.75 6.55109 4.82902 6.36032 4.96967 6.21967C5.11032 6.07902 5.30109 6 5.5 6C5.69891 6 5.88968 6.07902 6.03033 6.21967C6.17098 6.36032 6.25 6.55109 6.25 6.75C6.25 7.14782 6.40804 7.52936 6.68934 7.81066C6.97064 8.09196 7.35218 8.25 7.75 8.25C8.14782 8.25 8.52936 8.09196 8.81066 7.81066C9.09196 7.52936 9.25 7.14782 9.25 6.75C9.25 6.55109 9.32902 6.36032 9.46967 6.21967C9.61032 6.07902 9.80109 6 10 6C10.1989 6 10.3897 6.07902 10.5303 6.21967C10.671 6.36032 10.75 6.55109 10.75 6.75C10.75 7.54565 10.4339 8.30871 9.87132 8.87132C9.30871 9.43393 8.54565 9.75 7.75 9.75Z" fill="#FF0000"/>
<path d="M12.25 9.75C11.4544 9.75 10.6913 9.43393 10.1287 8.87132C9.56607 8.30871 9.25 7.54565 9.25 6.75C9.25 6.55109 9.32902 6.36032 9.46967 6.21967C9.61032 6.07902 9.80109 6 10 6C10.1989 6 10.3897 6.07902 10.5303 6.21967C10.671 6.36032 10.75 6.55109 10.75 6.75C10.75 7.14782 10.908 7.52936 11.1893 7.81066C11.4706 8.09196 11.8522 8.25 12.25 8.25C12.6478 8.25 13.0294 8.09196 13.3107 7.81066C13.592 7.52936 13.75 7.14782 13.75 6.75C13.75 6.55109 13.829 6.36032 13.9697 6.21967C14.1103 6.07902 14.3011 6 14.5 6C14.6989 6 14.8897 6.07902 15.0303 6.21967C15.171 6.36032 15.25 6.55109 15.25 6.75C15.25 7.54565 14.9339 8.30871 14.3713 8.87132C13.8087 9.43393 13.0456 9.75 12.25 9.75Z" fill="#FF0000"/>
<path d="M14.5 13.5H12.25C12.0511 13.5 11.8603 13.421 11.7197 13.2803C11.579 13.1397 11.5 12.9489 11.5 12.75C11.5 12.5511 11.579 12.3603 11.7197 12.2197C11.8603 12.079 12.0511 12 12.25 12H14.5C14.6989 12 14.8897 12.079 15.0303 12.2197C15.171 12.3603 15.25 12.5511 15.25 12.75C15.25 12.9489 15.171 13.1397 15.0303 13.2803C14.8897 13.421 14.6989 13.5 14.5 13.5Z" fill="#FF0000"/>
</svg>
