<svg width="20" height="20" viewBox="0 0 20 20" fill="none" xmlns="http://www.w3.org/2000/svg">
<path d="M10 0.25C7.77545 0.247188 5.61682 1.00517 3.88239 2.39815C2.14796 3.79113 0.942026 5.73534 0.464739 7.90809C-0.0125481 10.0808 0.267515 12.3515 1.25844 14.3431C2.24937 16.3348 3.89158 17.9277 5.91251 18.8575C6.00258 18.907 6.10186 18.9374 6.20419 18.9469C6.30651 18.9564 6.4097 18.9448 6.50734 18.9127C6.60499 18.8807 6.695 18.8289 6.77181 18.7606C6.84861 18.6924 6.91057 18.609 6.95383 18.5158C6.99709 18.4226 7.02073 18.3215 7.02329 18.2188C7.02585 18.116 7.00726 18.0139 6.9687 17.9186C6.93013 17.8234 6.87239 17.7371 6.79908 17.665C6.72577 17.593 6.63844 17.5369 6.54251 17.5C4.69343 16.6526 3.22255 15.152 2.41231 13.2864C1.60207 11.4207 1.50959 9.32154 2.15262 7.39187C2.79565 5.46219 4.12886 3.83807 5.89626 2.83137C7.66365 1.82467 9.74064 1.50635 11.7284 1.93753C13.7162 2.36872 15.4746 3.51901 16.666 5.16754C17.8574 6.81607 18.3979 8.84662 18.1836 10.8693C17.9693 12.892 17.0153 14.7642 15.5049 16.1264C13.9944 17.4887 12.034 18.2449 10 18.25C9.8011 18.25 9.61033 18.329 9.46968 18.4697C9.32902 18.6103 9.25001 18.8011 9.25001 19C9.25001 19.1989 9.32902 19.3897 9.46968 19.5303C9.61033 19.671 9.8011 19.75 10 19.75C12.5859 19.75 15.0658 18.7228 16.8943 16.8943C18.7228 15.0658 19.75 12.5859 19.75 10C19.75 7.41414 18.7228 4.93419 16.8943 3.10571C15.0658 1.27723 12.5859 0.25 10 0.25Z" fill="black"/>
<path d="M15.325 8.9275C15.4371 8.99103 15.5637 9.02461 15.6925 9.025C15.8579 9.0245 16.0185 8.96932 16.1493 8.86806C16.2801 8.76679 16.3738 8.62513 16.4157 8.46511C16.4576 8.30509 16.4455 8.1357 16.3812 7.98331C16.3168 7.83091 16.2039 7.70406 16.06 7.6225C13.06 5.92 9.12999 5.4925 4.38999 6.325C4.29296 6.3422 4.20027 6.37835 4.11721 6.43139C4.03416 6.48442 3.96237 6.55331 3.90595 6.63411C3.84953 6.7149 3.80959 6.80603 3.78841 6.90227C3.76722 6.99851 3.76521 7.09798 3.78249 7.195C3.79969 7.29203 3.83584 7.38473 3.88888 7.46778C3.94192 7.55083 4.0108 7.62262 4.0916 7.67904C4.1724 7.73546 4.26352 7.7754 4.35976 7.79659C4.456 7.81777 4.55548 7.81978 4.65249 7.8025C9.03999 7 12.625 7.405 15.325 8.9275Z" fill="black"/>
<path d="M5.24504 10.75C8.90504 9.94 11.89 10.33 14.1325 11.905C14.2591 11.9967 14.4112 12.0465 14.5675 12.0475C14.6885 12.0473 14.8075 12.0179 14.9146 11.9617C15.0217 11.9056 15.1136 11.8243 15.1825 11.725C15.2964 11.5627 15.3414 11.362 15.3077 11.1666C15.2739 10.9713 15.1642 10.7972 15.0025 10.6825C12.4 8.845 9.00254 8.38 4.92254 9.28C4.72363 9.32277 4.54985 9.4428 4.43944 9.61369C4.32903 9.78458 4.29103 9.99234 4.33379 10.1912C4.37656 10.3902 4.49659 10.5639 4.66748 10.6744C4.83838 10.7848 5.04613 10.8228 5.24504 10.78V10.75Z" fill="black"/>
<path d="M5.88999 13.5925C8.73999 13.015 11.0575 13.2925 12.79 14.41C12.9107 14.488 13.0513 14.5296 13.195 14.53C13.3567 14.5296 13.514 14.4769 13.6433 14.3798C13.7727 14.2827 13.8672 14.1464 13.9127 13.9912C13.9583 13.836 13.9524 13.6703 13.8961 13.5187C13.8397 13.3671 13.7358 13.2378 13.6 13.15C11.5 11.8075 8.83749 11.5 5.59749 12.1225C5.39858 12.1613 5.22322 12.2775 5.11 12.4456C4.99677 12.6137 4.95496 12.8198 4.99374 13.0188C5.03253 13.2177 5.14875 13.393 5.31683 13.5062C5.48491 13.6195 5.69108 13.6613 5.88999 13.6225V13.5925Z" fill="black"/>
</svg>
