<svg width="20" height="16" viewBox="0 0 20 16" fill="none" xmlns="http://www.w3.org/2000/svg">
<path d="M16 0H4C1.7944 0 0 1.7939 0 4V12C0 14.2061 1.7944 16 4 16H16C18.2056 16 20 14.2061 20 12V4C20 1.7939 18.2056 0 16 0ZM18 12C18 13.1025 17.103 14 16 14H4C2.897 14 2 13.1025 2 12V6H18V12ZM2 4C2 2.8975 2.897 2 4 2H16C17.103 2 18 2.8975 18 4H2Z" fill="black"/>
<path d="M8.70695 10.707L8.99995 10.4141V12C8.99995 12.5527 9.44775 13 9.99995 13C10.5521 13 10.9999 12.5527 10.9999 12V10.4141L11.293 10.7071C11.4883 10.9023 11.7441 11 11.9999 11C12.2558 11 12.5116 10.9023 12.7069 10.707C13.0975 10.3164 13.0975 9.6836 12.7069 9.2929L10.7076 7.2936C10.6153 7.2011 10.5045 7.1278 10.3818 7.077C10.1375 6.976 9.86235 6.976 9.61805 7.077C9.49535 7.1278 9.38455 7.2011 9.29225 7.2936L7.29295 9.293C6.90235 9.6836 6.90235 10.3164 7.29295 10.7071C7.68355 11.0978 8.31635 11.0977 8.70695 10.707Z" fill="black"/>
</svg>
