<svg width="24" height="24" viewBox="0 0 24 24" fill="none" xmlns="http://www.w3.org/2000/svg">
<path d="M18.0688 18.0688C18.1664 17.9712 18.2784 17.8952 18.3952 17.8296L16.5744 16.008C16.4184 15.852 16.1648 15.852 16.0088 16.008C15.8528 16.1648 15.8528 16.4176 16.0088 16.5744L17.8256 18.3912C17.8944 18.2768 17.9712 18.1656 18.0688 18.0688Z" fill="#263238"/>
<path d="M22 24C21.4664 24 20.964 23.792 20.5856 23.4144L17.7856 20.6144C17.408 20.236 17.2 19.7344 17.2 19.2C17.2 18.6656 17.408 18.164 17.7856 17.7856C18.5104 17.0608 19.8888 17.0608 20.6136 17.7856L23.4136 20.5856C23.792 20.964 24 21.4656 24 22C24 22.5344 23.792 23.036 23.4144 23.4144C23.0368 23.7928 22.5336 24 22 24ZM19.2 18.016C18.8744 18.016 18.5656 18.1376 18.3512 18.352C18.1248 18.5784 18 18.88 18 19.2C18 19.52 18.1248 19.8216 18.3512 20.0488L21.1512 22.8488C21.6048 23.3016 22.3944 23.3016 22.848 22.8488C23.0752 22.6216 23.2 22.32 23.2 22C23.2 21.68 23.0752 21.3784 22.8488 21.1512L20.0488 18.3512C19.8344 18.1376 19.5256 18.016 19.2 18.016Z" fill="#263238"/>
<path d="M9.60001 17.16C9.37921 17.16 9.20001 16.9808 9.20001 16.76C9.20001 16.5392 9.37921 16.36 9.60001 16.36C12.6136 16.36 15.228 14.4368 16.1064 11.5752C16.1712 11.364 16.3952 11.2432 16.6064 11.3104C16.8176 11.3752 16.9368 11.5984 16.872 11.8096C15.8888 15.0104 12.9672 17.16 9.60001 17.16Z" fill="#263238"/>
<path d="M9.6 19.2C4.3064 19.2 0 14.8936 0 9.6C0 4.3064 4.3064 0 9.6 0C14.8936 0 19.2 4.3064 19.2 9.6C19.2 14.8936 14.8936 19.2 9.6 19.2ZM9.6 0.8C4.748 0.8 0.8 4.748 0.8 9.6C0.8 14.452 4.748 18.4 9.6 18.4C14.452 18.4 18.4 14.452 18.4 9.6C18.4 4.748 14.452 0.8 9.6 0.8Z" fill="#263238"/>
<path d="M16.8 10C17.0209 10 17.2 9.82091 17.2 9.6C17.2 9.37909 17.0209 9.2 16.8 9.2C16.5791 9.2 16.4 9.37909 16.4 9.6C16.4 9.82091 16.5791 10 16.8 10Z" fill="#263238"/>
</svg>
