<svg width="20" height="20" viewBox="0 0 20 20" fill="none" xmlns="http://www.w3.org/2000/svg">
<path fill-rule="evenodd" clip-rule="evenodd" d="M20 0.645161C20 0.28871 19.7113 0 19.3548 0H0.645161C0.28871 0 0 0.28871 0 0.645161V19.3548C0 19.7113 0.28871 20 0.645161 20H19.3548C19.7113 20 20 19.7113 20 19.3548V0.645161ZM18.7097 5.80645V18.7097H1.29032V5.80645H18.7097ZM1.29032 3.54839V4.51613H2.98355L4.08935 3.54839H1.29032ZM6.04871 3.54839L4.9429 4.51613H8.14484L9.25064 3.54839H6.04871ZM11.21 3.54839L10.1042 4.51613H13.3061L14.4119 3.54839H11.21ZM16.3713 3.54839L15.2655 4.51613H18.7097V3.54839H16.3713ZM1.29032 1.29032V2.25806H4.08935L2.98355 1.29032H1.29032ZM4.9429 1.29032L6.04871 2.25806H9.25064L8.14484 1.29032H4.9429ZM10.1042 1.29032L11.21 2.25806H14.4119L13.3061 1.29032H10.1042ZM15.2655 1.29032L16.3713 2.25806H18.7097V1.29032H15.2655Z" fill="black"/>
<path fill-rule="evenodd" clip-rule="evenodd" d="M12.9978 10.609L7.97395 8.0971C7.63718 7.92871 7.23718 7.94678 6.91685 8.14452C6.59653 8.34258 6.40169 8.69226 6.40169 9.06871C6.40169 10.31 6.40169 12.8513 6.40169 14.0926C6.40169 14.469 6.59653 14.8187 6.91685 15.0168C7.23718 15.2145 7.63718 15.2326 7.97395 15.0642L12.9978 12.5523C13.3659 12.3684 13.5981 11.9923 13.5981 11.5806C13.5981 11.169 13.3659 10.7929 12.9978 10.609ZM7.69202 13.7626L12.0559 11.5806L7.69202 9.39871V13.7626Z" fill="black"/>
</svg>
